<svg width="238" height="189" viewBox="0 0 238 189" fill="none" xmlns="http://www.w3.org/2000/svg">
<g clip-path="url(#clip0)">
<path d="M210.5 26.3C210.2 26.3 209.8 26.2 209.5 26C191.1 11.2 166 3.09998 138.8 3.09998C137.9 3.09998 137.3 2.39998 137.3 1.59998C137.3 0.799976 138 0.0999756 138.8 0.0999756C166.7 0.0999756 192.5 8.49998 211.5 23.7C212.2 24.2 212.3 25.2 211.7 25.9C211.4 26.1 211 26.3 210.5 26.3Z" fill="#3DAE2B"/>
<path d="M43.6 178.7C43.4 178.7 43.2 178.7 43 178.6C42.6 178.4 42.2 178.3 41.9 178.1C41.1 177.8 40.8 176.8 41.1 176.1C41.4 175.3 42.4 175 43.1 175.3C43.5 175.5 43.8 175.6 44.2 175.8C45 176.1 45.3 177 45 177.8C44.7 178.3 44.2 178.7 43.6 178.7ZM35.8 175C35.6 175 35.3 174.9 35.1 174.8C34.7 174.6 34.4 174.4 34 174.2C33.2 173.8 33 172.9 33.4 172.1C33.8 171.3 34.7 171.1 35.5 171.5C35.9 171.7 36.2 171.9 36.6 172.1C37.4 172.5 37.6 173.4 37.3 174.2C36.9 174.7 36.3 175 35.8 175ZM28.3 170.7C28 170.7 27.7 170.6 27.5 170.5C27.1 170.3 26.8 170.1 26.4 169.8C25.7 169.3 25.5 168.4 25.9 167.7C26.4 167 27.3 166.8 28 167.2C28.3 167.4 28.7 167.6 29 167.9C29.7 168.4 29.9 169.3 29.5 170C29.3 170.4 28.8 170.7 28.3 170.7ZM21.2 165.8C20.9 165.8 20.5 165.7 20.3 165.5C20 165.2 19.6 165 19.3 164.7C18.6 164.2 18.5 163.2 19 162.5C19.5 161.8 20.5 161.7 21.2 162.2C21.5 162.4 21.8 162.7 22.2 162.9C22.9 163.4 23 164.4 22.5 165.1C22.1 165.6 21.6 165.8 21.2 165.8ZM14.6 160.2C14.2 160.2 13.8 160.1 13.5 159.8C13.2 159.5 12.9 159.2 12.6 158.9C12 158.3 12 157.3 12.6 156.7C13.2 156.1 14.2 156.1 14.8 156.7C15.1 157 15.4 157.3 15.7 157.5C16.3 158.1 16.3 159.1 15.8 159.7C15.4 160.1 15 160.2 14.6 160.2ZM8.69999 153.9C8.29998 153.9 7.79999 153.7 7.49999 153.3C7.19999 153 6.99999 152.7 6.69999 152.3C6.19999 151.6 6.29999 150.7 6.89999 150.1C7.59999 149.6 8.49999 149.7 9.09999 150.3C9.39999 150.6 9.59999 150.9 9.89999 151.2C10.4 151.9 10.4 152.8 9.69999 153.4C9.39999 153.8 8.99999 153.9 8.69999 153.9ZM3.59999 147C3.09999 147 2.59999 146.7 2.29999 146.3C2.09999 145.9 1.89999 145.6 1.59999 145.2C1.19999 144.5 1.39999 143.5 2.09999 143.1C2.79999 142.7 3.79999 142.9 4.19999 143.6C4.39999 143.9 4.59999 144.3 4.79999 144.6C5.29999 145.3 4.99999 146.3 4.29999 146.7C4.19999 146.9 3.89999 147 3.59999 147Z" fill="#725FDB"/>
<path d="M143.4 188.8C140.9 188.8 138.4 188.7 135.9 188.6C107.9 187.1 77.1 177.2 51.6 161.4C25.1 145 7.4 124.8 1.9 104.3C-2.8 87.4 -0.999996 62.4 33.5 39.6C61.4 21.2 92.9 12.2 124.6 13.6C153.2 14.9 180.1 24.6 200.5 41.1C231.2 65.9 241.7 101.1 228.4 135.3C215 170 184.9 188.8 143.4 188.8ZM35.5 42.7C9.7 59.7 -0.699996 80.7 5.4 103.3C10.6 122.6 28.1 142.6 53.4 158.2C78.5 173.7 108.6 183.4 136 184.8C161.3 186.1 206.6 181.3 224.9 133.9C237.5 101.3 227.5 67.7 198.1 43.9C162.5 15.3 96.4 2.60003 35.5 42.7Z" fill="#725FDB"/>
<path d="M234.3 90.8042C234.598 125.76 215.938 149.932 189.059 164.627C162.158 179.334 127.042 184.533 94.5594 181.477C62.0634 178.42 32.3193 167.115 16.0933 148.939C7.99104 139.863 3.26092 129.078 3.22132 116.734C3.1817 104.382 7.83838 90.4152 18.61 74.9862C53.8031 24.5892 107.573 5.26647 152.621 10.197C197.674 15.1282 233.903 44.2807 234.3 90.8042Z" stroke="url(#paint0_linear)"/>
<path d="M128 71.55C128 71.15 128.1 70.75 128.4 70.45C129 69.85 130 69.85 130.6 70.45L131.8 71.65C132.4 72.25 132.4 73.25 131.8 73.85C131.2 74.45 130.2 74.45 129.6 73.85L128.4 72.65C128.2 72.35 128 71.95 128 71.55Z" fill="url(#paint1_linear)"/>
<path d="M134.4 77.95C134.4 77.55 134.5 77.15 134.8 76.85C135.4 76.25 136.4 76.25 137 76.85L138.2 78.05C138.8 78.65 138.8 79.65 138.2 80.25C137.6 80.85 136.6 80.85 136 80.25L134.8 79.05C134.6 78.75 134.4 78.35 134.4 77.95Z" fill="url(#paint2_linear)"/>
<path d="M128 79.15C128 78.75 128.1 78.35 128.4 78.05L129.6 76.85C130.2 76.25 131.2 76.25 131.8 76.85C132.4 77.45 132.4 78.45 131.8 79.05L130.6 80.25C130 80.85 129 80.85 128.4 80.25C128.2 79.95 128 79.55 128 79.15Z" fill="url(#paint3_linear)"/>
<path d="M134.4 72.75C134.4 72.35 134.5 71.95 134.8 71.65L136 70.45C136.6 69.85 137.6 69.85 138.2 70.45C138.8 71.05 138.8 72.05 138.2 72.65L137 73.85C136.4 74.45 135.4 74.45 134.8 73.85C134.6 73.55 134.4 73.15 134.4 72.75Z" fill="url(#paint4_linear)"/>
<path d="M80 109.55C80 109.15 80.1 108.75 80.4 108.45C81 107.85 82 107.85 82.6 108.45L83.8 109.65C84.4 110.25 84.4 111.25 83.8 111.85C83.2 112.45 82.2 112.45 81.6 111.85L80.4 110.65C80.2 110.35 80 109.95 80 109.55Z" fill="url(#paint5_linear)"/>
<path d="M86.4 115.95C86.4 115.55 86.5 115.15 86.8 114.85C87.4 114.25 88.4 114.25 89 114.85L90.2 116.05C90.8 116.65 90.8 117.65 90.2 118.25C89.6 118.85 88.6 118.85 88 118.25L86.8 117.05C86.6 116.75 86.4 116.35 86.4 115.95Z" fill="url(#paint6_linear)"/>
<path d="M80 117.15C80 116.75 80.1 116.35 80.4 116.05L81.6 114.85C82.2 114.25 83.2 114.25 83.8 114.85C84.4 115.45 84.4 116.45 83.8 117.05L82.6 118.25C82 118.85 81 118.85 80.4 118.25C80.2 117.95 80 117.55 80 117.15Z" fill="url(#paint7_linear)"/>
<path d="M86.4 110.75C86.4 110.35 86.5 109.95 86.8 109.65L88 108.45C88.6 107.85 89.6 107.85 90.2 108.45C90.8 109.05 90.8 110.05 90.2 110.65L89 111.85C88.4 112.45 87.4 112.45 86.8 111.85C86.6 111.55 86.4 111.15 86.4 110.75Z" fill="url(#paint8_linear)"/>
<path d="M148 119.55C148 119.15 148.1 118.75 148.4 118.45C149 117.85 150 117.85 150.6 118.45L151.8 119.65C152.4 120.25 152.4 121.25 151.8 121.85C151.2 122.45 150.2 122.45 149.6 121.85L148.4 120.65C148.2 120.35 148 119.95 148 119.55Z" fill="url(#paint9_linear)"/>
<path d="M154.4 125.95C154.4 125.55 154.5 125.15 154.8 124.85C155.4 124.25 156.4 124.25 157 124.85L158.2 126.05C158.8 126.65 158.8 127.65 158.2 128.25C157.6 128.85 156.6 128.85 156 128.25L154.8 127.05C154.6 126.75 154.4 126.35 154.4 125.95Z" fill="url(#paint10_linear)"/>
<path d="M148 127.15C148 126.75 148.1 126.35 148.4 126.05L149.6 124.85C150.2 124.25 151.2 124.25 151.8 124.85C152.4 125.45 152.4 126.45 151.8 127.05L150.6 128.25C150 128.85 149 128.85 148.4 128.25C148.2 127.95 148 127.55 148 127.15Z" fill="url(#paint11_linear)"/>
<path d="M154.4 120.75C154.4 120.35 154.5 119.95 154.8 119.65L156 118.45C156.6 117.85 157.6 117.85 158.2 118.45C158.8 119.05 158.8 120.05 158.2 120.65L157 121.85C156.4 122.45 155.4 122.45 154.8 121.85C154.6 121.55 154.4 121.15 154.4 120.75Z" fill="url(#paint12_linear)"/>
<path d="M179 86.55C179 86.15 179.1 85.75 179.4 85.45C180 84.85 181 84.85 181.6 85.45L182.8 86.65C183.4 87.25 183.4 88.25 182.8 88.85C182.2 89.45 181.2 89.45 180.6 88.85L179.4 87.65C179.2 87.35 179 86.95 179 86.55Z" fill="url(#paint13_linear)"/>
<path d="M185.4 92.95C185.4 92.55 185.5 92.15 185.8 91.85C186.4 91.25 187.4 91.25 188 91.85L189.2 93.05C189.8 93.65 189.8 94.65 189.2 95.25C188.6 95.85 187.6 95.85 187 95.25L185.8 94.05C185.6 93.75 185.4 93.35 185.4 92.95Z" fill="url(#paint14_linear)"/>
<path d="M179 94.15C179 93.75 179.1 93.35 179.4 93.05L180.6 91.85C181.2 91.25 182.2 91.25 182.8 91.85C183.4 92.45 183.4 93.45 182.8 94.05L181.6 95.25C181 95.85 180 95.85 179.4 95.25C179.2 94.95 179 94.55 179 94.15Z" fill="url(#paint15_linear)"/>
<path d="M185.4 87.75C185.4 87.35 185.5 86.95 185.8 86.65L187 85.45C187.6 84.85 188.6 84.85 189.2 85.45C189.8 86.05 189.8 87.05 189.2 87.65L188 88.85C187.4 89.45 186.4 89.45 185.8 88.85C185.6 88.55 185.4 88.15 185.4 87.75Z" fill="url(#paint16_linear)"/>
<path d="M54.5 130.5C55.3 130.5 56 129.8 56 129V109.1C56 108.3 55.3 107.6 54.5 107.6C53.7 107.6 53 108.3 53 109.1V129C53 129.8 53.7 130.5 54.5 130.5Z" fill="url(#paint17_linear)"/>
<path d="M61.8 130.5C62.6 130.5 63.3 129.8 63.3 129V117.6C63.3 116.8 62.6 116.1 61.8 116.1C61 116.1 60.3 116.8 60.3 117.6V129C60.3 129.8 61 130.5 61.8 130.5Z" fill="url(#paint18_linear)"/>
<path d="M61.8 113C62.6 113 63.3 112.3 63.3 111.5V110.4C63.3 109.6 62.6 108.9 61.8 108.9C61 108.9 60.3 109.6 60.3 110.4V111.5C60.3 112.3 61 113 61.8 113ZM61.8 106.5C62.6 106.5 63.3 105.8 63.3 105V103.9C63.3 103.1 62.6 102.4 61.8 102.4C61 102.4 60.3 103.1 60.3 103.9V105C60.3 105.9 61 106.5 61.8 106.5ZM61.8 100.1C62.6 100.1 63.3 99.4 63.3 98.6V97.5C63.3 96.7 62.6 96 61.8 96C61 96 60.3 96.7 60.3 97.5V98.6C60.3 99.4 61 100.1 61.8 100.1Z" fill="url(#paint19_linear)"/>
<path d="M236.2 60.7C235.6 60.7 235 60.3 234.8 59.7L234.7 59.5C234.4 58.7 234.8 57.8 235.6 57.5C236.4 57.2 237.3 57.6 237.6 58.4L237.7 58.6C238 59.4 237.6 60.3 236.8 60.6C236.6 60.6 236.4 60.7 236.2 60.7ZM233.1 53.7C232.5 53.7 232 53.4 231.7 52.9C231.5 52.5 231.3 52.2 231.1 51.8C230.7 51 231 50.1 231.7 49.7C232.5 49.3 233.4 49.6 233.8 50.3C234 50.7 234.2 51 234.4 51.4C234.8 52.2 234.5 53.1 233.7 53.5C233.6 53.7 233.3 53.7 233.1 53.7ZM228.8 46.3C228.3 46.3 227.8 46.1 227.5 45.6C227.3 45.3 227.1 44.9 226.8 44.6C226.3 43.9 226.5 42.9 227.2 42.5C227.9 42 228.9 42.2 229.3 42.9C229.5 43.2 229.8 43.6 230 43.9C230.5 44.6 230.3 45.6 229.6 46C229.3 46.2 229 46.3 228.8 46.3ZM223.7 39.3C223.3 39.3 222.8 39.1 222.5 38.7C222.2 38.4 222 38.1 221.7 37.8C221.2 37.1 221.2 36.2 221.9 35.6C222.6 35.1 223.5 35.1 224.1 35.8C224.4 36.1 224.6 36.4 224.9 36.8C225.4 37.5 225.3 38.4 224.7 39C224.3 39.2 224 39.3 223.7 39.3ZM217.9 32.9C217.5 32.9 217.1 32.8 216.8 32.5C216.5 32.2 216.2 31.9 215.9 31.6C215.3 31 215.3 30 215.9 29.4C216.5 28.8 217.5 28.8 218.1 29.4C218.4 29.7 218.7 30 219 30.3C219.6 30.9 219.6 31.9 219 32.5C218.7 32.7 218.3 32.9 217.9 32.9ZM211.5 27.1C211.2 27.1 210.8 27 210.5 26.7C210.2 26.4 209.9 26.2 209.6 25.9C208.9 25.4 208.8 24.4 209.4 23.7C209.9 23 210.9 22.9 211.6 23.5C211.9 23.8 212.3 24 212.6 24.3C213.3 24.8 213.4 25.8 212.8 26.5C212.4 26.9 211.9 27.1 211.5 27.1Z" fill="#3DAE2B"/>
<path d="M21.9 35.5C18.3 35.5 15.4 32.6 15.4 29C15.4 25.4 18.3 22.5 21.9 22.5C25.5 22.5 28.4 25.4 28.4 29C28.4 32.6 25.5 35.5 21.9 35.5ZM21.9 25.6C20 25.6 18.5 27.1 18.5 29C18.5 30.9 20 32.4 21.9 32.4C23.8 32.4 25.3 30.9 25.3 29C25.3 27.1 23.8 25.6 21.9 25.6Z" fill="#725FDB"/>
<path d="M235.2 163.8C234.8 163.8 234.4 163.6 234.1 163.3C233.5 162.7 233.5 161.7 234.1 161.1L235.1 160.1C235.7 159.5 236.7 159.5 237.3 160.1C237.9 160.7 237.9 161.7 237.3 162.3L236.3 163.3C236 163.6 235.6 163.8 235.2 163.8Z" fill="#3DAE2B"/>
<path d="M228.5 170.5C228.1 170.5 227.7 170.3 227.4 170C226.8 169.4 226.8 168.4 227.4 167.8L228.4 166.8C229 166.2 230 166.2 230.6 166.8C231.2 167.4 231.2 168.4 230.6 169L229.6 170C229.3 170.3 228.9 170.5 228.5 170.5Z" fill="#3DAE2B"/>
<path d="M229.5 163.8C229.1 163.8 228.7 163.6 228.4 163.3L227.4 162.3C226.8 161.7 226.8 160.7 227.4 160.1C228 159.5 229 159.5 229.6 160.1L230.6 161.1C231.2 161.7 231.2 162.7 230.6 163.3C230.2 163.6 229.9 163.8 229.5 163.8Z" fill="#3DAE2B"/>
<path d="M236.2 170.5C235.8 170.5 235.4 170.3 235.1 170L234.1 169C233.5 168.4 233.5 167.4 234.1 166.8C234.7 166.2 235.7 166.2 236.3 166.8L237.3 167.8C237.9 168.4 237.9 169.4 237.3 170C237 170.3 236.6 170.5 236.2 170.5Z" fill="#3DAE2B"/>
<g opacity="0.9">
<path opacity="0.9" d="M143.4 188.8C140.9 188.8 138.4 188.7 135.9 188.6C107.9 187.1 77.1 177.2 51.6 161.4C25.1 145 7.4 124.8 1.9 104.3C-2.8 87.4 -0.999996 62.4 33.5 39.6C34.4 39 35.5 39.3 36.1 40.1C36.7 41 36.4 42.1 35.6 42.7C9.8 59.7 -0.599996 80.7 5.5 103.3C10.7 122.6 28.2 142.6 53.5 158.2C78.6 173.7 108.7 183.4 136.1 184.8C161.4 186.1 206.7 181.3 225 133.9C225.4 132.9 226.4 132.5 227.4 132.8C228.4 133.2 228.8 134.2 228.5 135.2C215 170 184.9 188.8 143.4 188.8Z" fill="#725FDB"/>
</g>
<path fill-rule="evenodd" clip-rule="evenodd" d="M68 150.5C67.4477 150.5 67 150.052 67 149.5V67.5C67 66.9477 67.4477 66.5 68 66.5C68.5523 66.5 69 66.9477 69 67.5V149.5C69 150.052 68.5523 150.5 68 150.5Z" fill="url(#paint20_linear)"/>
<path fill-rule="evenodd" clip-rule="evenodd" d="M190.5 136.5C190.5 137.052 190.052 137.5 189.5 137.5H50.5C49.9477 137.5 49.5 137.052 49.5 136.5C49.5 135.948 49.9477 135.5 50.5 135.5H189.5C190.052 135.5 190.5 135.948 190.5 136.5Z" fill="url(#paint21_linear)"/>
<path fill-rule="evenodd" clip-rule="evenodd" d="M90.0958 71.8997C85.2508 72.0005 80.545 74.9617 77.4283 77.9791C77.0315 78.3632 76.4004 78.3804 76 78C75.5996 77.6196 75.5817 76.9858 75.9773 76.6005C79.2892 73.3757 84.4745 70.0163 90.0542 69.9002C93.0864 69.8371 96.198 70.7357 99.1163 73.0761C102.018 75.4035 104.684 79.119 106.926 84.6227C108.115 87.5413 109.249 90.3713 110.339 93.0903C114.312 103.005 117.693 111.444 120.997 117.323C123.107 121.078 125.101 123.623 127.066 124.866C128.025 125.472 128.953 125.752 129.879 125.734C130.809 125.716 131.825 125.396 132.955 124.662C135.216 123.192 137.241 120.19 139.193 116.473C140.157 114.637 141.081 112.672 141.997 110.7C142.122 110.431 142.247 110.162 142.371 109.893C143.158 108.197 143.941 106.507 144.731 104.928C145.645 103.099 146.583 101.388 147.568 99.9533C148.548 98.5279 149.617 97.3109 150.816 96.5353C152.048 95.7388 153.432 95.4027 154.93 95.7942C156.382 96.1734 157.809 97.2014 159.251 98.8394C163.533 103.706 166.359 109.731 168.644 114.603C169.352 116.111 170.007 117.509 170.638 118.728C171.316 120.038 171.956 121.129 172.595 121.963C173.239 122.805 173.825 123.308 174.367 123.543C174.862 123.758 175.397 123.784 176.075 123.496C176.794 123.192 177.678 122.53 178.757 121.331C185.634 113.69 196.145 99.9013 201.104 93.2065C201.433 92.7627 202.055 92.6724 202.5 93C202.945 93.3276 203.043 93.949 202.714 94.3928C197.752 101.092 187.19 114.95 180.243 122.669C179.072 123.97 177.956 124.871 176.855 125.338C175.713 125.822 174.607 125.828 173.571 125.378C172.582 124.949 171.745 124.144 171.007 123.179C170.262 122.207 169.559 120.994 168.862 119.647C168.17 118.31 167.474 116.828 166.739 115.262C164.468 110.425 161.823 104.79 157.749 100.161C156.441 98.6736 155.336 97.9673 154.425 97.7293C153.561 97.5035 152.749 97.6674 151.902 98.2147C151.024 98.7829 150.132 99.7534 149.217 101.086C148.308 102.409 147.418 104.026 146.519 105.822C145.744 107.372 144.975 109.032 144.187 110.731C144.063 111.001 143.937 111.271 143.811 111.542C142.895 113.515 141.953 115.519 140.963 117.402C139.009 121.123 136.784 124.558 134.045 126.338C132.675 127.229 131.3 127.706 129.918 127.733C128.532 127.76 127.225 127.332 125.997 126.556C123.587 125.033 121.393 122.109 119.253 118.302C115.879 112.298 112.429 103.687 108.446 93.7467C107.365 91.0464 106.244 88.248 105.074 85.3773C102.916 80.081 100.423 76.6881 97.865 74.6363C95.3229 72.5976 92.6719 71.8462 90.0958 71.8997Z" fill="url(#paint22_linear)"/>
</g>
<defs>
<linearGradient id="paint0_linear" x1="2.72107" y1="95.885" x2="234.804" y2="95.885" gradientUnits="userSpaceOnUse">
<stop stop-color="#3DAE2B"/>
<stop offset="1" stop-color="#048172"/>
</linearGradient>
<linearGradient id="paint1_linear" x1="130.125" y1="70" x2="130.125" y2="74.3" gradientUnits="userSpaceOnUse">
<stop stop-color="#3DAE2B"/>
<stop offset="1" stop-color="#048172"/>
</linearGradient>
<linearGradient id="paint2_linear" x1="136.525" y1="76.4" x2="136.525" y2="80.7" gradientUnits="userSpaceOnUse">
<stop stop-color="#3DAE2B"/>
<stop offset="1" stop-color="#048172"/>
</linearGradient>
<linearGradient id="paint3_linear" x1="130.125" y1="76.4" x2="130.125" y2="80.7" gradientUnits="userSpaceOnUse">
<stop stop-color="#3DAE2B"/>
<stop offset="1" stop-color="#048172"/>
</linearGradient>
<linearGradient id="paint4_linear" x1="136.525" y1="70" x2="136.525" y2="74.3" gradientUnits="userSpaceOnUse">
<stop stop-color="#3DAE2B"/>
<stop offset="1" stop-color="#048172"/>
</linearGradient>
<linearGradient id="paint5_linear" x1="82.125" y1="108" x2="82.125" y2="112.3" gradientUnits="userSpaceOnUse">
<stop stop-color="#3DAE2B"/>
<stop offset="1" stop-color="#048172"/>
</linearGradient>
<linearGradient id="paint6_linear" x1="88.525" y1="114.4" x2="88.525" y2="118.7" gradientUnits="userSpaceOnUse">
<stop stop-color="#3DAE2B"/>
<stop offset="1" stop-color="#048172"/>
</linearGradient>
<linearGradient id="paint7_linear" x1="82.125" y1="114.4" x2="82.125" y2="118.7" gradientUnits="userSpaceOnUse">
<stop stop-color="#3DAE2B"/>
<stop offset="1" stop-color="#048172"/>
</linearGradient>
<linearGradient id="paint8_linear" x1="88.525" y1="108" x2="88.525" y2="112.3" gradientUnits="userSpaceOnUse">
<stop stop-color="#3DAE2B"/>
<stop offset="1" stop-color="#048172"/>
</linearGradient>
<linearGradient id="paint9_linear" x1="150.125" y1="118" x2="150.125" y2="122.3" gradientUnits="userSpaceOnUse">
<stop stop-color="#3DAE2B"/>
<stop offset="1" stop-color="#048172"/>
</linearGradient>
<linearGradient id="paint10_linear" x1="156.525" y1="124.4" x2="156.525" y2="128.7" gradientUnits="userSpaceOnUse">
<stop stop-color="#3DAE2B"/>
<stop offset="1" stop-color="#048172"/>
</linearGradient>
<linearGradient id="paint11_linear" x1="150.125" y1="124.4" x2="150.125" y2="128.7" gradientUnits="userSpaceOnUse">
<stop stop-color="#3DAE2B"/>
<stop offset="1" stop-color="#048172"/>
</linearGradient>
<linearGradient id="paint12_linear" x1="156.525" y1="118" x2="156.525" y2="122.3" gradientUnits="userSpaceOnUse">
<stop stop-color="#3DAE2B"/>
<stop offset="1" stop-color="#048172"/>
</linearGradient>
<linearGradient id="paint13_linear" x1="181.125" y1="85" x2="181.125" y2="89.3" gradientUnits="userSpaceOnUse">
<stop stop-color="#3DAE2B"/>
<stop offset="1" stop-color="#048172"/>
</linearGradient>
<linearGradient id="paint14_linear" x1="187.525" y1="91.4" x2="187.525" y2="95.7" gradientUnits="userSpaceOnUse">
<stop stop-color="#3DAE2B"/>
<stop offset="1" stop-color="#048172"/>
</linearGradient>
<linearGradient id="paint15_linear" x1="181.125" y1="91.4" x2="181.125" y2="95.7" gradientUnits="userSpaceOnUse">
<stop stop-color="#3DAE2B"/>
<stop offset="1" stop-color="#048172"/>
</linearGradient>
<linearGradient id="paint16_linear" x1="187.525" y1="85" x2="187.525" y2="89.3" gradientUnits="userSpaceOnUse">
<stop stop-color="#3DAE2B"/>
<stop offset="1" stop-color="#048172"/>
</linearGradient>
<linearGradient id="paint17_linear" x1="56" y1="119.05" x2="53" y2="119.05" gradientUnits="userSpaceOnUse">
<stop stop-color="#3DAE2B"/>
<stop offset="1" stop-color="#048172"/>
</linearGradient>
<linearGradient id="paint18_linear" x1="63.3" y1="123.3" x2="60.3" y2="123.3" gradientUnits="userSpaceOnUse">
<stop stop-color="#3DAE2B"/>
<stop offset="1" stop-color="#048172"/>
</linearGradient>
<linearGradient id="paint19_linear" x1="63.3" y1="104.5" x2="60.3" y2="104.5" gradientUnits="userSpaceOnUse">
<stop stop-color="#3DAE2B"/>
<stop offset="1" stop-color="#048172"/>
</linearGradient>
<linearGradient id="paint20_linear" x1="67" y1="108.5" x2="69" y2="108.5" gradientUnits="userSpaceOnUse">
<stop stop-color="#3DAE2B"/>
<stop offset="1" stop-color="#048172"/>
</linearGradient>
<linearGradient id="paint21_linear" x1="49.5" y1="136.5" x2="190.5" y2="136.5" gradientUnits="userSpaceOnUse">
<stop stop-color="#3DAE2B"/>
<stop offset="1" stop-color="#048172"/>
</linearGradient>
<linearGradient id="paint22_linear" x1="75.275" y1="98.8158" x2="203.305" y2="98.8158" gradientUnits="userSpaceOnUse">
<stop stop-color="#3DAE2B"/>
<stop offset="1" stop-color="#048172"/>
</linearGradient>
<clipPath id="clip0">
<rect width="237.8" height="188.8" fill="white"/>
</clipPath>
</defs>
</svg>
