<svg width="232" height="220" viewBox="0 0 232 220" fill="none" xmlns="http://www.w3.org/2000/svg">
<g clip-path="url(#clip0)">
<path d="M76.2 219.8C71.6 219.8 67.1 218.9 62.7 217.1C54.2 213.5 47.6 206.8 44.1 198.2L2.6 95.9C-0.899996 87.3 -0.799996 77.9 2.8 69.4C6.3 60.9 13 54.3 21.6 50.8L139.7 2.79999C157.4 -4.40001 177.6 4.09999 184.8 21.8L226.4 124.1C233.6 141.8 225.1 162 207.4 169.2L89.3 217.2C85.1 219 80.7 219.8 76.2 219.8ZM152.7 3.89999C148.8 3.89999 144.9 4.59999 141.1 6.19999L23 54.2C15.3 57.3 9.4 63.2 6.2 70.8C3 78.4 2.9 86.8 6 94.5L47.6 196.8C50.7 204.5 56.6 210.4 64.2 213.6C71.8 216.8 80.2 216.9 87.9 213.8L206 165.8C221.8 159.4 229.4 141.3 223 125.5L181.4 23.2C176.5 11.2 164.9 3.89999 152.7 3.89999Z" fill="#725FDB"/>
<path d="M16.1 36C15.8 36 15.6 35.9 15.3 35.8C14.6 35.4 14.3 34.4 14.8 33.7C15 33.3 15.2 33 15.5 32.6C16 31.9 16.9 31.7 17.6 32.1C18.3 32.6 18.5 33.5 18.1 34.2C17.9 34.5 17.7 34.9 17.5 35.2C17.1 35.7 16.6 36 16.1 36ZM21.2 29.1C20.8 29.1 20.5 29 20.2 28.7C19.6 28.1 19.5 27.1 20.1 26.5C20.4 26.2 20.7 25.9 21 25.6C21.6 25 22.6 25 23.2 25.6C23.8 26.2 23.8 27.2 23.2 27.8C22.9 28.1 22.6 28.4 22.4 28.7C22.1 28.9 21.7 29.1 21.2 29.1ZM27.7 23.4C27.2 23.4 26.7 23.2 26.4 22.7C25.9 22 26.1 21 26.8 20.6C27.1 20.4 27.5 20.1 27.9 19.9C28.6 19.4 29.6 19.6 30 20.3C30.5 21 30.3 22 29.6 22.4C29.3 22.6 28.9 22.8 28.6 23.1C28.3 23.3 28 23.4 27.7 23.4ZM35.3 19.3C34.7 19.3 34.1 18.9 33.9 18.4C33.6 17.6 33.9 16.7 34.7 16.4C35.1 16.2 35.5 16.1 35.9 15.9C36.7 15.6 37.6 16 37.9 16.8C38.2 17.6 37.8 18.5 37 18.8C36.6 18.9 36.3 19.1 35.9 19.2C35.7 19.2 35.5 19.3 35.3 19.3ZM43.5 16.8C42.8 16.8 42.1 16.3 42 15.5C41.8 14.7 42.4 13.9 43.2 13.7C43.6 13.6 44 13.6 44.5 13.5C45.3 13.4 46.1 14 46.3 14.8C46.4 15.6 45.8 16.4 45 16.6C44.6 16.7 44.2 16.7 43.8 16.8C43.7 16.8 43.6 16.8 43.5 16.8Z" fill="#3DAE2B"/>
<path d="M177.4 207C176.5 207 175.9 206.3 175.9 205.5C175.9 204.7 176.6 204 177.4 204H178.6C179.5 204 180.2 204.7 180.2 205.5C180.2 206.4 179.5 207.1 178.7 207.1L177.4 207ZM170 207H168.8C167.9 207 167.3 206.3 167.3 205.5C167.3 204.7 168 204 168.8 204H170C170.9 204 171.5 204.7 171.5 205.5C171.5 206.3 170.9 207 170 207ZM161.4 207H160.2C159.3 207 158.7 206.3 158.7 205.5C158.7 204.7 159.4 204 160.2 204H161.4C162.3 204 162.9 204.7 162.9 205.5C162.9 206.3 162.2 207 161.4 207ZM186 206.2C185.3 206.2 184.6 205.7 184.5 205C184.3 204.2 184.9 203.4 185.7 203.2C186.1 203.1 186.5 203 186.9 203C187.7 202.8 188.6 203.3 188.7 204.2C188.9 205 188.4 205.9 187.5 206C187.1 206.1 186.7 206.2 186.2 206.3C186.2 206.2 186.1 206.2 186 206.2ZM194.2 203.6C193.6 203.6 193 203.3 192.8 202.7C192.5 201.9 192.8 201 193.6 200.7C194 200.5 194.3 200.4 194.7 200.2C195.5 199.8 196.4 200.2 196.8 200.9C197.2 201.7 196.8 202.6 196.1 203C195.7 203.2 195.3 203.4 194.9 203.5C194.6 203.6 194.4 203.6 194.2 203.6ZM201.7 199.4C201.2 199.4 200.7 199.2 200.4 198.8C199.9 198.1 200.1 197.1 200.7 196.6C201 196.4 201.3 196.1 201.6 195.9C202.3 195.4 203.2 195.5 203.8 196.2C204.3 196.9 204.2 197.8 203.5 198.4C203.2 198.7 202.8 198.9 202.5 199.2C202.3 199.3 202 199.4 201.7 199.4ZM208.1 193.6C207.7 193.6 207.4 193.5 207.1 193.2C206.5 192.6 206.4 191.7 207 191C207.3 190.7 207.5 190.4 207.8 190.1C208.3 189.4 209.3 189.4 210 189.9C210.7 190.4 210.7 191.4 210.2 192.1C209.9 192.4 209.6 192.7 209.4 193.1C208.9 193.4 208.5 193.6 208.1 193.6Z" fill="#3DAE2B"/>
<path d="M178.2 197.5H50.8C32.9741 197.5 18.5 183.122 18.5 165.3V54.8C18.5 36.9761 32.9761 22.5 50.8 22.5H178.3C196.124 22.5 210.6 36.9761 210.6 54.8L210.6 165.297C210.6 165.298 210.6 165.299 210.6 165.3C210.5 183.123 196.024 197.5 178.2 197.5Z" stroke="url(#paint0_linear)"/>
<path d="M86.2 3.99998C85.8 3.99998 85.4 3.79998 85.1 3.49998C84.5 2.89998 84.5 1.89998 85.1 1.29998L86.1 0.299976C86.7 -0.300024 87.7 -0.300024 88.3 0.299976C88.9 0.899976 88.9 1.89998 88.3 2.49998L87.3 3.49998C87 3.89998 86.6 3.99998 86.2 3.99998Z" fill="#725FDB"/>
<path d="M79.5 10.7C79.1 10.7 78.7 10.5 78.4 10.2C77.8 9.59999 77.8 8.59999 78.4 7.99999L79.4 6.99999C80 6.39999 81 6.39999 81.6 6.99999C82.2 7.59999 82.2 8.59999 81.6 9.19999L80.6 10.2C80.3 10.6 79.9 10.7 79.5 10.7Z" fill="#725FDB"/>
<path d="M80.5 3.99998C80.1 3.99998 79.7 3.79998 79.4 3.49998L78.4 2.49998C77.8 1.89998 77.8 0.899976 78.4 0.299976C79 -0.300024 80 -0.300024 80.6 0.299976L81.6 1.29998C82.2 1.89998 82.2 2.89998 81.6 3.49998C81.3 3.89998 80.9 3.99998 80.5 3.99998Z" fill="#725FDB"/>
<path d="M87.2 10.7C86.8 10.7 86.4 10.5 86.1 10.2L85.1 9.19999C84.5 8.59999 84.5 7.59999 85.1 6.99999C85.7 6.39999 86.7 6.39999 87.3 6.99999L88.3 7.99999C88.9 8.59999 88.9 9.59999 88.3 10.2C88 10.6 87.6 10.7 87.2 10.7Z" fill="#725FDB"/>
<path d="M30.7 210C30.3 210 29.9 209.8 29.6 209.5C29 208.9 29 207.9 29.6 207.3L30.6 206.3C31.2 205.7 32.2 205.7 32.8 206.3C33.4 206.9 33.4 207.9 32.8 208.5L31.8 209.5C31.5 209.8 31.1 210 30.7 210Z" fill="#725FDB"/>
<path d="M24 216.7C23.6 216.7 23.2 216.5 22.9 216.2C22.3 215.6 22.3 214.6 22.9 214L23.9 213C24.5 212.4 25.5 212.4 26.1 213C26.7 213.6 26.7 214.6 26.1 215.2L25.1 216.2C24.8 216.5 24.4 216.7 24 216.7Z" fill="#725FDB"/>
<path d="M25 210C24.6 210 24.2 209.8 23.9 209.5L22.9 208.5C22.3 207.9 22.3 206.9 22.9 206.3C23.5 205.7 24.5 205.7 25.1 206.3L26.1 207.3C26.7 207.9 26.7 208.9 26.1 209.5C25.8 209.8 25.4 210 25 210Z" fill="#725FDB"/>
<path d="M31.7 216.7C31.3 216.7 30.9 216.5 30.6 216.2L29.6 215.2C29 214.6 29 213.6 29.6 213C30.2 212.4 31.2 212.4 31.8 213L32.8 214C33.4 214.6 33.4 215.6 32.8 216.2C32.5 216.5 32.1 216.7 31.7 216.7Z" fill="#725FDB"/>
<path d="M225.2 85.2C221.6 85.2 218.7 82.3 218.7 78.7C218.7 75.1 221.6 72.2 225.2 72.2C228.8 72.2 231.7 75.1 231.7 78.7C231.7 82.3 228.7 85.2 225.2 85.2ZM225.2 75.3C223.3 75.3 221.8 76.8 221.8 78.7C221.8 80.6 223.3 82.1 225.2 82.1C227.1 82.1 228.6 80.6 228.6 78.7C228.6 76.8 227 75.3 225.2 75.3Z" fill="#3DAE2B"/>
<g opacity="0.6">
<path opacity="0.6" d="M76.2 219.8C71.6 219.8 67.1 218.9 62.7 217.1C54.2 213.5 47.6 206.8 44.1 198.2L2.59997 95.9C2.19997 95 2.69997 93.9 3.59997 93.5C4.49997 93.1 5.59997 93.6 5.99997 94.5L47.6 196.8C50.7 204.5 56.6 210.4 64.2 213.6C71.8 216.8 80.2 216.9 87.9 213.8C88.8 213.4 89.9 213.9 90.3 214.8C90.7 215.7 90.2 216.8 89.3 217.2C85.1 219 80.7 219.8 76.2 219.8Z" fill="#725FDB"/>
<path opacity="0.6" d="M220.2 159.1C219.8 159.1 219.4 159 219.1 158.7C218.3 158.1 218.1 156.9 218.8 156.1C225.5 147.4 227.1 135.7 223 125.5L181.4 23.2C175 7.39999 156.9 -0.200012 141.1 6.19999C140.2 6.59999 139.1 6.09999 138.7 5.19999C138.3 4.29999 138.8 3.19999 139.7 2.79999C157.4 -4.40001 177.6 4.09999 184.8 21.8L226.4 124.1C231 135.5 229.2 148.6 221.7 158.3C221.3 158.9 220.8 159.1 220.2 159.1Z" fill="#725FDB"/>
</g>
<path d="M64.275 84.475L64.275 78.375C64.275 71.875 69.575 66.675 75.975 66.675C76.775 66.675 77.475 67.375 77.475 68.175C77.475 68.975 76.775 69.675 75.975 69.675C71.175 69.675 67.275 73.575 67.275 78.375L67.275 82.975L86.175 82.975C86.975 82.975 87.675 83.675 87.675 84.475C87.675 85.275 86.975 85.975 86.175 85.975L65.775 85.975C64.975 86.075 64.275 85.375 64.275 84.475Z" fill="url(#paint1_linear)"/>
<path d="M74.475 68.175C74.475 67.375 75.175 66.675 75.975 66.675L131.575 66.675C138.075 66.675 143.275 71.975 143.275 78.375L143.275 141.575C143.275 146.375 147.175 150.275 151.975 150.275C152.775 150.275 153.475 150.975 153.475 151.775C153.475 152.575 152.775 153.275 151.975 153.275L96.475 153.275C89.975 153.275 84.775 147.975 84.775 141.575L84.775 78.375C84.775 73.575 80.875 69.675 76.075 69.675C75.175 69.675 74.475 68.975 74.475 68.175ZM140.275 78.375C140.275 73.575 136.375 69.675 131.575 69.675L83.875 69.675C86.275 71.775 87.775 74.875 87.775 78.375L87.775 141.575C87.775 146.375 91.675 150.275 96.475 150.275L144.075 150.275C141.675 148.175 140.175 145.075 140.175 141.575L140.175 78.375L140.275 78.375Z" fill="url(#paint2_linear)"/>
<path d="M140.275 135.475C140.275 134.675 140.975 133.975 141.775 133.975L162.175 133.975C162.975 133.975 163.675 134.675 163.675 135.475L163.675 141.575C163.675 148.075 158.375 153.275 151.975 153.275C151.175 153.275 150.475 152.575 150.475 151.775C150.475 150.975 151.175 150.275 151.975 150.275C156.775 150.275 160.675 146.375 160.675 141.575L160.675 136.975L141.775 136.975C140.975 136.975 140.275 136.275 140.275 135.475Z" fill="url(#paint3_linear)"/>
<path d="M68.275 111.875L68.275 105.275C68.275 104.475 68.975 103.775 69.775 103.775C70.575 103.775 71.275 104.475 71.275 105.275L71.275 111.875C71.275 112.675 70.575 113.375 69.775 113.375C68.975 113.375 68.275 112.675 68.275 111.875Z" fill="url(#paint4_linear)"/>
<path d="M75.475 120.375L75.475 105.175C75.475 104.375 76.175 103.675 76.975 103.675C77.775 103.675 78.475 104.375 78.475 105.175L78.475 120.375C78.475 121.175 77.775 121.875 76.975 121.875C76.175 121.875 75.475 121.275 75.475 120.375Z" fill="url(#paint5_linear)"/>
<path d="M68.275 99.275L68.275 97.675C68.275 96.875 68.975 96.175 69.775 96.175C70.575 96.175 71.275 96.875 71.275 97.675L71.275 99.275C71.275 100.075 70.575 100.775 69.775 100.775C68.975 100.775 68.275 100.175 68.275 99.275Z" fill="url(#paint6_linear)"/>
<path d="M75.475 99.275L75.475 97.675C75.475 96.875 76.175 96.175 76.975 96.175C77.775 96.175 78.475 96.875 78.475 97.675L78.475 99.275C78.475 100.075 77.775 100.775 76.975 100.775C76.175 100.775 75.475 100.175 75.475 99.275Z" fill="url(#paint7_linear)"/>
<path d="M154.275 96.5751C154.275 96.1751 154.375 95.7751 154.675 95.4751C155.275 94.8751 156.275 94.8751 156.875 95.4751L158.075 96.6751C158.675 97.2751 158.675 98.2751 158.075 98.8751C157.475 99.4751 156.475 99.4751 155.875 98.8751L154.675 97.6751C154.475 97.3751 154.275 96.9751 154.275 96.5751Z" fill="url(#paint8_linear)"/>
<path d="M160.675 102.975C160.675 102.575 160.775 102.175 161.075 101.875C161.675 101.275 162.675 101.275 163.275 101.875L164.475 103.075C165.075 103.675 165.075 104.675 164.475 105.275C163.875 105.875 162.875 105.875 162.275 105.275L161.075 104.075C160.875 103.775 160.675 103.375 160.675 102.975Z" fill="url(#paint9_linear)"/>
<path d="M154.275 104.175C154.275 103.775 154.375 103.375 154.675 103.075L155.875 101.875C156.475 101.275 157.475 101.275 158.075 101.875C158.675 102.475 158.675 103.475 158.075 104.075L156.875 105.275C156.275 105.875 155.275 105.875 154.675 105.275C154.475 104.975 154.275 104.575 154.275 104.175Z" fill="url(#paint10_linear)"/>
<path d="M160.675 97.7751C160.675 97.3751 160.775 96.9751 161.075 96.6751L162.275 95.4751C162.875 94.8751 163.875 94.8751 164.475 95.4751C165.075 96.0751 165.075 97.0751 164.475 97.6751L163.275 98.8751C162.675 99.4751 161.675 99.4751 161.075 98.8751C160.875 98.5751 160.675 98.1751 160.675 97.7751Z" fill="url(#paint11_linear)"/>
<path d="M151.675 74.575C151.675 74.175 151.775 73.775 152.075 73.475L152.375 73.175C152.975 72.575 153.975 72.575 154.575 73.175C155.175 73.775 155.175 74.775 154.575 75.375L154.275 75.675C153.675 76.275 152.675 76.275 152.075 75.675C151.875 75.375 151.675 74.975 151.675 74.575Z" fill="url(#paint12_linear)"/>
<path d="M147.175 79.075C147.175 78.675 147.275 78.275 147.575 77.975L147.875 77.675C148.475 77.075 149.475 77.075 150.075 77.675C150.675 78.275 150.675 79.275 150.075 79.875L149.775 80.175C149.175 80.775 148.175 80.775 147.575 80.175C147.375 79.875 147.175 79.475 147.175 79.075Z" fill="url(#paint13_linear)"/>
<path d="M147.175 74.275C147.175 73.875 147.275 73.475 147.575 73.175C148.175 72.575 149.175 72.575 149.775 73.175L150.075 73.475C150.675 74.075 150.675 75.075 150.075 75.675C149.475 76.275 148.475 76.275 147.875 75.675L147.575 75.375C147.375 74.975 147.175 74.575 147.175 74.275Z" fill="url(#paint14_linear)"/>
<path d="M151.675 78.775C151.675 78.375 151.775 77.975 152.075 77.675C152.675 77.075 153.675 77.075 154.275 77.675L154.575 77.975C155.175 78.575 155.175 79.575 154.575 80.175C153.975 80.775 152.975 80.775 152.375 80.175L152.075 79.875C151.875 79.575 151.675 79.175 151.675 78.775Z" fill="url(#paint15_linear)"/>
<path d="M156.575 117.975C156.575 117.575 156.675 117.175 156.975 116.875L157.275 116.575C157.875 115.975 158.875 115.975 159.475 116.575C160.075 117.175 160.075 118.175 159.475 118.775L159.175 119.075C158.575 119.675 157.575 119.675 156.975 119.075C156.675 118.675 156.575 118.275 156.575 117.975Z" fill="url(#paint16_linear)"/>
<path d="M151.975 122.475C151.975 122.075 152.075 121.675 152.375 121.375L152.675 121.075C153.275 120.475 154.275 120.475 154.875 121.075C155.475 121.675 155.475 122.675 154.875 123.275L154.575 123.575C153.975 124.175 152.975 124.175 152.375 123.575C152.175 123.275 151.975 122.875 151.975 122.475Z" fill="url(#paint17_linear)"/>
<path d="M151.975 117.575C151.975 117.175 152.075 116.775 152.375 116.475C152.975 115.875 153.975 115.875 154.575 116.475L154.875 116.775C155.475 117.375 155.475 118.375 154.875 118.975C154.275 119.575 153.275 119.575 152.675 118.975L152.375 118.675C152.175 118.375 151.975 117.975 151.975 117.575Z" fill="url(#paint18_linear)"/>
<path d="M156.575 122.175C156.575 121.775 156.675 121.375 156.975 121.075C157.575 120.475 158.575 120.475 159.175 121.075L159.475 121.375C160.075 121.975 160.075 122.975 159.475 123.575C158.875 124.175 157.875 124.175 157.275 123.575L156.975 123.275C156.675 122.875 156.575 122.575 156.575 122.175Z" fill="url(#paint19_linear)"/>
<path d="M120.367 122C119.706 122 119.046 122.294 118.606 122.734L115.009 126.33L111.413 122.734C110.459 121.78 108.844 121.78 107.89 122.734L104.734 125.89C104.294 126.33 104 126.991 104 127.651C104 128.312 104.294 128.972 104.734 129.413L108.33 133.009L104.734 136.606C104.294 137.046 104 137.706 104 138.367C104 139.028 104.294 139.688 104.734 140.128L107.89 143.284C108.844 144.239 110.459 144.239 111.413 143.284L115.009 139.688L118.606 143.284C119.56 144.239 121.174 144.239 122.128 143.284L125.284 140.128C126.239 139.174 126.239 137.56 125.284 136.606L121.688 133.009L125.284 129.413C126.239 128.459 126.239 126.844 125.284 125.89L122.128 122.734C121.615 122.22 121.028 122 120.367 122ZM115.009 129.046C115.303 129.046 115.596 128.972 115.817 128.752L120.22 124.349C120.367 124.202 120.44 124.202 120.587 124.349L123.743 127.505C123.817 127.578 123.817 127.798 123.743 127.872L119.339 132.275C119.119 132.495 119.046 132.789 119.046 133.083C119.046 133.376 119.193 133.67 119.339 133.89L123.743 138.294C123.817 138.367 123.817 138.587 123.743 138.661L120.587 141.817C120.44 141.963 120.367 141.963 120.22 141.817L115.817 137.413C115.376 136.972 114.642 136.972 114.202 137.413L109.798 141.817C109.725 141.89 109.505 141.89 109.431 141.817L106.275 138.661C106.202 138.587 106.202 138.514 106.202 138.514C106.202 138.514 106.202 138.367 106.275 138.367L110.679 133.963C110.899 133.743 110.972 133.45 110.972 133.156C110.972 132.862 110.826 132.569 110.679 132.349L106.275 127.945C106.202 127.872 106.202 127.798 106.202 127.798C106.202 127.798 106.202 127.651 106.275 127.651L109.431 124.495C109.505 124.422 109.725 124.422 109.798 124.495L114.202 128.899C114.422 128.899 114.716 129.046 115.009 129.046Z" fill="url(#paint20_linear)"/>
<path fill-rule="evenodd" clip-rule="evenodd" d="M123 77L122.745 78.1201C121.979 81.4779 121.192 85.3147 120.384 89.6315L120.383 89.6384L120.381 89.6453C119.983 91.6081 119.585 93.5781 119.187 95.5552C118.746 97.7719 118.547 99.1843 118.547 99.874C118.547 100.071 118.559 100.19 118.571 100.25L118.743 101.143L117.881 101.322C117.799 101.339 117.538 101.37 117.205 101.409C116.837 101.451 116.304 101.512 115.606 101.59C114.84 101.687 114.018 101.813 113.14 101.967L112.255 102.122L112.124 101.202C111.796 98.8923 111.221 95.1051 110.399 89.8365C109.917 87.4214 109.182 83.5008 108.196 78.0794L108 77H123ZM111.263 89.6714C111.988 94.3158 112.521 97.8148 112.864 100.168C112.91 100.49 112.953 100.79 112.993 101.069C113.288 101.018 113.577 100.969 113.861 100.923C114.433 100.831 114.982 100.752 115.506 100.685C116.049 100.624 116.492 100.574 116.835 100.535C117.376 100.473 117.667 100.438 117.709 100.429C117.682 100.287 117.668 100.102 117.668 99.874C117.668 99.0771 117.888 97.5759 118.327 95.3703C118.725 93.3924 119.123 91.4216 119.521 89.458C120.259 85.5167 120.98 81.9712 121.684 78.8214C121.753 78.5141 121.821 78.2105 121.89 77.9107H109.06C109.116 78.2191 109.171 78.5227 109.226 78.8214C110.131 83.7864 110.81 87.4031 111.263 89.6714ZM118.775 113.667L118.774 113.668C117.705 114.558 116.452 115 115.052 115C113.585 115 112.278 114.567 111.176 113.676L111.171 113.672L111.165 113.667C110.056 112.741 109.458 111.535 109.458 110.098C109.458 108.66 110.033 107.459 111.132 106.565C112.218 105.678 113.544 105.26 115.052 105.26C116.455 105.26 117.707 105.681 118.766 106.543L118.775 106.55C119.887 107.479 120.482 108.693 120.482 110.141C120.482 111.557 119.878 112.746 118.775 113.667ZM111.675 107.28C110.783 108.006 110.337 108.945 110.337 110.098C110.337 111.236 110.796 112.19 111.716 112.958C112.65 113.712 113.762 114.089 115.052 114.089C116.261 114.089 117.318 113.712 118.224 112.958C119.144 112.19 119.604 111.251 119.604 110.141C119.604 108.988 119.144 108.028 118.224 107.259C117.331 106.533 116.274 106.171 115.052 106.171C113.707 106.171 112.581 106.541 111.675 107.28Z" fill="url(#paint21_linear)"/>
<path fill-rule="evenodd" clip-rule="evenodd" d="M123.727 76.42L123.31 78.249C122.547 81.5978 121.761 85.4269 120.954 89.7382L120.951 89.7536L120.95 89.7605C120.552 91.7228 120.154 93.6922 119.756 95.6687C119.313 97.8925 119.126 99.2503 119.126 99.874C119.126 99.9608 119.129 100.025 119.133 100.071C119.134 100.093 119.136 100.111 119.138 100.123C119.139 100.135 119.14 100.141 119.14 100.14L119.421 101.595L117.999 101.89C117.885 101.913 117.595 101.947 117.288 101.983L117.272 101.985C116.903 102.028 116.37 102.088 115.675 102.166C114.921 102.262 114.109 102.386 113.24 102.538L111.765 102.797L111.55 101.283C111.222 98.9799 110.649 95.2001 109.828 89.938C109.344 87.5167 108.61 83.5959 107.626 78.1831L107.305 76.42H123.727ZM110.399 89.8365C111.221 95.1051 111.796 98.8923 112.124 101.202L112.255 102.122L113.14 101.967C114.018 101.813 114.84 101.687 115.606 101.59C116.304 101.512 116.837 101.451 117.205 101.409C117.538 101.37 117.798 101.339 117.881 101.322L118.743 101.143L118.571 100.25C118.559 100.19 118.546 100.071 118.546 99.874C118.546 99.1843 118.746 97.7718 119.187 95.5551C119.585 93.5781 119.983 91.6081 120.381 89.6452L120.383 89.6384L120.384 89.6315C121.192 85.3146 121.979 81.4779 122.745 78.1201L123 77H108L108.196 78.0794C109.182 83.5008 109.917 87.4214 110.399 89.8365ZM115.506 100.685C116.049 100.624 116.492 100.574 116.835 100.535C116.944 100.522 117.043 100.511 117.133 100.501C117.471 100.461 117.662 100.438 117.705 100.43C117.707 100.429 117.708 100.429 117.709 100.429C117.682 100.287 117.668 100.102 117.668 99.874C117.668 99.0771 117.887 97.5759 118.327 95.3703C118.725 93.3924 119.123 91.4216 119.521 89.4579C120.259 85.5167 120.98 81.9712 121.684 78.8214C121.709 78.7106 121.733 78.6004 121.758 78.4907C121.802 78.2958 121.846 78.1025 121.89 77.9107H109.06L109.226 78.8214C110.131 83.7864 110.81 87.4031 111.263 89.6714C111.988 94.3157 112.521 97.8147 112.864 100.168C112.88 100.28 112.895 100.389 112.911 100.495C112.94 100.695 112.967 100.887 112.993 101.069C112.993 101.069 112.993 101.069 112.993 101.069C113.186 101.035 113.377 101.003 113.565 100.972C113.664 100.955 113.763 100.939 113.86 100.923C114.433 100.831 114.982 100.752 115.506 100.685ZM113.483 100.397C113.468 100.296 113.453 100.191 113.437 100.085C113.095 97.7282 112.561 94.2268 111.836 89.582L111.834 89.5698L111.832 89.5577C111.38 87.2945 110.701 83.682 109.796 78.7173L109.755 78.4907H121.164C121.148 78.5586 121.133 78.6266 121.118 78.6949C120.413 81.8515 119.691 85.4023 118.952 89.3469C118.554 91.3095 118.156 93.2791 117.758 95.2559L117.758 95.257C117.32 97.4556 117.088 99.0113 117.088 99.874C117.088 99.89 117.088 99.906 117.088 99.9219C116.994 99.9329 116.887 99.9452 116.768 99.9588C116.426 99.998 115.984 100.048 115.441 100.109L115.432 100.11C114.902 100.177 114.347 100.258 113.768 100.351C113.674 100.366 113.579 100.381 113.483 100.397ZM119.145 114.114C117.969 115.092 116.584 115.58 115.052 115.58C113.463 115.58 112.025 115.108 110.812 114.128C110.812 114.128 110.812 114.128 110.812 114.128L110.799 114.117L110.793 114.112C109.56 113.083 108.878 111.717 108.878 110.098C108.878 108.485 109.531 107.119 110.766 106.115C111.97 105.132 113.432 104.68 115.052 104.68C116.579 104.68 117.962 105.141 119.132 106.093C119.132 106.093 119.132 106.093 119.132 106.093L119.147 106.105C120.385 107.139 121.062 108.514 121.062 110.141C121.062 111.744 120.369 113.091 119.147 114.112L119.145 114.114ZM118.766 106.543C117.707 105.681 116.455 105.26 115.052 105.26C113.544 105.26 112.218 105.678 111.132 106.565C110.033 107.459 109.458 108.66 109.458 110.098C109.458 111.535 110.056 112.741 111.165 113.667L111.17 113.672L111.176 113.676C112.278 114.567 113.585 115 115.052 115C116.452 115 117.705 114.558 118.774 113.668L118.775 113.667C119.878 112.746 120.482 111.557 120.482 110.141C120.482 108.693 119.887 107.479 118.775 106.55L118.766 106.543ZM112.042 107.73L112.041 107.73C111.284 108.346 110.917 109.119 110.917 110.098C110.917 111.053 111.291 111.846 112.084 112.51C112.906 113.172 113.886 113.509 115.052 113.509C116.128 113.509 117.053 113.178 117.852 112.513C118.652 111.845 119.024 111.063 119.024 110.141C119.024 109.169 118.647 108.369 117.855 107.707C117.073 107.072 116.149 106.751 115.052 106.751C113.82 106.751 112.829 107.087 112.042 107.73ZM118.224 107.259C119.144 108.028 119.604 108.988 119.604 110.141C119.604 111.25 119.144 112.19 118.224 112.958C117.318 113.712 116.261 114.089 115.052 114.089C113.762 114.089 112.65 113.712 111.716 112.958C110.796 112.19 110.337 111.236 110.337 110.098C110.337 108.945 110.783 108.006 111.675 107.28C112.581 106.541 113.707 106.171 115.052 106.171C116.274 106.171 117.331 106.533 118.224 107.259Z" fill="url(#paint22_linear)"/>
<path fill-rule="evenodd" clip-rule="evenodd" d="M138.979 90.2151L138.54 90.6885C137.224 92.1077 135.763 93.754 134.156 95.6279L134.154 95.6309L134.151 95.6338C133.406 96.4773 132.658 97.3243 131.909 98.1748C131.071 99.1296 130.577 99.7611 130.384 100.097C130.328 100.193 130.301 100.254 130.29 100.287L130.123 100.77L129.653 100.615C129.608 100.6 129.473 100.542 129.299 100.467C129.108 100.384 128.832 100.264 128.47 100.106C128.07 99.9379 127.635 99.7681 127.164 99.5962L126.689 99.4231L126.884 98.9383C127.374 97.722 128.158 95.7172 129.239 92.9218C129.683 91.6109 130.427 89.4962 131.47 86.5805L131.678 86L138.979 90.2151ZM129.706 93.0844C128.753 95.5485 128.03 97.4014 127.535 98.6431C127.467 98.8128 127.404 98.9711 127.345 99.118C127.503 99.1757 127.657 99.2333 127.808 99.2907C128.113 99.4068 128.402 99.5223 128.676 99.637C128.957 99.7601 129.187 99.8602 129.365 99.9374C129.645 100.059 129.797 100.124 129.82 100.132C129.847 100.055 129.892 99.9607 129.956 99.8499C130.18 99.462 130.709 98.7931 131.542 97.843C132.292 96.9922 133.039 96.1449 133.785 95.301C135.252 93.5902 136.599 92.0671 137.827 90.7318C137.946 90.6015 138.065 90.473 138.183 90.3463L131.938 86.741C131.879 86.9069 131.82 87.0702 131.763 87.2309C130.808 89.9018 130.123 91.853 129.706 93.0844ZM126.619 106.874L126.618 106.875C125.848 107.007 125.114 106.87 124.433 106.477C123.718 106.065 123.204 105.487 122.918 104.743L122.916 104.74L122.915 104.736C122.636 103.973 122.683 103.218 123.087 102.519C123.491 101.819 124.108 101.396 124.895 101.27C125.672 101.143 126.435 101.312 127.17 101.736C127.852 102.13 128.343 102.687 128.617 103.404L128.619 103.41C128.899 104.175 128.848 104.933 128.441 105.638C128.043 106.327 127.414 106.736 126.619 106.874ZM124.958 101.771C124.32 101.873 123.839 102.205 123.515 102.766C123.195 103.32 123.151 103.913 123.383 104.546C123.625 105.175 124.06 105.671 124.688 106.034C125.276 106.373 125.897 106.487 126.55 106.374C127.214 106.259 127.701 105.931 128.013 105.391C128.337 104.83 128.383 104.233 128.151 103.601C127.921 102.997 127.508 102.523 126.914 102.18C126.259 101.801 125.607 101.665 124.958 101.771Z" fill="url(#paint23_linear)"/>
<path fill-rule="evenodd" clip-rule="evenodd" d="M139.899 90.0763L138.965 91.0829C137.655 92.4953 136.199 94.1357 134.596 96.0054L134.588 96.0149L134.586 96.0178C133.841 96.861 133.094 97.7076 132.345 98.5577C131.502 99.5179 131.047 100.108 130.886 100.387C130.864 100.424 130.85 100.451 130.842 100.468C130.839 100.475 130.837 100.48 130.836 100.482L130.484 101.5L129.471 101.165C129.398 101.141 129.241 101.073 129.093 101.009L129.069 100.999C128.878 100.916 128.602 100.796 128.242 100.639C127.853 100.476 127.427 100.31 126.965 100.141L125.928 99.7625L126.346 98.7218C126.833 97.5111 127.615 95.5134 128.693 92.7242C129.139 91.4072 129.884 89.2925 130.924 86.385L131.366 85.1502L139.899 90.0763ZM131.913 98.1699C131.914 98.1697 131.914 98.1694 131.914 98.1692C132.662 97.3206 133.407 96.4755 134.151 95.6338L134.154 95.6309L134.156 95.6284C134.157 95.6268 134.159 95.6245 134.16 95.6228C135.625 93.9151 136.968 92.3965 138.191 91.0666C138.308 90.9388 138.425 90.8128 138.54 90.6885L138.979 90.2151L131.678 86L131.47 86.5805C131.412 86.7444 131.354 86.9057 131.297 87.0645C130.348 89.72 129.664 91.6678 129.244 92.9059C129.242 92.9112 129.24 92.9165 129.239 92.9218C129.238 92.9231 129.238 92.9245 129.237 92.9258C128.289 95.3796 127.568 97.2239 127.076 98.4601C127.016 98.6107 126.959 98.7522 126.906 98.8847C126.899 98.9011 126.893 98.9174 126.886 98.9335C126.886 98.9351 126.885 98.9367 126.884 98.9383L126.689 99.4231L127.164 99.5962C127.166 99.5969 127.168 99.5976 127.17 99.5983C127.191 99.6062 127.213 99.6142 127.235 99.6221C127.368 99.6711 127.498 99.7199 127.626 99.7685C127.923 99.8818 128.205 99.9942 128.47 100.106C128.47 100.106 128.47 100.106 128.47 100.106C128.473 100.107 128.475 100.108 128.478 100.109C128.756 100.231 128.984 100.33 129.161 100.407C129.211 100.429 129.257 100.448 129.299 100.467C129.473 100.542 129.608 100.6 129.653 100.615L130.123 100.77L130.29 100.287C130.301 100.254 130.328 100.193 130.384 100.097C130.577 99.7611 131.071 99.1296 131.909 98.1748C131.911 98.1732 131.912 98.1716 131.913 98.1699ZM129.818 100.131C129.817 100.13 129.815 100.13 129.813 100.129C129.801 100.124 129.777 100.114 129.741 100.099C129.687 100.077 129.608 100.043 129.502 99.997C129.46 99.979 129.415 99.9591 129.365 99.9374C129.339 99.9265 129.313 99.9151 129.286 99.9033C129.121 99.8314 128.917 99.7427 128.676 99.637C128.676 99.637 128.676 99.637 128.676 99.637C128.673 99.636 128.671 99.6349 128.668 99.6338C128.421 99.5303 128.161 99.4261 127.888 99.3214C127.862 99.3111 127.835 99.3009 127.808 99.2907C127.683 99.2431 127.556 99.1954 127.425 99.1475C127.399 99.1377 127.372 99.1278 127.345 99.118C127.353 99.097 127.362 99.0757 127.37 99.0542C127.422 98.9255 127.477 98.7885 127.535 98.6431C127.543 98.622 127.552 98.6007 127.56 98.5792C128.053 97.3409 128.766 95.5145 129.7 93.1C129.702 93.0948 129.704 93.0896 129.706 93.0844C129.706 93.0831 129.707 93.0817 129.707 93.0804C130.121 91.8589 130.798 89.9308 131.74 87.2961C131.747 87.2744 131.755 87.2527 131.763 87.2309L131.938 86.741L138.183 90.3463C138.181 90.3482 138.179 90.3502 138.177 90.3521C138.163 90.3672 138.149 90.3824 138.135 90.3976C138.033 90.5076 137.93 90.619 137.827 90.7318C137.811 90.7489 137.795 90.766 137.779 90.7832C136.564 92.1061 135.233 93.6121 133.785 95.301C133.784 95.3018 133.784 95.3026 133.783 95.3034C133.782 95.3043 133.781 95.3051 133.781 95.306C133.781 95.306 133.781 95.306 133.781 95.306C133.78 95.3068 133.779 95.3081 133.778 95.3089C133.035 96.1502 132.29 96.9949 131.542 97.843C131.541 97.8446 131.539 97.8462 131.538 97.8478C131.538 97.8481 131.538 97.8484 131.537 97.8486C130.707 98.7957 130.179 99.4628 129.956 99.8498C129.909 99.9315 129.872 100.004 129.845 100.067C129.836 100.087 129.829 100.107 129.822 100.125C129.822 100.127 129.821 100.129 129.82 100.132C129.82 100.132 129.82 100.131 129.82 100.132C129.819 100.131 129.819 100.131 129.818 100.131ZM133.348 94.9202C132.603 95.7632 131.856 96.6097 131.107 97.4596L131.106 97.4605C130.376 98.2925 129.85 98.9423 129.559 99.3894C129.387 99.3148 129.17 99.2202 128.908 99.1056L128.9 99.1021C128.647 98.996 128.381 98.8895 128.104 98.7828C128.599 97.5391 129.313 95.709 130.247 93.2935L130.251 93.282L130.255 93.2703C130.662 92.0693 131.326 90.1769 132.25 87.5909L137.265 90.4861C136.069 91.7909 134.763 93.269 133.348 94.9202ZM126.717 107.446C125.809 107.602 124.938 107.439 124.143 106.979C123.323 106.506 122.714 105.829 122.377 104.952C122.377 104.952 122.377 104.952 122.377 104.952L122.372 104.939L122.37 104.935C122.035 104.022 122.09 103.086 122.585 102.229C123.076 101.378 123.844 100.851 124.802 100.697C125.731 100.546 126.628 100.754 127.46 101.234C128.25 101.69 128.834 102.348 129.159 103.198L129.164 103.211C129.5 104.129 129.44 105.068 128.943 105.928C128.452 106.779 127.667 107.281 126.718 107.446C126.718 107.446 126.718 107.446 126.718 107.446L126.717 107.446ZM126.619 106.874C126.625 106.873 126.63 106.872 126.636 106.871C126.636 106.871 126.635 106.872 126.636 106.871C127.423 106.73 128.046 106.322 128.441 105.638C128.845 104.938 128.898 104.186 128.625 103.427C128.624 103.425 128.624 103.423 128.623 103.421C128.622 103.417 128.62 103.414 128.619 103.41L128.617 103.404C128.343 102.687 127.852 102.13 127.17 101.736C126.435 101.312 125.672 101.143 124.895 101.27C124.889 101.271 124.884 101.271 124.878 101.272C124.878 101.272 124.877 101.273 124.877 101.273C124.099 101.402 123.488 101.824 123.087 102.519C122.686 103.213 122.636 103.962 122.909 104.719C122.91 104.722 122.911 104.724 122.912 104.727C122.913 104.73 122.914 104.733 122.915 104.736L122.916 104.74L122.918 104.743C123.204 105.487 123.718 106.065 124.433 106.477C125.114 106.87 125.849 107.007 126.619 106.874ZM123.387 104.558C123.388 104.559 123.388 104.561 123.389 104.562C123.389 104.562 123.389 104.562 123.389 104.562C123.389 104.563 123.39 104.565 123.391 104.566C123.634 105.186 124.067 105.675 124.688 106.034C125.271 106.37 125.885 106.485 126.531 106.377C126.531 106.378 126.532 106.377 126.531 106.377C126.531 106.377 126.532 106.377 126.533 106.377C126.533 106.377 126.533 106.377 126.533 106.377C126.538 106.376 126.544 106.375 126.55 106.374C127.214 106.259 127.701 105.931 128.013 105.391C128.337 104.83 128.383 104.233 128.151 103.601C128.15 103.597 128.149 103.594 128.147 103.59C128.147 103.588 128.146 103.586 128.145 103.584C127.913 102.988 127.503 102.52 126.914 102.18C126.265 101.805 125.619 101.668 124.976 101.768C124.976 101.768 124.975 101.768 124.976 101.768C124.97 101.769 124.964 101.77 124.958 101.771C124.32 101.873 123.839 102.205 123.515 102.766C123.195 103.32 123.151 103.913 123.383 104.546C123.384 104.55 123.386 104.554 123.387 104.558ZM123.926 104.342C124.117 104.835 124.457 105.231 124.978 105.531C125.452 105.805 125.935 105.891 126.451 105.803C126.96 105.714 127.293 105.479 127.511 105.101C127.744 104.696 127.782 104.281 127.608 103.804C127.428 103.334 127.109 102.962 126.624 102.682C126.066 102.36 125.549 102.262 125.051 102.343L125.05 102.343C124.584 102.418 124.254 102.646 124.017 103.056C123.789 103.451 123.751 103.863 123.926 104.342Z" fill="url(#paint24_linear)"/>
<path fill-rule="evenodd" clip-rule="evenodd" d="M90 89.2151L90.439 89.6885C91.7552 91.1077 93.2164 92.754 94.8228 94.6279L94.8254 94.6309L94.828 94.6338C95.5733 95.4773 96.3206 96.3243 97.0698 97.1748C97.9076 98.1296 98.4015 98.7611 98.5953 99.0968C98.6508 99.1928 98.678 99.2542 98.6893 99.2867L98.8564 99.7698L99.3259 99.6146C99.3711 99.5997 99.5063 99.5416 99.6797 99.4666C99.8708 99.384 100.147 99.2636 100.509 99.1056C100.909 98.9379 101.344 98.7681 101.815 98.5962L102.289 98.4231L102.094 97.9383C101.605 96.722 100.821 94.7172 99.7402 91.9218C99.2963 90.6109 98.5521 88.4962 97.5085 85.5805L97.3007 85L90 89.2151ZM99.2732 92.0844C100.226 94.5485 100.949 96.4014 101.444 97.6431C101.512 97.8128 101.575 97.9711 101.634 98.118C101.476 98.1757 101.322 98.2333 101.171 98.2907C100.866 98.4068 100.577 98.5223 100.303 98.637C100.022 98.7601 99.7922 98.8602 99.6143 98.9374C99.3336 99.0593 99.1817 99.124 99.1588 99.1315C99.1322 99.0546 99.0869 98.9607 99.0229 98.8499C98.799 98.462 98.2703 97.7931 97.4367 96.843C96.6871 95.9922 95.9395 95.1449 95.1939 94.301C93.7272 92.5902 92.38 91.0671 91.1523 89.7318C91.0325 89.6015 90.9139 89.473 90.7964 89.3463L97.0408 85.741C97.1002 85.9069 97.1586 86.0702 97.216 86.2309C98.1707 88.9018 98.8564 90.853 99.2732 92.0844ZM102.36 105.874L102.361 105.875C103.131 106.007 103.865 105.87 104.546 105.477C105.261 105.065 105.775 104.487 106.061 103.743L106.063 103.74L106.064 103.736C106.343 102.973 106.296 102.218 105.892 101.519C105.488 100.819 104.871 100.396 104.084 100.27C103.307 100.143 102.543 100.312 101.809 100.736C101.127 101.13 100.636 101.687 100.362 102.404L100.36 102.41C100.08 103.175 100.131 103.933 100.538 104.638C100.936 105.327 101.565 105.736 102.36 105.874ZM104.021 100.771C104.659 100.873 105.14 101.205 105.464 101.766C105.784 102.32 105.828 102.913 105.596 103.546C105.354 104.175 104.919 104.671 104.29 105.034C103.702 105.373 103.082 105.487 102.429 105.374C101.765 105.259 101.278 104.931 100.966 104.391C100.642 103.83 100.596 103.233 100.828 102.601C101.058 101.997 101.471 101.523 102.065 101.18C102.72 100.801 103.372 100.665 104.021 100.771Z" fill="url(#paint25_linear)"/>
<path fill-rule="evenodd" clip-rule="evenodd" d="M89.0803 89.0763L90.0138 90.0829C91.3236 91.4953 92.7797 93.1357 94.3825 95.0054L94.3907 95.0149L94.3934 95.0178C95.1383 95.861 95.8853 96.7076 96.6343 97.5577C97.4767 98.5179 97.9322 99.1082 98.093 99.3868C98.1148 99.4245 98.1286 99.4511 98.1366 99.4677C98.14 99.4749 98.1421 99.4795 98.1431 99.4817L98.4952 100.5L99.5079 100.165C99.581 100.141 99.7384 100.073 99.8859 100.009L99.9097 99.999C100.101 99.9163 100.377 99.7961 100.737 99.6388C101.126 99.4757 101.552 99.3097 102.014 99.1411L103.051 98.7625L102.633 97.7218C102.146 96.5111 101.364 94.5134 100.286 91.7242C99.8396 90.4072 99.0952 88.2925 98.0546 85.385L97.6126 84.1502L89.0803 89.0763ZM97.0656 97.1699C97.0654 97.1697 97.0652 97.1694 97.0649 97.1692C96.3173 96.3206 95.5717 95.4755 94.828 94.6338L94.8254 94.6309L94.8233 94.6284C94.8219 94.6268 94.82 94.6245 94.8185 94.6228C93.3544 92.9151 92.011 91.3965 90.7882 90.0666C90.6707 89.9388 90.5543 89.8128 90.439 89.6885L90 89.2151L97.3007 85L97.5085 85.5805C97.5672 85.7444 97.6249 85.9057 97.6816 86.0645C98.6307 88.72 99.3154 90.6678 99.7349 91.9059C99.7367 91.9112 99.7385 91.9165 99.7403 91.9218C99.7408 91.9231 99.7413 91.9245 99.7418 91.9258C100.69 94.3796 101.41 96.2239 101.903 97.4601C101.963 97.6107 102.02 97.7522 102.073 97.8847C102.08 97.9011 102.086 97.9174 102.093 97.9335C102.093 97.9351 102.094 97.9367 102.094 97.9383L102.29 98.4231L101.815 98.5962C101.813 98.5969 101.811 98.5976 101.809 98.5983C101.788 98.6062 101.766 98.6142 101.744 98.6221C101.611 98.6711 101.481 98.7199 101.353 98.7685C101.056 98.8818 100.774 98.9942 100.509 99.1056C100.508 99.1057 100.509 99.1056 100.509 99.1056C100.506 99.1067 100.504 99.1078 100.501 99.1089C100.223 99.2307 99.9948 99.33 99.818 99.4067C99.7677 99.4285 99.7217 99.4485 99.6797 99.4666C99.5063 99.5415 99.3711 99.5997 99.3259 99.6146L98.8564 99.7698L98.6893 99.2867C98.6781 99.2542 98.6508 99.1928 98.5953 99.0968C98.4015 98.7611 97.9076 98.1296 97.0698 97.1748C97.0684 97.1732 97.067 97.1716 97.0656 97.1699ZM99.1611 99.1308C99.1623 99.1303 99.1638 99.1298 99.1655 99.1291C99.1778 99.1244 99.2021 99.1145 99.2382 99.0993C99.2917 99.0767 99.3712 99.0426 99.4768 98.997C99.5185 98.979 99.5644 98.9591 99.6143 98.9374C99.6395 98.9265 99.6657 98.9151 99.693 98.9033C99.8583 98.8314 100.062 98.7427 100.303 98.637C100.303 98.637 100.303 98.637 100.303 98.637C100.306 98.636 100.308 98.6349 100.311 98.6338C100.558 98.5303 100.818 98.4261 101.091 98.3214C101.117 98.3111 101.144 98.3009 101.171 98.2907C101.296 98.2431 101.423 98.1954 101.553 98.1475C101.58 98.1377 101.607 98.1278 101.634 98.118C101.626 98.097 101.617 98.0757 101.608 98.0542C101.557 97.9255 101.502 97.7885 101.444 97.6431C101.436 97.622 101.427 97.6007 101.419 97.5792C100.926 96.3409 100.212 94.5145 99.2792 92.1C99.2772 92.0948 99.2752 92.0896 99.2732 92.0844C99.2728 92.0831 99.2723 92.0817 99.2719 92.0804C98.8583 90.8589 98.1808 88.9308 97.2394 86.2961C97.2316 86.2744 97.2238 86.2527 97.2161 86.2309L97.0409 85.741L90.7964 89.3463C90.7982 89.3482 90.8 89.3502 90.8018 89.3521C90.8158 89.3672 90.8299 89.3824 90.8439 89.3976C90.9459 89.5076 91.0487 89.619 91.1523 89.7318C91.1681 89.7489 91.1838 89.766 91.1996 89.7832C92.4146 91.1061 93.746 92.6121 95.1939 94.301C95.1946 94.3018 95.1953 94.3026 95.196 94.3034C95.1968 94.3043 95.1975 94.3051 95.1983 94.306C95.1983 94.306 95.1983 94.306 95.1983 94.306C95.199 94.3068 95.2001 94.3081 95.2009 94.3089C95.9442 95.1502 96.6894 95.9949 97.4367 96.843C97.4381 96.8446 97.4395 96.8462 97.4409 96.8478C97.4411 96.8481 97.4413 96.8484 97.4416 96.8486C98.2723 97.7957 98.7995 98.4628 99.023 98.8498C99.0701 98.9315 99.1071 99.0039 99.1339 99.0672C99.1425 99.0874 99.1501 99.1067 99.1566 99.1251C99.1574 99.1272 99.1581 99.1294 99.1588 99.1315C99.1589 99.1315 99.1588 99.1315 99.1588 99.1315C99.1595 99.1313 99.1602 99.1311 99.1611 99.1308ZM95.6314 93.9202C96.3762 94.7632 97.1231 95.6097 97.8719 96.4596L97.8726 96.4605C98.6027 97.2925 99.1294 97.9423 99.4202 98.3894C99.5919 98.3148 99.8088 98.2202 100.071 98.1056L100.079 98.1021C100.332 97.996 100.598 97.8895 100.875 97.7828C100.38 96.5391 99.6658 94.709 98.7322 92.2935L98.7278 92.282L98.7238 92.2703C98.3173 91.0693 97.6526 89.1769 96.7288 86.5909L91.7142 89.4861C92.91 90.7909 94.2158 92.269 95.6314 93.9202ZM102.262 106.446C103.17 106.602 104.041 106.439 104.836 105.979C105.656 105.506 106.265 104.829 106.602 103.952C106.602 103.952 106.602 103.952 106.602 103.952L106.607 103.939L106.609 103.935C106.943 103.022 106.889 102.086 106.394 101.229C105.903 100.378 105.135 99.8513 104.177 99.6971C103.248 99.5463 102.351 99.7541 101.519 100.234C100.729 100.69 100.145 101.348 99.8204 102.198L99.8153 102.211C99.4787 103.129 99.5392 104.068 100.036 104.928C100.527 105.779 101.312 106.281 102.261 106.446C102.261 106.446 102.261 106.446 102.261 106.446L102.262 106.446ZM102.36 105.874C102.354 105.873 102.349 105.872 102.343 105.871C102.343 105.871 102.344 105.872 102.343 105.871C101.556 105.73 100.933 105.322 100.538 104.638C100.134 103.938 100.081 103.186 100.354 102.427C100.355 102.425 100.355 102.423 100.356 102.421C100.357 102.417 100.359 102.414 100.36 102.41L100.362 102.404C100.636 101.687 101.127 101.13 101.809 100.736C102.543 100.312 103.307 100.143 104.084 100.27C104.09 100.271 104.095 100.271 104.101 100.272C104.101 100.272 104.102 100.273 104.102 100.273C104.88 100.402 105.491 100.824 105.892 101.519C106.293 102.213 106.343 102.962 106.07 103.719C106.069 103.722 106.068 103.724 106.067 103.727C106.066 103.73 106.065 103.733 106.064 103.736L106.063 103.74L106.061 103.743C105.775 104.487 105.261 105.065 104.546 105.477C103.865 105.87 103.13 106.007 102.36 105.874ZM105.592 103.558C105.591 103.559 105.591 103.561 105.59 103.562C105.59 103.562 105.59 103.562 105.59 103.562C105.59 103.563 105.589 103.565 105.588 103.566C105.344 104.186 104.912 104.675 104.29 105.034C103.708 105.37 103.094 105.485 102.448 105.377C102.448 105.378 102.447 105.377 102.448 105.377C102.448 105.377 102.447 105.377 102.446 105.377C102.446 105.377 102.446 105.377 102.446 105.377C102.441 105.376 102.435 105.375 102.429 105.374C101.765 105.259 101.278 104.931 100.966 104.391C100.642 103.83 100.596 103.233 100.828 102.601C100.829 102.597 100.83 102.594 100.831 102.59C100.832 102.588 100.833 102.586 100.834 102.584C101.065 101.988 101.476 101.52 102.065 101.18C102.714 100.805 103.36 100.668 104.003 100.768C104.003 100.768 104.004 100.768 104.003 100.768C104.009 100.769 104.015 100.77 104.021 100.771C104.659 100.873 105.14 101.205 105.464 101.766C105.784 102.32 105.828 102.913 105.596 103.546C105.595 103.55 105.593 103.554 105.592 103.558ZM105.053 103.342C104.862 103.835 104.521 104.231 104 104.531C103.527 104.805 103.044 104.891 102.528 104.803C102.019 104.714 101.686 104.479 101.468 104.101C101.235 103.696 101.197 103.281 101.371 102.804C101.551 102.334 101.869 101.962 102.355 101.682C102.913 101.36 103.43 101.262 103.928 101.343L103.929 101.343C104.395 101.418 104.725 101.646 104.962 102.056C105.19 102.451 105.228 102.863 105.053 103.342Z" fill="url(#paint26_linear)"/>
</g>
<defs>
<linearGradient id="paint0_linear" x1="18" y1="110" x2="211.1" y2="110" gradientUnits="userSpaceOnUse">
<stop stop-color="#3DAE2B"/>
<stop offset="1" stop-color="#048172"/>
</linearGradient>
<linearGradient id="paint1_linear" x1="75.975" y1="66.675" x2="75.975" y2="85.9846" gradientUnits="userSpaceOnUse">
<stop stop-color="#3DAE2B"/>
<stop offset="1" stop-color="#048172"/>
</linearGradient>
<linearGradient id="paint2_linear" x1="113.975" y1="66.675" x2="113.975" y2="153.275" gradientUnits="userSpaceOnUse">
<stop stop-color="#3DAE2B"/>
<stop offset="1" stop-color="#048172"/>
</linearGradient>
<linearGradient id="paint3_linear" x1="151.975" y1="133.975" x2="151.975" y2="153.275" gradientUnits="userSpaceOnUse">
<stop stop-color="#3DAE2B"/>
<stop offset="1" stop-color="#048172"/>
</linearGradient>
<linearGradient id="paint4_linear" x1="69.775" y1="103.775" x2="69.775" y2="113.375" gradientUnits="userSpaceOnUse">
<stop stop-color="#3DAE2B"/>
<stop offset="1" stop-color="#048172"/>
</linearGradient>
<linearGradient id="paint5_linear" x1="76.975" y1="103.675" x2="76.975" y2="121.875" gradientUnits="userSpaceOnUse">
<stop stop-color="#3DAE2B"/>
<stop offset="1" stop-color="#048172"/>
</linearGradient>
<linearGradient id="paint6_linear" x1="69.775" y1="96.175" x2="69.775" y2="100.775" gradientUnits="userSpaceOnUse">
<stop stop-color="#3DAE2B"/>
<stop offset="1" stop-color="#048172"/>
</linearGradient>
<linearGradient id="paint7_linear" x1="76.975" y1="96.175" x2="76.975" y2="100.775" gradientUnits="userSpaceOnUse">
<stop stop-color="#3DAE2B"/>
<stop offset="1" stop-color="#048172"/>
</linearGradient>
<linearGradient id="paint8_linear" x1="156.4" y1="95.0251" x2="156.4" y2="99.3251" gradientUnits="userSpaceOnUse">
<stop stop-color="#3DAE2B"/>
<stop offset="1" stop-color="#048172"/>
</linearGradient>
<linearGradient id="paint9_linear" x1="162.8" y1="101.425" x2="162.8" y2="105.725" gradientUnits="userSpaceOnUse">
<stop stop-color="#3DAE2B"/>
<stop offset="1" stop-color="#048172"/>
</linearGradient>
<linearGradient id="paint10_linear" x1="156.4" y1="101.425" x2="156.4" y2="105.725" gradientUnits="userSpaceOnUse">
<stop stop-color="#3DAE2B"/>
<stop offset="1" stop-color="#048172"/>
</linearGradient>
<linearGradient id="paint11_linear" x1="162.8" y1="95.0251" x2="162.8" y2="99.3251" gradientUnits="userSpaceOnUse">
<stop stop-color="#3DAE2B"/>
<stop offset="1" stop-color="#048172"/>
</linearGradient>
<linearGradient id="paint12_linear" x1="153.35" y1="72.725" x2="153.35" y2="76.125" gradientUnits="userSpaceOnUse">
<stop stop-color="#3DAE2B"/>
<stop offset="1" stop-color="#048172"/>
</linearGradient>
<linearGradient id="paint13_linear" x1="148.85" y1="77.225" x2="148.85" y2="80.625" gradientUnits="userSpaceOnUse">
<stop stop-color="#3DAE2B"/>
<stop offset="1" stop-color="#048172"/>
</linearGradient>
<linearGradient id="paint14_linear" x1="148.85" y1="72.725" x2="148.85" y2="76.125" gradientUnits="userSpaceOnUse">
<stop stop-color="#3DAE2B"/>
<stop offset="1" stop-color="#048172"/>
</linearGradient>
<linearGradient id="paint15_linear" x1="153.35" y1="77.225" x2="153.35" y2="80.625" gradientUnits="userSpaceOnUse">
<stop stop-color="#3DAE2B"/>
<stop offset="1" stop-color="#048172"/>
</linearGradient>
<linearGradient id="paint16_linear" x1="158.25" y1="116.125" x2="158.25" y2="119.525" gradientUnits="userSpaceOnUse">
<stop stop-color="#3DAE2B"/>
<stop offset="1" stop-color="#048172"/>
</linearGradient>
<linearGradient id="paint17_linear" x1="153.65" y1="120.625" x2="153.65" y2="124.025" gradientUnits="userSpaceOnUse">
<stop stop-color="#3DAE2B"/>
<stop offset="1" stop-color="#048172"/>
</linearGradient>
<linearGradient id="paint18_linear" x1="153.65" y1="116.025" x2="153.65" y2="119.425" gradientUnits="userSpaceOnUse">
<stop stop-color="#3DAE2B"/>
<stop offset="1" stop-color="#048172"/>
</linearGradient>
<linearGradient id="paint19_linear" x1="158.25" y1="120.625" x2="158.25" y2="124.025" gradientUnits="userSpaceOnUse">
<stop stop-color="#3DAE2B"/>
<stop offset="1" stop-color="#048172"/>
</linearGradient>
<linearGradient id="paint20_linear" x1="104" y1="133" x2="126" y2="133" gradientUnits="userSpaceOnUse">
<stop stop-color="#3DAE2B"/>
<stop offset="1" stop-color="#048172"/>
</linearGradient>
<linearGradient id="paint21_linear" x1="108" y1="96" x2="123" y2="96" gradientUnits="userSpaceOnUse">
<stop stop-color="#3DAE2B"/>
<stop offset="1" stop-color="#048172"/>
</linearGradient>
<linearGradient id="paint22_linear" x1="107.305" y1="96" x2="123.727" y2="96" gradientUnits="userSpaceOnUse">
<stop stop-color="#3DAE2B"/>
<stop offset="1" stop-color="#048172"/>
</linearGradient>
<linearGradient id="paint23_linear" x1="126.339" y1="95.2476" x2="133.64" y2="99.4627" gradientUnits="userSpaceOnUse">
<stop stop-color="#3DAE2B"/>
<stop offset="1" stop-color="#048172"/>
</linearGradient>
<linearGradient id="paint24_linear" x1="125.737" y1="94.9001" x2="134.27" y2="99.8262" gradientUnits="userSpaceOnUse">
<stop stop-color="#3DAE2B"/>
<stop offset="1" stop-color="#048172"/>
</linearGradient>
<linearGradient id="paint25_linear" x1="102.64" y1="94.2476" x2="95.3391" y2="98.4627" gradientUnits="userSpaceOnUse">
<stop stop-color="#3DAE2B"/>
<stop offset="1" stop-color="#048172"/>
</linearGradient>
<linearGradient id="paint26_linear" x1="103.242" y1="93.9001" x2="94.7094" y2="98.8262" gradientUnits="userSpaceOnUse">
<stop stop-color="#3DAE2B"/>
<stop offset="1" stop-color="#048172"/>
</linearGradient>
<clipPath id="clip0">
<rect width="231.6" height="219.8" fill="white"/>
</clipPath>
</defs>
</svg>
