<svg width="270" height="203" viewBox="0 0 270 203" fill="none" xmlns="http://www.w3.org/2000/svg">
<g clip-path="url(#clip0)">
<path d="M191.4 185.4C189.7 185.4 188 185.3 186.2 185L54 167.1C49.4 166.5 40.6 164.3 32.9 157C27.1 151.4 23.2 144.3 21.7 136.4L7.89997 62.1C5.89997 51.4 8.59997 40.4 15.3 31.8C22 23.2 32 17.9 42.9 17.2L208.2 6.39995C220 5.59995 231.3 10.3 239.2 19.1C247.1 28 250.3 39.7 248.1 51.4L228.7 154.4C225.3 172.6 209.5 185.4 191.4 185.4ZM210.8 9.99995C210 9.99995 209.3 9.99995 208.5 10.1L43 20.9C33.2 21.5 24.1 26.2999 18.1 34.1C12.1 41.7999 9.69997 51.8 11.4 61.5L25.2 135.8C26.5 142.9 30 149.4 35.3 154.4C42.3 161.1 50.3 163 54.4 163.6L186.7 181.5C204.8 184 221.7 171.8 225.1 153.8L244.5 50.8C246.5 40.3 243.5 29.7 236.5 21.7C229.9 14.2 220.6 9.99995 210.8 9.99995Z" fill="#725FDB"/>
<path d="M40.2 7.2C39.6 7.2 39.1 6.9 38.8 6.3C38.4 5.5 38.8 4.6 39.5 4.2C39.9 4 40.3 3.8 40.7 3.7C41.5 3.4 42.4 3.7 42.7 4.5C43 5.3 42.7 6.2 41.9 6.5C41.5 6.7 41.2 6.8 40.8 7C40.7 7.1 40.4 7.2 40.2 7.2ZM48.3 4.3C47.6 4.3 47 3.8 46.8 3.1C46.6 2.3 47.1 1.4 47.9 1.2C48.3 1.1 48.7 1 49.1 0.9C50 0.8 50.9 1.3 51 2.2C51.2 3 50.7 3.8 49.9 4C49.5 4.1 49.1 4.2 48.7 4.3C48.6 4.3 48.5 4.3 48.3 4.3ZM56.9 3.1C56.1 3.1 55.4 2.4 55.4 1.6C55.4 0.7 56 0 56.9 0C57.3 0 57.7 0 58.2 0C59 0 59.7 0.7 59.7 1.5C59.7 2.4 59 3 58.2 3.1C57.7 3.1 57.3 3.1 56.9 3.1Z" fill="#725FDB"/>
<path d="M75.1 191.9C75.1 191.9 75 191.9 75.1 191.9C74.6 191.9 74.1 191.8 73.7 191.8C72.9 191.7 72.2 191 72.3 190.1C72.4 189.3 73.1 188.6 74 188.7C74.4 188.7 74.8 188.8 75.2 188.8C76 188.9 76.7 189.6 76.6 190.4C76.6 191.3 75.9 191.9 75.1 191.9ZM82.5 191.7C81.7 191.7 81.1 191.1 81 190.3C80.9 189.5 81.5 188.7 82.4 188.6C82.8 188.6 83.2 188.5 83.6 188.5C84.4 188.4 85.2 189 85.3 189.8C85.4 190.6 84.8 191.4 84 191.5C83.6 191.6 83.2 191.6 82.7 191.7C82.6 191.7 82.5 191.7 82.5 191.7ZM66.6 190.5C66.5 190.5 66.3 190.5 66.2 190.4C65.8 190.3 65.4 190.2 65 190C64.2 189.8 63.7 188.9 64 188.1C64.3 187.3 65.1 186.8 65.9 187.1C66.3 187.2 66.7 187.3 67 187.4C67.8 187.6 68.3 188.5 68.1 189.3C67.9 190 67.3 190.5 66.6 190.5ZM58.5 187.4C58.3 187.4 58 187.3 57.8 187.2C57.4 187 57 186.8 56.7 186.6C55.9 186.2 55.7 185.3 56.1 184.5C56.5 183.7 57.4 183.5 58.2 183.9C58.5 184.1 58.9 184.3 59.3 184.4C60.1 184.8 60.4 185.7 60 186.5C59.6 187.1 59.1 187.4 58.5 187.4ZM51.2 182.8C50.9 182.8 50.5 182.7 50.3 182.5C50 182.2 49.6 182 49.3 181.7C48.6 181.2 48.5 180.2 49.1 179.5C49.6 178.8 50.6 178.7 51.3 179.3C51.6 179.6 51.9 179.8 52.2 180C52.9 180.5 53 181.5 52.5 182.2C52.2 182.6 51.7 182.8 51.2 182.8Z" fill="#3DAE2B"/>
<path d="M225.2 19.6999L225.168 20.1989L60.9681 9.49891C37.8925 8.01971 19.5514 28.6297 23.7916 51.4084L42.9914 153.608L42.9916 153.608C46.4424 172.144 63.8954 184.669 82.534 182.204L82.5345 182.204M225.2 19.6999L82.5345 182.204M225.2 19.6999L225.168 20.1989C246.367 21.5793 261.551 41.1997 257.409 62.2032L257.408 62.2086L243.708 135.909L243.708 135.909C240.948 150.895 228.82 162.433 213.633 164.505L172.433 170.104L172.432 170.105C160.724 171.719 149.724 177.169 141.346 185.546L124.946 201.946C124.469 202.424 123.5 202.065 123.5 201.3V198.4C123.5 186.899 113.435 178.064 102.034 179.604M225.2 19.6999L102.034 179.604M82.5345 182.204L102.033 179.604M82.5345 182.204L102.033 179.604M102.033 179.604C102.033 179.604 102.034 179.604 102.034 179.604M102.033 179.604L102.034 179.604" stroke="url(#paint0_linear)"/>
<g opacity="0.7">
<path opacity="0.7" d="M191.4 185.4C189.7 185.4 188 185.3 186.2 185C185.2 184.9 184.5 183.9 184.6 182.9C184.7 181.9 185.7 181.2 186.7 181.3C204.8 183.8 221.7 171.6 225.1 153.6L244.5 50.6C246.5 40.1 243.5 29.5 236.5 21.5C229.4 13.5 219.2 9.29995 208.6 9.99995L43 20.9C33.2 21.5 24.1 26.2999 18.1 34.1C12.1 41.7999 9.69997 51.8 11.4 61.5L25.2 135.8C26.5 142.9 30 149.4 35.3 154.4C36 155.1 36.1 156.3 35.4 157C34.7 157.7 33.5 157.8 32.8 157.1C27 151.5 23.1 144.4 21.6 136.5L7.89997 62.1C5.89997 51.4 8.59997 40.4 15.3 31.8C22 23.2 32 17.9 42.9 17.2L208.2 6.39995C220 5.59995 231.3 10.3 239.2 19.1C247.1 28 250.3 39.7 248.1 51.4L228.7 154.4C225.3 172.6 209.5 185.4 191.4 185.4Z" fill="#725FDB"/>
</g>
<path d="M263.1 22.1C259.5 22.1 256.6 19.2 256.6 15.6C256.6 12 259.5 9.09998 263.1 9.09998C266.7 9.09998 269.6 12 269.6 15.6C269.6 19.2 266.7 22.1 263.1 22.1ZM263.1 12.2C261.2 12.2 259.7 13.7 259.7 15.6C259.7 17.5 261.2 19 263.1 19C265 19 266.5 17.5 266.5 15.6C266.5 13.8 265 12.2 263.1 12.2Z" fill="#725FDB"/>
<path d="M243.8 171.5C243.4 171.5 243 171.3 242.7 171C242.1 170.4 242.1 169.4 242.7 168.8L243.7 167.8C244.3 167.2 245.3 167.2 245.9 167.8C246.5 168.4 246.5 169.4 245.9 170L244.9 171C244.6 171.4 244.2 171.5 243.8 171.5Z" fill="#3DAE2B"/>
<path d="M237.1 178.3C236.7 178.3 236.3 178.1 236 177.8C235.4 177.2 235.4 176.2 236 175.6L237 174.6C237.6 174 238.6 174 239.2 174.6C239.8 175.2 239.8 176.2 239.2 176.8L238.2 177.8C237.9 178.1 237.5 178.3 237.1 178.3Z" fill="#3DAE2B"/>
<path d="M238 171.5C237.6 171.5 237.2 171.3 236.9 171L235.9 170C235.3 169.4 235.3 168.4 235.9 167.8C236.5 167.2 237.5 167.2 238.1 167.8L239.1 168.8C239.7 169.4 239.7 170.4 239.1 171C238.8 171.4 238.4 171.5 238 171.5Z" fill="#3DAE2B"/>
<path d="M244.8 178.3C244.4 178.3 244 178.1 243.7 177.8L242.7 176.8C242.1 176.2 242.1 175.2 242.7 174.6C243.3 174 244.3 174 244.9 174.6L245.9 175.6C246.5 176.2 246.5 177.2 245.9 177.8C245.5 178.1 245.1 178.3 244.8 178.3Z" fill="#3DAE2B"/>
<path d="M8.20002 21.1C7.80002 21.1 7.40002 20.9 7.10002 20.6C6.50002 20 6.50002 19 7.10002 18.4L8.10002 17.4C8.70003 16.8 9.70002 16.8 10.3 17.4C10.9 18 10.9 19 10.3 19.6L9.30002 20.6C9.00002 20.9 8.60002 21.1 8.20002 21.1Z" fill="#3DAE2B"/>
<path d="M1.49995 27.8C1.09995 27.8 0.699951 27.6 0.399951 27.3C-0.200049 26.7 -0.200049 25.7 0.399951 25.1L1.39995 24.1C1.99995 23.5 2.99995 23.5 3.59995 24.1C4.19995 24.7 4.19995 25.7 3.59995 26.3L2.59995 27.3C2.29995 27.6 1.89995 27.8 1.49995 27.8Z" fill="#3DAE2B"/>
<path d="M2.49995 21.1C2.09995 21.1 1.69995 20.9 1.39995 20.6L0.399951 19.6C-0.200049 19 -0.200049 18 0.399951 17.4C0.999951 16.8 1.99995 16.8 2.59995 17.4L3.59995 18.4C4.19995 19 4.19995 20 3.59995 20.6C3.29995 20.9 2.89995 21.1 2.49995 21.1Z" fill="#3DAE2B"/>
<path d="M9.20002 27.8C8.80002 27.8 8.40002 27.6 8.10002 27.3L7.10002 26.3C6.50002 25.7 6.50002 24.7 7.10002 24.1C7.70002 23.5 8.70002 23.5 9.30002 24.1L10.3 25.1C10.9 25.7 10.9 26.7 10.3 27.3C10 27.6 9.60002 27.8 9.20002 27.8Z" fill="#3DAE2B"/>
<path d="M140 77.5999C128.9 77.5999 119.8 68.6 119.8 57.4C119.8 46.2 128.8 37.2 140 37.2C145.1 37.2 149.9 39.1 153.7 42.5C154.3 43.1 154.4 44 153.8 44.7C153.2 45.3 152.3 45.4 151.6 44.7999C148.4 41.8999 144.3 40.2999 140 40.2999C130.6 40.2999 122.9 48 122.9 57.4C122.9 66.8 130.6 74.5 140 74.5C149.4 74.5 157.1 66.8 157.1 57.4C157.1 56.6 157 55.7999 156.9 55.0999C156.8 54.2999 157.4 53.5 158.2 53.4C159 53.3 159.8 53.9 159.9 54.7C160 55.6 160.1 56.5 160.1 57.4C160.1 68.5 151.1 77.5999 140 77.5999Z" fill="url(#paint1_linear)"/>
<path d="M140.2 66.5C139.8 66.5 139.4 66.3 139.1 66.1L130.2 57.2C129.6 56.6 129.6 55.6 130.2 55C130.8 54.4 131.8 54.4 132.4 55L140.3 62.9L155.5 47.7C156.1 47.1 157.1 47.1 157.7 47.7C158.3 48.3 158.3 49.3 157.7 49.9L141.4 66.2C141 66.4 140.6 66.5 140.2 66.5Z" fill="url(#paint2_linear)"/>
<path d="M154.4 103.1H117.1C116.3 103.1 115.6 102.4 115.6 101.6C115.6 100.8 116.3 100.1 117.1 100.1H154.4C155.2 100.1 155.9 100.8 155.9 101.6C155.9 102.4 155.2 103.1 154.4 103.1Z" fill="url(#paint3_linear)"/>
<path d="M146.7 110.9H117.1C116.3 110.9 115.6 110.2 115.6 109.4C115.6 108.6 116.3 107.9 117.1 107.9H146.7C147.5 107.9 148.2 108.6 148.2 109.4C148.2 110.2 147.5 110.9 146.7 110.9Z" fill="url(#paint4_linear)"/>
<path d="M128 118.7H117C116.2 118.7 115.5 118 115.5 117.2C115.5 116.4 116.2 115.7 117 115.7H128C128.8 115.7 129.5 116.4 129.5 117.2C129.5 118 128.9 118.7 128 118.7Z" fill="url(#paint5_linear)"/>
<path d="M144.9 131.1C144.5 131.1 144.1 130.9 143.8 130.7C143.5 130.4 143.3 129.9 143.3 129.4L144.1 121.6C144.4 118.5 145.9 115.5 148.1 113.3L178.6 82.8C180 81.4 182.5 81.4 183.9 82.8L191.2 90.1C192.7 91.6 192.7 93.9 191.2 95.4L160.5 126.1C158.4 128.2 155.6 129.6 152.6 130L144.9 131.1C145 131.1 145.1 131.1 144.9 131.1ZM181.4 84.7C181.3 84.7 181.1 84.7 180.9 84.9L150.4 115.4C148.7 117.1 147.6 119.4 147.3 121.9L146.7 127.8L152.5 127C154.8 126.7 157 125.6 158.7 123.9L189.4 93.2C189.7 92.9 189.7 92.5 189.4 92.2L182.1 84.9C181.7 84.7 181.5 84.7 181.4 84.7Z" fill="url(#paint6_linear)"/>
<path d="M160.1 126.1C159.7 126.1 159.3 126 159 125.7L148.5 115.2C147.9 114.6 147.9 113.6 148.5 113C149.1 112.4 150.1 112.4 150.7 113L161.2 123.5C161.8 124.1 161.8 125.1 161.2 125.7C160.8 126 160.5 126.1 160.1 126.1Z" fill="url(#paint7_linear)"/>
<path d="M177.3 116C176.9 116 176.5 115.9 176.2 115.6C175.6 115 175.6 114 176.2 113.4L187 102.6C187.2 102.4 187.3 102.1 187.3 101.8C187.3 101.5 187.2 101.2 187 101L174.9 88.9C174.3 88.3 174.3 87.3 174.9 86.7C175.5 86.1 176.5 86.1 177.1 86.7L189.2 98.8C190 99.6 190.4 100.7 190.4 101.8C190.4 102.9 190 104 189.2 104.8L178.4 115.6C178.1 115.8 177.7 116 177.3 116Z" fill="url(#paint8_linear)"/>
<path d="M188.5 90.6C188.1 90.6 187.7 90.5 187.4 90.2C186.8 89.6 186.8 88.6 187.4 88L189.7 85.7L188.3 84.3L186 86.6C185.4 87.2 184.4 87.2 183.8 86.6C183.2 86 183.2 85 183.8 84.4L186.4 81.8C187.4 80.8 189.1 80.8 190.1 81.8L192.1 83.8C193.1 84.8 193.1 86.5 192.1 87.5L189.5 90.1C189.3 90.5 188.9 90.6 188.5 90.6Z" fill="url(#paint9_linear)"/>
<path d="M162 87.5H117C116.2 87.5 115.5 86.8 115.5 86C115.5 85.2 116.2 84.5 117 84.5H162C162.8 84.5 163.5 85.2 163.5 86C163.5 86.8 162.9 87.5 162 87.5Z" fill="url(#paint10_linear)"/>
<path d="M162 95.3H117C116.2 95.3 115.5 94.6 115.5 93.8C115.5 93 116.2 92.3 117 92.3H162C162.8 92.3 163.5 93 163.5 93.8C163.5 94.6 162.9 95.3 162 95.3Z" fill="url(#paint11_linear)"/>
<path d="M175.6 80.8C174.8 80.8 174.1 80.1 174.1 79.3V55.5C174.1 52.6 171.7 50.2 168.8 50.2H162.4C161.6 50.2 160.9 49.5 160.9 48.7C160.9 47.9 161.6 47.2 162.4 47.2H168.8C173.4 47.2 177.2 50.9999 177.2 55.5999V79.4C177.2 80.1 176.5 80.8 175.6 80.8Z" fill="url(#paint12_linear)"/>
<path d="M168.8 137.9H111.2C106.6 137.9 102.8 134.1 102.8 129.5V55.5C102.8 50.9 106.6 47.1 111.2 47.1H117.1C117.9 47.1 118.6 47.8 118.6 48.6C118.6 49.4 117.9 50.1 117.1 50.1H111.2C108.3 50.1 105.9 52.5 105.9 55.4V129.4C105.9 132.3 108.3 134.7 111.2 134.7H168.8C171.7 134.7 174.1 132.3 174.1 129.4V120.1C174.1 119.3 174.8 118.6 175.6 118.6C176.4 118.6 177.1 119.3 177.1 120.1V129.4C177.2 134.1 173.4 137.9 168.8 137.9Z" fill="url(#paint13_linear)"/>
<path d="M138.8 131.2C138.3 131.2 137.8 131.1 137.2 130.9C135.7 130.4 134.6 129.3 133.7 127.6C133.6 127.3 133.4 127.1 133.3 127C133.1 127.2 132.7 127.6 132.5 127.9C131.6 128.9 130.5 130.2 128.9 130.7C127 131.3 125.5 130.6 124.4 130C123.1 129.3 122.4 129 120.6 130.3C119.9 130.8 119 130.7 118.5 130C118 129.3 118.1 128.4 118.8 127.9C122.1 125.4 124.4 126.5 125.8 127.3C126.8 127.8 127.3 128 128 127.8C128.8 127.6 129.6 126.7 130.2 125.9C131.1 124.8 132.2 123.6 133.7 123.8C135.1 124 135.9 125.3 136.4 126.3C136.9 127.2 137.4 127.8 138.1 128C139 128.3 139.8 127.9 139.8 127.9C140.5 127.5 141.5 127.8 141.9 128.6C142.3 129.3 142 130.3 141.2 130.7C141.1 130.8 140.1 131.2 138.8 131.2Z" fill="url(#paint14_linear)"/>
</g>
<defs>
<linearGradient id="paint0_linear" x1="22.6786" y1="105.794" x2="258.593" y2="105.794" gradientUnits="userSpaceOnUse">
<stop stop-color="#3DAE2B"/>
<stop offset="1" stop-color="#048172"/>
</linearGradient>
<linearGradient id="paint1_linear" x1="119.8" y1="57.4" x2="160.1" y2="57.4" gradientUnits="userSpaceOnUse">
<stop stop-color="#3DAE2B"/>
<stop offset="1" stop-color="#048172"/>
</linearGradient>
<linearGradient id="paint2_linear" x1="129.75" y1="56.875" x2="158.15" y2="56.875" gradientUnits="userSpaceOnUse">
<stop stop-color="#3DAE2B"/>
<stop offset="1" stop-color="#048172"/>
</linearGradient>
<linearGradient id="paint3_linear" x1="115.6" y1="101.6" x2="155.9" y2="101.6" gradientUnits="userSpaceOnUse">
<stop stop-color="#3DAE2B"/>
<stop offset="1" stop-color="#048172"/>
</linearGradient>
<linearGradient id="paint4_linear" x1="115.6" y1="109.4" x2="148.2" y2="109.4" gradientUnits="userSpaceOnUse">
<stop stop-color="#3DAE2B"/>
<stop offset="1" stop-color="#048172"/>
</linearGradient>
<linearGradient id="paint5_linear" x1="115.5" y1="117.2" x2="129.5" y2="117.2" gradientUnits="userSpaceOnUse">
<stop stop-color="#3DAE2B"/>
<stop offset="1" stop-color="#048172"/>
</linearGradient>
<linearGradient id="paint6_linear" x1="143.3" y1="106.425" x2="192.325" y2="106.425" gradientUnits="userSpaceOnUse">
<stop stop-color="#3DAE2B"/>
<stop offset="1" stop-color="#048172"/>
</linearGradient>
<linearGradient id="paint7_linear" x1="148.05" y1="119.325" x2="161.65" y2="119.325" gradientUnits="userSpaceOnUse">
<stop stop-color="#3DAE2B"/>
<stop offset="1" stop-color="#048172"/>
</linearGradient>
<linearGradient id="paint8_linear" x1="174.45" y1="101.125" x2="190.4" y2="101.125" gradientUnits="userSpaceOnUse">
<stop stop-color="#3DAE2B"/>
<stop offset="1" stop-color="#048172"/>
</linearGradient>
<linearGradient id="paint9_linear" x1="183.35" y1="85.825" x2="192.85" y2="85.825" gradientUnits="userSpaceOnUse">
<stop stop-color="#3DAE2B"/>
<stop offset="1" stop-color="#048172"/>
</linearGradient>
<linearGradient id="paint10_linear" x1="115.5" y1="86" x2="163.5" y2="86" gradientUnits="userSpaceOnUse">
<stop stop-color="#3DAE2B"/>
<stop offset="1" stop-color="#048172"/>
</linearGradient>
<linearGradient id="paint11_linear" x1="115.5" y1="93.8" x2="163.5" y2="93.8001" gradientUnits="userSpaceOnUse">
<stop stop-color="#3DAE2B"/>
<stop offset="1" stop-color="#048172"/>
</linearGradient>
<linearGradient id="paint12_linear" x1="160.9" y1="64" x2="177.2" y2="64" gradientUnits="userSpaceOnUse">
<stop stop-color="#3DAE2B"/>
<stop offset="1" stop-color="#048172"/>
</linearGradient>
<linearGradient id="paint13_linear" x1="102.8" y1="92.5" x2="177.102" y2="92.5" gradientUnits="userSpaceOnUse">
<stop stop-color="#3DAE2B"/>
<stop offset="1" stop-color="#048172"/>
</linearGradient>
<linearGradient id="paint14_linear" x1="118.188" y1="127.489" x2="142.076" y2="127.489" gradientUnits="userSpaceOnUse">
<stop stop-color="#3DAE2B"/>
<stop offset="1" stop-color="#048172"/>
</linearGradient>
<clipPath id="clip0">
<rect width="269.6" height="202.6" fill="white"/>
</clipPath>
</defs>
</svg>
