<svg width="255" height="211" viewBox="0 0 255 211" fill="none" xmlns="http://www.w3.org/2000/svg">
<g clip-path="url(#clip0)">
<path d="M99.7 205.3C83.1 205.3 68 202.4 55.8 196.6C36.6 187.6 14.9 167.2 20.9 121.7C25 91.1 37.2 64.5 56.4 44.7C73.7 26.9 96 14.9 120.9 9.99996C143.5 5.59996 167.3 7.69996 187.8 15.8C209.6 24.5 227.1 39.5 238.3 59.2C256.3 90.9 251.6 124.2 225.1 152.8C205.7 173.7 175.8 190.7 143.1 199.3C128.1 203.3 113.4 205.3 99.7 205.3ZM22.7 122L24.5 122.2C20 156.5 31.3 181 57.3 193.3C102.1 214.4 182.3 193.5 222.3 150.3C247.6 123 252.1 91.3 235 61.1C213.8 23.7 168.2 4.69996 121.6 13.7C80.6 21.7 33.6 54.4 24.6 122.2L22.7 122Z" fill="#725FDB"/>
<path d="M9.60001 147.4C9.00001 147.4 8.50001 147.1 8.20001 146.6C8.00001 146.2 7.8 145.9 7.60001 145.5C7.20001 144.7 7.50001 143.8 8.30001 143.4C9.10001 143 10 143.3 10.4 144.1C10.6 144.5 10.8 144.8 10.9 145.2C11.3 146 11 146.9 10.2 147.3C10.1 147.4 9.80001 147.4 9.60001 147.4ZM6.10001 139.5C5.50001 139.5 4.9 139.1 4.70001 138.5C4.60001 138.1 4.40001 137.7 4.30001 137.3C4.00001 136.5 4.4 135.6 5.20001 135.3C6.00001 135 6.9 135.4 7.20001 136.2C7.3 136.6 7.50001 137 7.60001 137.3C7.90001 138.1 7.50001 139 6.70001 139.3C6.4 139.5 6.20001 139.5 6.10001 139.5ZM3.50001 131.3C2.80001 131.3 2.20001 130.8 2.00001 130.1C1.90001 129.7 1.80001 129.3 1.70001 128.9C1.50001 128.1 2.00001 127.2 2.90001 127.1C3.70001 126.9 4.60001 127.4 4.70001 128.3C4.8 128.7 4.90001 129.1 5.00001 129.5C5.20001 130.3 4.70001 131.2 3.90001 131.4C3.70001 131.3 3.60001 131.3 3.50001 131.3ZM2.00001 122.8C1.20001 122.8 0.600005 122.2 0.500005 121.4C0.500005 121 0.400005 120.6 0.400005 120.1C0.300005 119.3 0.900005 118.5 1.80001 118.4C2.60001 118.3 3.40001 118.9 3.50001 119.8C3.50001 120.2 3.60001 120.6 3.60001 121C3.70001 121.8 3.10001 122.6 2.20001 122.7C2.10001 122.8 2.00001 122.8 2.00001 122.8ZM1.50001 114.2C0.600005 114.2 -0.0999946 113.5 5.4054e-06 112.6C5.4054e-06 112.2 5.4054e-06 111.8 5.4054e-06 111.3C5.4054e-06 110.4 0.700005 109.8 1.60001 109.8C2.50001 109.8 3.10001 110.5 3.10001 111.4C3.10001 111.8 3.10001 112.2 3.10001 112.6C3.10001 113.5 2.40001 114.2 1.50001 114.2ZM2.20001 105.6C2.10001 105.6 2.10001 105.6 2.00001 105.6C1.20001 105.5 0.600005 104.7 0.700005 103.9C0.800005 103.5 0.800005 103.1 0.900005 102.7C1.00001 101.9 1.80001 101.3 2.60001 101.4C3.40001 101.5 4.00001 102.3 3.90001 103.1C3.80001 103.5 3.80001 103.9 3.70001 104.3C3.60001 105 2.90001 105.6 2.20001 105.6ZM3.80001 97.1001C3.70001 97.1001 3.60001 97.1001 3.40001 97.1001C2.60001 96.9001 2.10001 96.1001 2.30001 95.2001C2.40001 94.8001 2.50001 94.4001 2.60001 94.0001C2.80001 93.2001 3.70001 92.7001 4.50001 92.9001C5.30001 93.1001 5.8 94.0001 5.60001 94.8001C5.50001 95.2001 5.40001 95.6001 5.30001 96.0001C5.10001 96.6001 4.50001 97.1001 3.80001 97.1001Z" fill="#3DAE2B"/>
<path d="M144.7 211C143.9 211 143.2 210.3 143.2 209.5C143.2 208.6 143.8 207.9 144.7 207.9H145.9C146.7 207.9 147.5 208.5 147.5 209.4C147.5 210.3 146.9 211 146 211H144.7ZM153.3 210.5C152.5 210.5 151.8 209.9 151.8 209.1C151.7 208.3 152.4 207.5 153.2 207.4C153.6 207.4 154 207.3 154.4 207.3C155.2 207.2 156 207.9 156.1 208.7C156.2 209.5 155.5 210.3 154.7 210.4C154.3 210.4 153.9 210.5 153.5 210.5C153.4 210.5 153.3 210.5 153.3 210.5ZM161.9 209.6C161.1 209.6 160.5 209 160.4 208.3C160.3 207.5 160.9 206.7 161.7 206.6L162.9 206.4C163.7 206.3 164.5 206.9 164.6 207.7C164.7 208.5 164.1 209.3 163.3 209.4L162.1 209.6C162 209.6 162 209.6 161.9 209.6ZM170.4 208.2C169.7 208.2 169 207.7 168.9 207C168.7 206.2 169.3 205.4 170.1 205.2C170.5 205.1 170.9 205 171.3 205C172.1 204.8 172.9 205.4 173.1 206.2C173.3 207 172.7 207.8 171.9 208C171.5 208.1 171.1 208.2 170.7 208.2C170.6 208.2 170.5 208.2 170.4 208.2ZM178.8 206.3C178.1 206.3 177.5 205.8 177.3 205.1C177.1 204.3 177.6 203.4 178.4 203.2C178.8 203.1 179.2 203 179.6 202.9C180.4 202.7 181.3 203.2 181.5 204C181.7 204.8 181.2 205.7 180.4 205.9C180 206 179.6 206.1 179.2 206.2C179.1 206.3 178.9 206.3 178.8 206.3ZM187.1 203.8C186.5 203.8 185.9 203.4 185.6 202.8C185.3 202 185.8 201.1 186.6 200.8C187 200.7 187.4 200.5 187.8 200.4C188.6 200.1 189.5 200.5 189.8 201.3C190.1 202.1 189.7 203 188.9 203.3C188.5 203.4 188.1 203.6 187.7 203.7C187.4 203.8 187.3 203.8 187.1 203.8ZM195.2 200.8C194.6 200.8 194 200.4 193.8 199.9C193.5 199.1 193.8 198.2 194.6 197.9C195 197.7 195.3 197.6 195.7 197.4C196.5 197.1 197.4 197.4 197.7 198.2C198 199 197.7 199.9 196.9 200.2C196.5 200.4 196.1 200.5 195.8 200.7C195.6 200.7 195.4 200.8 195.2 200.8ZM203 197.1C202.4 197.1 201.9 196.8 201.6 196.3C201.2 195.5 201.5 194.6 202.2 194.2C202.6 194 202.9 193.8 203.3 193.6C204 193.2 205 193.5 205.4 194.2C205.8 194.9 205.5 195.9 204.8 196.3C204.4 196.5 204.1 196.7 203.7 196.9C203.4 197 203.2 197.1 203 197.1ZM210.4 192.7C209.9 192.7 209.4 192.4 209.1 192C208.6 191.3 208.8 190.3 209.6 189.9C209.9 189.7 210.3 189.5 210.6 189.2C211.3 188.7 212.3 188.9 212.7 189.6C213.1 190.3 213 191.3 212.3 191.7C212 191.9 211.6 192.2 211.2 192.4C211 192.6 210.7 192.7 210.4 192.7ZM217.4 187.7C216.9 187.7 216.5 187.5 216.2 187.1C215.7 186.4 215.8 185.5 216.5 184.9C216.8 184.6 217.1 184.4 217.4 184.1C218.1 183.6 219 183.7 219.6 184.3C220.1 185 220 185.9 219.4 186.5C219.1 186.8 218.8 187 218.4 187.3C218.1 187.6 217.8 187.7 217.4 187.7ZM223.9 182C223.5 182 223.1 181.8 222.8 181.5C222.2 180.9 222.2 179.9 222.8 179.3C223.1 179 223.4 178.7 223.7 178.4C224.3 177.8 225.3 177.8 225.9 178.4C226.5 179 226.5 180 225.9 180.6C225.6 180.9 225.3 181.2 225 181.5C224.7 181.9 224.3 182 223.9 182Z" fill="#3DAE2B"/>
<path d="M55.8 25.7C55.3 25.7 54.9 25.5 54.6 25.1C54.1 24.4 54.3 23.4 54.9 22.9C55.2 22.7 55.6 22.4 55.9 22.2C56.6 21.7 57.6 21.9 58 22.6C58.5 23.3 58.3 24.3 57.6 24.7C57.3 24.9 56.9 25.2 56.6 25.4C56.5 25.6 56.1 25.7 55.8 25.7ZM63 20.9C62.5 20.9 62 20.6 61.7 20.2C61.2 19.5 61.5 18.5 62.2 18.1C62.6 17.9 62.9 17.7 63.3 17.4C64 17 65 17.2 65.4 17.9C65.8 18.6 65.6 19.6 64.9 20C64.6 20.2 64.2 20.4 63.9 20.6C63.5 20.8 63.3 20.9 63 20.9ZM70.4 16.5C69.9 16.5 69.3 16.2 69 15.7C68.7 15 69 14 69.7 13.6C70.1 13.4 70.4 13.2 70.8 13C71.6 12.6 72.5 12.9 72.9 13.6C73.3 14.4 73 15.3 72.3 15.7C71.9 15.9 71.6 16.1 71.2 16.3C70.9 16.5 70.7 16.5 70.4 16.5ZM78.2 12.7C77.6 12.7 77.1 12.4 76.8 11.8C76.5 11 76.8 10.1 77.6 9.80004C78 9.60004 78.4 9.50004 78.7 9.30004C79.5 9.00004 80.4 9.30004 80.7 10.1C81 10.9 80.7 11.8 79.9 12.1C79.5 12.3 79.2 12.4 78.8 12.6C78.6 12.7 78.4 12.7 78.2 12.7ZM86.2 9.40004C85.6 9.40004 85 9.00004 84.8 8.40004C84.5 7.60004 84.9 6.70004 85.7 6.40004C86 6.30004 86.4 6.20004 86.8 6.00004C87.6 5.70004 88.5 6.10004 88.8 6.90004C89.1 7.70004 88.7 8.60004 87.9 8.90004C87.5 9.00004 87.1 9.20004 86.8 9.30004C86.5 9.40004 86.3 9.40004 86.2 9.40004ZM94.4 6.80004C93.7 6.80004 93.1 6.40004 92.9 5.70004C92.7 4.90004 93.1 4.00004 94 3.80004C94.4 3.70004 94.8 3.60004 95.2 3.50004C96 3.20004 96.8 3.70004 97 4.50004C97.2 5.30004 96.8 6.10004 96 6.40004C95.6 6.50004 95.2 6.60004 94.8 6.70004C94.7 6.70004 94.5 6.80004 94.4 6.80004ZM102.8 4.70004C102.1 4.70004 101.4 4.20004 101.3 3.50004C101.1 2.70004 101.7 1.80004 102.5 1.70004C102.9 1.60004 103.3 1.50004 103.7 1.50004C104.5 1.30004 105.3 1.90004 105.5 2.70004C105.7 3.50004 105.1 4.30004 104.3 4.50004C103.9 4.60004 103.5 4.70004 103.1 4.70004C103 4.70004 102.9 4.70004 102.8 4.70004ZM111.3 3.20004C110.5 3.20004 109.9 2.60004 109.8 1.90004C109.7 1.10004 110.3 0.30004 111.1 0.20004L112.3 3.95961e-05C113.1 -0.0999604 113.9 0.50004 114 1.30004C114.1 2.10004 113.5 2.90004 112.7 3.00004L111.5 3.20004C111.4 3.20004 111.3 3.20004 111.3 3.20004Z" fill="#4553C7"/>
<path d="M26.61 65.5863L26.61 65.5862C64.1345 11.8161 117.332 -0.0572281 161.248 13.914C205.195 27.8948 239.852 67.7483 240.3 117.504C240.623 154.79 221.735 178.37 194.63 190.761C167.488 203.168 132.089 204.358 99.4888 196.738C66.884 189.117 37.1837 172.709 21.3852 150.036C13.492 138.708 9.06886 125.819 9.47403 111.666C9.87927 97.5095 15.1159 82.0491 26.61 65.5863Z" stroke="url(#paint0_linear)"/>
<path d="M247.6 167.4C244 167.4 241.1 164.5 241.1 160.9C241.1 157.3 244 154.4 247.6 154.4C251.2 154.4 254.1 157.3 254.1 160.9C254.1 164.5 251.2 167.4 247.6 167.4ZM247.6 157.6C245.7 157.6 244.2 159.1 244.2 161C244.2 162.9 245.7 164.4 247.6 164.4C249.5 164.4 251 162.9 251 161C251 159.1 249.5 157.6 247.6 157.6Z" fill="#4553C7"/>
<path d="M23.1 38C22.7 38 22.3 37.8 22 37.5C21.4 36.9 21.4 35.9 22 35.3L23 34.3C23.6 33.7 24.6 33.7 25.2 34.3C25.8 34.9 25.8 35.9 25.2 36.5L24.2 37.5C23.9 37.8 23.5 38 23.1 38Z" fill="#3DAE2B"/>
<path d="M16.4 44.7C16 44.7 15.6 44.5 15.3 44.2C14.7 43.6 14.7 42.6 15.3 42L16.3 41C16.9 40.4 17.9 40.4 18.5 41C19.1 41.6 19.1 42.6 18.5 43.2L17.5 44.2C17.2 44.6 16.8 44.7 16.4 44.7Z" fill="#3DAE2B"/>
<path d="M17.3 38C16.9 38 16.5 37.8 16.2 37.5L15.2 36.5C14.6 35.9 14.6 34.9 15.2 34.3C15.8 33.7 16.8 33.7 17.4 34.3L18.4 35.3C19 35.9 19 36.9 18.4 37.5C18.1 37.8 17.7 38 17.3 38Z" fill="#3DAE2B"/>
<path d="M24 44.7C23.6 44.7 23.2 44.5 22.9 44.2L21.9 43.2C21.3 42.6 21.3 41.6 21.9 41C22.5 40.4 23.5 40.4 24.1 41L25.1 42C25.7 42.6 25.7 43.6 25.1 44.2C24.8 44.6 24.4 44.7 24 44.7Z" fill="#3DAE2B"/>
<g opacity="0.75">
<path opacity="0.75" d="M40.9 186.4C40.5 186.4 40 186.2 39.7 185.9C23.6 171.2 17.3 149.6 21 121.7C25.1 91.1 37.3 64.5 56.5 44.7C73.7 26.9 96 14.9 120.9 9.99996C143.5 5.59996 167.3 7.69996 187.8 15.8C209.6 24.5 227.1 39.5 238.3 59.2C238.8 60.1 238.5 61.2 237.6 61.7C236.7 62.2 235.6 61.9 235.1 61C213.9 23.6 168.3 4.59996 121.7 13.6C80.7 21.6 33.7 54.3 24.7 122.1C21.2 148.8 27.1 169.3 42.2 183.1C43 183.8 43 185 42.3 185.7C41.9 186.2 41.4 186.4 40.9 186.4Z" fill="#725FDB"/>
</g>
<path d="M99.3 80.6H78.6C77.8 80.6 77.1 79.9 77.1 79.1V72.9C77.1 66.4 82.4 61 89 61C89.8 61 90.5 61.7 90.5 62.5C90.5 63.3 89.8 64 89 64C84.1 64 80.2 68 80.2 72.8V77.5H99.4C100.2 77.5 100.9 78.2 100.9 79C100.9 79.8 100.1 80.6 99.3 80.6Z" fill="url(#paint1_linear)"/>
<path d="M165.8 148.8H109.6C103.1 148.8 97.7 143.5 97.7 136.9V72.9C97.7 68 93.7 64.1 88.9 64.1C88.1 64.1 87.4 63.4 87.4 62.6C87.4 61.8 88.1 61.1 88.9 61.1H145.1C151.6 61.1 157 66.4 157 73V137C157 141.9 161 145.8 165.8 145.8C166.6 145.8 167.3 146.5 167.3 147.3C167.3 148.1 166.7 148.8 165.8 148.8ZM96.9 64.1C99.3 66.3 100.8 69.4 100.8 72.9V136.9C100.8 141.8 104.8 145.7 109.6 145.7H157.9C155.5 143.5 154 140.4 154 136.9V72.9C154 68 150 64.1 145.2 64.1H96.9Z" fill="url(#paint2_linear)"/>
<path d="M165.8 148.8C165 148.8 164.3 148.1 164.3 147.3C164.3 146.5 165 145.8 165.8 145.8C170.7 145.8 174.6 141.8 174.6 137V132.3H155.4C154.6 132.3 153.9 131.6 153.9 130.8C153.9 130 154.6 129.3 155.4 129.3H176.1C176.9 129.3 177.6 130 177.6 130.8V137C177.7 143.4 172.4 148.8 165.8 148.8Z" fill="url(#paint3_linear)"/>
<path d="M112.2 121.6C111.8 121.6 111.4 121.5 111.1 121.2C110.5 120.6 110.5 119.6 111.1 119L141.5 88.6C142.1 88 143.1 88 143.7 88.6C144.3 89.2 144.3 90.2 143.7 90.8L113.3 121.2C113 121.5 112.6 121.6 112.2 121.6Z" fill="url(#paint4_linear)"/>
<path d="M116.2 101.2C112.1 101.2 108.8 97.9 108.8 93.8C108.8 89.7 112.1 86.4 116.2 86.4C120.3 86.4 123.6 89.7 123.6 93.8C123.6 97.9 120.3 101.2 116.2 101.2ZM116.2 89.3C113.8 89.3 111.8 91.3 111.8 93.7C111.8 96.1 113.8 98.1 116.2 98.1C118.6 98.1 120.6 96.1 120.6 93.7C120.6 91.3 118.6 89.3 116.2 89.3Z" fill="url(#paint5_linear)"/>
<path d="M138.5 123.5C134.4 123.5 131.1 120.2 131.1 116.1C131.1 112 134.4 108.7 138.5 108.7C142.6 108.7 145.9 112 145.9 116.1C146 120.1 142.6 123.5 138.5 123.5ZM138.5 111.6C136.1 111.6 134.1 113.6 134.1 116C134.1 118.4 136.1 120.4 138.5 120.4C140.9 120.4 142.9 118.4 142.9 116C142.9 113.6 141 111.6 138.5 111.6Z" fill="url(#paint6_linear)"/>
<path d="M83.5 107.9C82.7 107.9 82 107.2 82 106.4V86.4C82 85.6 82.7 84.9 83.5 84.9C84.3 84.9 85 85.6 85 86.4V106.3C85 107.2 84.3 107.9 83.5 107.9Z" fill="url(#paint7_linear)"/>
<path d="M90.8 99.3C90 99.3 89.3 98.6 89.3 97.8V86.4C89.3 85.6 90 84.9 90.8 84.9C91.6 84.9 92.3 85.6 92.3 86.4V97.8C92.3 98.7 91.6 99.3 90.8 99.3Z" fill="url(#paint8_linear)"/>
<path d="M90.8 119.4C90 119.4 89.3 118.7 89.3 117.9V116.8C89.3 116 90 115.3 90.8 115.3C91.6 115.3 92.3 116 92.3 116.8V117.9C92.3 118.7 91.6 119.4 90.8 119.4ZM90.8 113C90 113 89.3 112.3 89.3 111.5V110.4C89.3 109.6 90 108.9 90.8 108.9C91.6 108.9 92.3 109.6 92.3 110.4V111.5C92.3 112.3 91.6 113 90.8 113ZM90.8 106.5C90 106.5 89.3 105.8 89.3 105V103.9C89.3 103.1 90 102.4 90.8 102.4C91.6 102.4 92.3 103.1 92.3 103.9V105C92.3 105.8 91.6 106.5 90.8 106.5Z" fill="url(#paint9_linear)"/>
<path d="M171.3 125C170.5 125 169.8 124.3 169.8 123.5V103.6C169.8 102.8 170.5 102.1 171.3 102.1C172.1 102.1 172.8 102.8 172.8 103.6V123.5C172.8 124.3 172.1 125 171.3 125Z" fill="url(#paint10_linear)"/>
<path d="M164 125C163.2 125 162.5 124.3 162.5 123.5V112.1C162.5 111.3 163.2 110.6 164 110.6C164.8 110.6 165.5 111.3 165.5 112.1V123.5C165.5 124.3 164.8 125 164 125Z" fill="url(#paint11_linear)"/>
<path d="M164 107.5C163.2 107.5 162.5 106.8 162.5 106V104.9C162.5 104.1 163.2 103.4 164 103.4C164.8 103.4 165.5 104.1 165.5 104.9V106C165.5 106.8 164.8 107.5 164 107.5ZM164 101C163.2 101 162.5 100.3 162.5 99.5V98.4C162.5 97.6 163.2 96.9 164 96.9C164.8 96.9 165.5 97.6 165.5 98.4V99.5C165.5 100.4 164.8 101 164 101ZM164 94.6C163.2 94.6 162.5 93.9 162.5 93.1V92C162.5 91.2 163.2 90.5 164 90.5C164.8 90.5 165.5 91.2 165.5 92V93.1C165.5 93.9 164.8 94.6 164 94.6Z" fill="url(#paint12_linear)"/>
</g>
<defs>
<linearGradient id="paint0_linear" x1="8.94843" y1="105.017" x2="240.804" y2="105.017" gradientUnits="userSpaceOnUse">
<stop stop-color="#3DAE2B"/>
<stop offset="1" stop-color="#048172"/>
</linearGradient>
<linearGradient id="paint1_linear" x1="77.1" y1="70.8" x2="100.9" y2="70.8" gradientUnits="userSpaceOnUse">
<stop stop-color="#3DAE2B"/>
<stop offset="1" stop-color="#048172"/>
</linearGradient>
<linearGradient id="paint2_linear" x1="87.4" y1="104.95" x2="167.3" y2="104.95" gradientUnits="userSpaceOnUse">
<stop stop-color="#3DAE2B"/>
<stop offset="1" stop-color="#048172"/>
</linearGradient>
<linearGradient id="paint3_linear" x1="153.9" y1="139.05" x2="177.601" y2="139.05" gradientUnits="userSpaceOnUse">
<stop stop-color="#3DAE2B"/>
<stop offset="1" stop-color="#048172"/>
</linearGradient>
<linearGradient id="paint4_linear" x1="110.65" y1="104.875" x2="144.15" y2="104.875" gradientUnits="userSpaceOnUse">
<stop stop-color="#3DAE2B"/>
<stop offset="1" stop-color="#048172"/>
</linearGradient>
<linearGradient id="paint5_linear" x1="108.8" y1="93.8" x2="123.6" y2="93.8" gradientUnits="userSpaceOnUse">
<stop stop-color="#3DAE2B"/>
<stop offset="1" stop-color="#048172"/>
</linearGradient>
<linearGradient id="paint6_linear" x1="131.1" y1="116.1" x2="145.902" y2="116.1" gradientUnits="userSpaceOnUse">
<stop stop-color="#3DAE2B"/>
<stop offset="1" stop-color="#048172"/>
</linearGradient>
<linearGradient id="paint7_linear" x1="82" y1="96.4" x2="85" y2="96.4" gradientUnits="userSpaceOnUse">
<stop stop-color="#3DAE2B"/>
<stop offset="1" stop-color="#048172"/>
</linearGradient>
<linearGradient id="paint8_linear" x1="89.3" y1="92.1" x2="92.3" y2="92.1" gradientUnits="userSpaceOnUse">
<stop stop-color="#3DAE2B"/>
<stop offset="1" stop-color="#048172"/>
</linearGradient>
<linearGradient id="paint9_linear" x1="89.3" y1="110.9" x2="92.3" y2="110.9" gradientUnits="userSpaceOnUse">
<stop stop-color="#3DAE2B"/>
<stop offset="1" stop-color="#048172"/>
</linearGradient>
<linearGradient id="paint10_linear" x1="169.8" y1="113.55" x2="172.8" y2="113.55" gradientUnits="userSpaceOnUse">
<stop stop-color="#3DAE2B"/>
<stop offset="1" stop-color="#048172"/>
</linearGradient>
<linearGradient id="paint11_linear" x1="162.5" y1="117.8" x2="165.5" y2="117.8" gradientUnits="userSpaceOnUse">
<stop stop-color="#3DAE2B"/>
<stop offset="1" stop-color="#048172"/>
</linearGradient>
<linearGradient id="paint12_linear" x1="162.5" y1="99" x2="165.5" y2="99" gradientUnits="userSpaceOnUse">
<stop stop-color="#3DAE2B"/>
<stop offset="1" stop-color="#048172"/>
</linearGradient>
<clipPath id="clip0">
<rect width="254.1" height="211" fill="white"/>
</clipPath>
</defs>
</svg>
