<svg width="53" height="44" viewBox="0 0 53 44" fill="none" xmlns="http://www.w3.org/2000/svg">
<path d="M24.8549 12.2596C24.8549 8.84481 18.5852 7.05347 12.4275 7.05347C6.26971 7.05347 0 8.84481 0 12.2596V31.7405C0 35.1552 6.26971 36.9466 12.4275 36.9466C18.5852 36.9466 24.8549 35.1552 24.8549 31.7405V12.2596ZM12.4275 9.29265C19.0331 9.29265 22.6158 11.2519 22.6158 12.2596C22.6158 13.2672 19.0331 15.2265 12.4275 15.2265C5.82188 15.2265 2.23918 13.2672 2.23918 12.2596C2.23918 11.2519 5.82188 9.29265 12.4275 9.29265ZM2.23918 15.3944C4.59033 16.7939 8.5089 17.4657 12.4275 17.4657C16.346 17.4657 20.2646 16.7379 22.6158 15.3944V21.8321C22.6158 22.8397 19.0331 24.799 12.4275 24.799C5.82188 24.799 2.23918 22.8397 2.23918 21.8321V15.3944ZM12.4275 34.7074C5.82188 34.7074 2.23918 32.7481 2.23918 31.7405V24.911C4.64631 26.3104 8.56488 27.0382 12.4275 27.0382C16.2901 27.0382 20.2646 26.3104 22.6158 24.9669V31.7405C22.6158 32.7481 19.0331 34.7074 12.4275 34.7074Z" fill="black"/>
<path d="M11.8117 22.4478H13.0433C13.3402 22.4478 13.625 22.3298 13.835 22.1199C14.0449 21.9099 14.1629 21.6251 14.1629 21.3282C14.1629 21.0313 14.0449 20.7465 13.835 20.5365C13.625 20.3266 13.3402 20.2086 13.0433 20.2086H11.8117C11.5148 20.2086 11.23 20.3266 11.0201 20.5365C10.8101 20.7465 10.6921 21.0313 10.6921 21.3282C10.6921 21.6251 10.8101 21.9099 11.0201 22.1199C11.23 22.3298 11.5148 22.4478 11.8117 22.4478Z" fill="black"/>
<path d="M13.0433 29.5573H11.8117C11.5148 29.5573 11.23 29.6752 11.0201 29.8852C10.8101 30.0951 10.6921 30.3799 10.6921 30.6768C10.6921 30.9738 10.8101 31.2586 11.0201 31.4685C11.23 31.6785 11.5148 31.7964 11.8117 31.7964H13.0433C13.3402 31.7964 13.625 31.6785 13.835 31.4685C14.0449 31.2586 14.1629 30.9738 14.1629 30.6768C14.1629 30.3799 14.0449 30.0951 13.835 29.8852C13.625 29.6752 13.3402 29.5573 13.0433 29.5573Z" fill="black"/>
<path d="M28.7736 40.3613H36.0509V38.1221H31.0127V23.1196H36.0509V20.8804H31.0127V5.87786H36.0509V3.63867H28.7736V40.3613Z" fill="black"/>
<path d="M52.5088 16.7939H38.6819V27.2061H52.5088V16.7939ZM50.2697 25.0229H40.9211V19.0331H50.2697V25.0229Z" fill="black"/>
<path d="M52.5088 33.5878H38.6819V44H52.5088V33.5878ZM50.2697 41.8168H40.9211V35.827H50.2697V41.8168Z" fill="black"/>
<path d="M52.5088 0H38.6819V10.4122H52.5088V0ZM50.2697 8.229H40.9211V2.23918H50.2697V8.229Z" fill="black"/>
</svg>
