<svg width="46" height="46" viewBox="0 0 46 46" fill="none" xmlns="http://www.w3.org/2000/svg">
<path d="M22.9839 45.9677C35.6571 45.9677 45.9677 35.6571 45.9677 22.9839C45.9677 10.3106 35.6571 0 22.9839 0C10.3106 0 0 10.3106 0 22.9839C0 35.6571 10.3106 45.9677 22.9839 45.9677ZM22.9839 2.3444C34.3647 2.3444 43.6233 11.603 43.6233 22.9839C43.6233 34.3647 34.3647 43.6233 22.9839 43.6233C11.603 43.6233 2.3444 34.3647 2.3444 22.9839C2.3444 11.603 11.603 2.3444 22.9839 2.3444Z" fill="black"/>
<path d="M22.9836 40.37C32.5707 40.37 40.3698 32.5709 40.3698 22.9839C40.3698 13.3968 32.5707 5.59772 22.9836 5.59772C13.3977 5.59772 5.59863 13.3968 5.59863 22.9839C5.59863 32.5709 13.3977 40.37 22.9836 40.37ZM22.9836 7.94212C31.2772 7.94212 38.0254 14.6903 38.0254 22.9839C38.0254 31.2774 31.2772 38.0256 22.9836 38.0256C14.6901 38.0256 7.94304 31.2774 7.94304 22.9839C7.94304 14.6903 14.6901 7.94212 22.9836 7.94212Z" fill="black"/>
<path d="M22.8452 30.0594C20.9839 30.0594 19.4694 28.7018 19.4694 27.0327C19.4694 26.3848 18.9451 25.8605 18.2972 25.8605C17.6493 25.8605 17.125 26.3848 17.125 27.0327C17.125 29.6167 19.0798 31.7788 21.673 32.2882V33.0712C21.673 33.7191 22.1973 34.2434 22.8452 34.2434C23.4931 34.2434 24.0174 33.7191 24.0174 33.0712V32.2882C26.6106 31.7788 28.5654 29.6167 28.5654 27.0327C28.5654 24.0713 25.9989 21.6617 22.8452 21.6617C20.9839 21.6617 19.4694 20.304 19.4694 18.635C19.4694 16.966 20.9839 15.6084 22.8452 15.6084C24.7065 15.6084 26.221 16.966 26.221 18.635C26.221 19.2829 26.7453 19.8072 27.3932 19.8072C28.0411 19.8072 28.5654 19.2829 28.5654 18.635C28.5654 16.0511 26.6106 13.889 24.0174 13.3796V12.5966C24.0174 11.9487 23.4931 11.4244 22.8452 11.4244C22.1973 11.4244 21.673 11.9487 21.673 12.5966V13.3796C19.0798 13.889 17.125 16.0511 17.125 18.635C17.125 21.5964 19.6915 24.0061 22.8452 24.0061C24.7065 24.0061 26.221 25.3637 26.221 27.0327C26.221 28.7018 24.7065 30.0594 22.8452 30.0594Z" fill="black"/>
<path fill-rule="evenodd" clip-rule="evenodd" d="M43.293 43.7071L1.29297 1.70712L2.70718 0.292908L44.7072 42.2929L43.293 43.7071Z" fill="black"/>
</svg>
