<svg width="45" height="44" viewBox="0 0 45 44" fill="none" xmlns="http://www.w3.org/2000/svg">
<path d="M43.8618 39.0958L36.8163 31.9812L39.7864 29.011C40.0627 28.7347 40.0627 28.3202 39.7864 28.044C39.6483 27.9058 39.5101 27.8367 39.3029 27.8367H28.5274C28.113 27.8367 27.8367 28.113 27.8367 28.5275V39.2339C27.8367 39.6483 28.182 39.9246 28.5274 39.9246C28.7346 39.9246 28.8728 39.8556 29.0109 39.7174L31.9811 36.7473L39.0266 43.7928C39.3029 44.0691 39.7174 44.0691 39.9937 43.7928L43.7927 39.9937C43.9309 39.8556 43.9999 39.7174 43.9999 39.5102C44.069 39.3721 43.9999 39.2339 43.8618 39.0958ZM39.5792 42.3422L32.5337 35.2967C32.3955 35.1586 32.2574 35.0895 32.0502 35.0895C31.8429 35.0895 31.7048 35.1586 31.5667 35.2967L29.2872 37.5761V29.2182H37.6451L35.3657 31.4976C35.0894 31.7739 35.0894 32.1884 35.3657 32.4647L42.4112 39.5102L39.5792 42.3422Z" fill="black"/>
<path d="M27.1459 31.2214C26.248 30.8069 25.6954 29.909 25.5572 28.9419C25.5572 28.8038 25.5572 28.6656 25.5572 28.4584C25.5572 26.8006 26.9387 25.4192 28.5965 25.4192C29.7017 25.4192 30.8068 26.0408 31.2904 27.0769C31.4285 27.4223 31.843 27.6295 32.1883 27.4223C32.5337 27.2842 32.7409 26.8697 32.5337 26.5243C32.5337 26.5243 32.5337 26.4553 32.4646 26.4553C31.912 25.4192 31.0141 24.5903 29.9089 24.2449C29.4944 24.1068 29.0109 24.0377 28.5274 24.0377C26.1098 24.0377 24.1067 26.0408 24.1067 28.4584C24.1067 28.6656 24.1067 28.9419 24.1758 29.1492C24.383 30.5306 25.2809 31.774 26.5243 32.3956C26.5933 32.4647 26.7315 32.4647 26.8696 32.4647C27.2841 32.4647 27.5604 32.1193 27.5604 31.774C27.5604 31.5667 27.4222 31.3595 27.1459 31.2214Z" fill="black"/>
<path d="M27.0078 34.2606C26.7315 34.1915 26.4552 34.1225 26.248 33.9843C24.1758 33.1554 22.7943 31.2214 22.6561 29.011C22.6561 28.8728 22.6561 28.6656 22.6561 28.5275C22.7252 25.281 25.4191 22.6562 28.6656 22.7253C31.2904 22.7944 33.5007 24.5212 34.2605 27.0079C34.3296 27.3532 34.744 27.6295 35.0894 27.4914C35.4348 27.3532 35.7111 27.0079 35.5729 26.6625C34.8822 24.0377 32.81 22.0345 30.1852 21.4129C29.6326 21.2747 29.08 21.2057 28.5274 21.2057C24.5211 21.2057 21.2747 24.5212 21.2747 28.5275C21.2747 28.7347 21.2747 28.9419 21.2747 29.1491C21.4819 31.843 23.2087 34.1915 25.6954 35.2967C26.0408 35.4349 26.317 35.573 26.6624 35.6421C26.7315 35.6421 26.8006 35.6421 26.8006 35.6421C27.215 35.7112 27.5604 35.4349 27.5604 35.0204C27.5604 34.606 27.4222 34.2606 27.0078 34.2606Z" fill="black"/>
<path d="M2.62476 35.2276H1.24329V36.6091H2.62476V35.2276Z" fill="black"/>
<path d="M41.9968 1.93408H40.6154V3.31556H41.9968V1.93408Z" fill="black"/>
<path d="M6.76917 1.24332H5.3877V2.62479H6.76917V1.24332Z" fill="black"/>
<path d="M6.0785 40.6154H4.69702V41.9969H6.0785V40.6154Z" fill="black"/>
<path d="M35.6421 2.55573H34.2606V3.9372H35.6421V2.55573Z" fill="black"/>
<path d="M1.93409 5.38776H0.552612V6.76923H1.93409V5.38776Z" fill="black"/>
<path d="M16.4396 40.6154H15.0581V41.9969H16.4396V40.6154Z" fill="black"/>
<path d="M42.6876 10.2229H41.3062V11.6044H42.6876V10.2229Z" fill="black"/>
<path d="M20.3077 20.3077H38.5432C38.9576 20.3077 39.2339 20.0314 39.2339 19.617C39.2339 9.25589 31.2213 0.690738 20.8603 0H20.7912C20.4458 0 20.1005 0 19.7551 0H19.617C19.2716 0 18.9262 0 18.5808 0H18.4427C8.01256 0.621664 0 9.18681 0 19.5479C0 23.0016 0.897959 26.3171 2.6248 29.2873C5.87127 35.0204 11.8116 38.6813 18.3736 39.0958H18.5118C18.8571 39.0958 19.2716 39.0958 19.686 39.0958C20.1005 39.0958 20.3768 38.8195 20.3768 38.405L20.3077 20.3077ZM11.4662 29.7708H18.9262V37.7834C15.956 37.3689 13.1931 34.3987 11.4662 29.7708ZM18.9262 28.3893H10.9827C10.2229 25.7645 9.80848 23.0016 9.7394 20.3077H18.8571V28.3893H18.9262ZM1.38148 20.3077H8.427C8.49608 23.0706 8.84144 25.7645 9.60126 28.3893H3.66091C2.27943 25.9027 1.51962 23.1397 1.38148 20.3077ZM3.59184 10.7755H9.53218C8.77237 13.4003 8.427 16.1633 8.35793 18.8571H1.38148C1.45055 16.0942 2.27944 13.2622 3.59184 10.7755ZM20.3077 1.38148C23.2779 1.79592 26.0408 4.76609 27.7677 9.46311H20.3077V1.38148ZM18.9262 1.38148V9.46311H11.4662C13.124 4.76609 15.956 1.79592 18.9262 1.38148ZM18.9262 10.7755V18.8571H9.80848C9.87755 16.0942 10.292 13.4003 11.0518 10.7755H18.9262ZM20.3077 10.7755H28.1821C28.9419 13.4003 29.3564 16.1633 29.4254 18.8571H20.3077V10.7755ZM37.8524 18.9262H30.8069C30.7378 16.1633 30.3925 13.4694 29.6327 10.8446H35.573C36.9545 13.2622 37.7143 16.0942 37.8524 18.9262ZM34.7441 9.39404H29.2182C28.3893 6.63108 26.8006 4.07535 24.7284 2.07221C28.8038 3.24647 32.3956 5.87127 34.7441 9.39404ZM14.5055 2.07221C12.3642 4.07535 10.8446 6.63108 9.94663 9.46311H4.42072C6.8383 5.87127 10.4301 3.24647 14.5055 2.07221ZM4.4898 29.7708H10.0157C10.8446 32.5338 12.4333 35.0895 14.5746 37.0926C10.4301 35.9184 6.8383 33.2936 4.4898 29.7708Z" fill="black"/>
</svg>
