<svg width="1299" height="695" viewBox="0 0 1299 695" fill="none" xmlns="http://www.w3.org/2000/svg">
<g opacity="0.6">
<path fill-rule="evenodd" clip-rule="evenodd" d="M1087.69 426.588C1087.88 426.783 1088.08 426.783 1088.27 426.783C1088.5 426.783 1088.73 426.716 1088.92 426.661C1089.06 426.621 1089.17 426.588 1089.25 426.588C1089.64 426.001 1089.45 425.219 1088.86 424.828L850.106 286.796C846.394 284.645 844.44 281.908 844.44 279.171C844.44 276.238 846.589 273.696 850.106 271.546L1005.63 181.61C1010.12 179.068 1012.47 175.549 1012.47 171.834C1012.47 168.119 1010.12 164.6 1005.63 162.058L742.256 9.75358C733.66 4.86575 719.592 4.86575 710.995 9.75358L622.684 60.7825C618.19 63.3242 615.845 66.8434 615.845 70.5582C615.845 74.2729 618.19 77.7922 622.684 80.3338L683.938 115.816L596.93 166.164H556.841C556.255 166.164 555.669 166.751 555.669 167.337V190.799C555.669 191.385 556.255 191.972 556.841 191.972H597.284C597.675 191.972 597.87 191.776 598.066 191.581C598.261 191.385 598.457 191.19 598.457 190.799V168.223L686.479 117.288L753.979 156.388C757.691 158.539 759.645 161.276 759.645 164.014C759.645 166.946 757.496 169.488 753.979 171.639L557.622 285.036C549.807 289.533 536.912 289.533 528.901 285.036L398.583 209.764C397.997 209.373 397.215 209.568 396.824 210.155C396.434 210.741 396.629 211.523 397.215 211.914L527.534 287.187C536.13 292.075 550.198 292.075 558.794 287.187L755.151 173.789C759.645 171.247 761.99 167.728 761.99 164.014C761.99 160.299 759.645 156.78 755.151 154.238L687.592 115.204C687.579 115.181 687.565 115.158 687.55 115.135C687.294 114.751 686.871 114.535 686.445 114.541L623.856 78.3787C620.144 76.2281 618.19 73.4909 618.19 70.7537C618.19 67.821 620.339 65.2793 623.856 63.1287L712.168 12.0997C719.983 7.60294 732.878 7.60294 740.889 12.0997L1004.46 163.818C1008.17 165.969 1010.12 168.706 1010.12 171.443C1010.12 174.376 1007.97 176.917 1004.46 179.068L848.934 269.004C844.44 271.546 842.095 275.065 842.095 278.78C842.095 282.495 844.44 286.014 848.934 288.555L1087.69 426.588ZM558.013 168.51L595.526 168.51C595.655 168.768 595.869 168.941 596.112 169.029V189.43H558.013V168.51ZM1030.25 322.77C1030.44 323.161 1030.83 323.357 1031.22 323.357C1031.61 323.357 1031.81 323.357 1031.61 323.161L1151.03 254.199L1268.61 322.184C1268.81 322.379 1269 322.379 1269.2 322.379C1269.46 322.379 1269.72 322.205 1269.98 322.032C1270.02 322.006 1270.05 321.981 1270.09 321.956C1270.11 321.943 1270.13 321.929 1270.15 321.916C1270.19 321.895 1270.22 321.874 1270.25 321.855C1270.29 321.833 1270.33 321.812 1270.37 321.793C1270.76 321.206 1270.56 320.424 1269.98 320.033L1153.58 252.73L1263.53 189.235C1269.39 185.911 1272.52 181.414 1272.52 176.526C1272.52 171.639 1269.39 167.142 1263.53 163.818L1041.19 35.3658C1029.86 28.7184 1011.1 28.7184 999.767 35.3658L950.14 64.1063C949.554 64.4973 949.359 65.2793 949.75 65.8659C950.141 66.4524 950.922 66.6479 951.508 66.2569L1001.13 37.5165C1011.88 31.26 1029.46 31.26 1040.21 37.5165L1262.55 165.969C1267.63 168.901 1270.37 172.616 1270.37 176.526C1270.37 180.437 1267.44 184.151 1262.55 187.084L1030.64 321.011C1030.05 321.402 1029.86 322.184 1030.25 322.77ZM479.275 694.05C472.827 694.05 466.575 692.681 461.691 689.944L144.003 506.357C139.118 503.424 136.383 499.71 136.383 495.408C136.383 491.107 139.118 487.392 144.003 484.46L252.439 421.895C262.208 416.226 277.838 416.226 287.607 421.895L487.872 537.835C496.859 543.114 511.513 543.114 520.5 537.835L790.906 381.62C795.009 379.274 797.354 376.145 797.354 372.822C797.354 369.498 795.009 366.37 790.906 364.024L710.996 317.882C702.008 312.604 687.355 312.604 678.367 317.882L521.868 408.21C512.099 413.879 496.468 413.879 486.699 408.21L268.069 281.908C259.082 276.629 244.428 276.629 235.441 281.908L1.96171 416.812C1.37558 417.203 0.594056 417.008 0.203296 416.421C-0.187464 415.835 0.00791752 415.052 0.594057 414.661L234.073 279.757C243.842 274.087 259.473 274.087 269.242 279.757L487.872 406.254C496.859 411.533 511.513 411.533 520.5 406.254L676.999 315.927C686.768 310.257 702.399 310.257 712.168 315.927L792.078 362.068C796.963 365.001 799.698 368.716 799.698 373.017C799.698 377.123 796.963 381.033 792.078 383.966L521.672 540.181C511.903 545.851 496.273 545.851 486.504 540.181L332.106 451.033L285.375 478.018C290.241 481.375 292.882 485.597 292.882 490.13C292.882 495.213 289.561 499.905 283.504 503.424C277.447 506.748 269.632 508.508 261.817 508.508C254.002 508.508 246.187 506.748 240.13 503.424C234.073 499.905 230.752 495.213 230.752 490.13C230.752 485.046 234.073 480.354 240.13 476.835C251.852 470.105 270.944 469.994 282.909 476.502L329.559 449.562L286.044 424.437C277.057 419.158 262.403 419.158 253.416 424.437L144.98 487.001C140.877 489.348 138.532 492.476 138.532 495.799C138.532 499.123 140.877 502.251 144.98 504.598L462.668 688.184C471.655 693.463 486.309 693.463 495.296 688.184L552.092 655.364L513.417 632.697C512.54 633.368 511.578 634.008 510.536 634.614C504.674 637.938 496.859 639.697 488.849 639.697C481.033 639.697 473.218 637.938 467.161 634.614C461.105 631.095 457.783 626.402 457.783 621.319C457.783 616.236 461.105 611.543 467.161 608.024C479.08 601.181 498.618 601.181 510.536 608.024C516.593 611.543 519.914 616.236 519.914 621.319C519.914 624.791 518.365 628.08 515.453 630.938L554.628 653.899L713.566 562.054C713.599 561.927 713.654 561.803 713.731 561.687C714.05 561.209 714.629 560.99 715.15 561.139L906.376 450.636C906.962 450.245 907.743 450.44 908.134 451.027C908.525 451.613 908.329 452.396 907.743 452.787L717.539 562.48L783.872 600.79H823.729C824.316 600.79 824.902 601.377 824.902 601.963V625.425C824.902 626.011 824.316 626.598 823.729 626.598H783.286C782.7 626.598 782.114 626.011 782.114 625.425V602.715L714.991 563.949L555.007 656.214C554.935 656.261 554.863 656.308 554.791 656.349C554.736 656.381 554.681 656.409 554.626 656.433L496.859 689.748C491.975 692.681 485.527 694.05 479.275 694.05ZM1045.29 158.344H1085.73C1086.13 158.344 1086.32 158.148 1086.52 157.953C1086.71 157.757 1086.91 157.562 1086.91 157.171V133.709C1086.91 133.122 1086.32 132.536 1085.73 132.536H1045.29C1045.1 132.536 1044.7 132.731 1044.51 132.927C1044.31 133.122 1044.12 133.318 1044.12 133.709V157.171C1044.12 157.757 1044.7 158.344 1045.29 158.344ZM1084.56 155.802H1046.46V134.882H1084.56V155.802ZM488.849 605.287C481.424 605.287 474 606.851 468.334 610.175C463.058 613.107 460.128 617.213 460.128 621.319C460.128 625.425 463.058 629.335 468.334 632.463C479.666 638.915 498.031 638.915 509.168 632.463C514.443 629.531 517.374 625.425 517.374 621.319C517.374 617.213 514.443 613.303 509.168 610.175C503.697 606.851 496.273 605.287 488.849 605.287ZM391.549 590.819C397.606 594.143 405.421 595.902 413.236 595.902C421.052 595.902 428.867 594.143 434.924 590.819C440.98 587.3 444.302 582.607 444.302 577.524C444.302 572.441 440.98 567.748 434.924 564.229C423.005 557.386 403.467 557.386 391.549 564.229C385.493 567.748 382.171 572.441 382.171 577.524C382.171 582.607 385.493 587.3 391.549 590.819ZM392.722 566.38C398.388 563.056 405.812 561.492 413.236 561.492C420.661 561.492 428.085 563.251 433.556 566.38C438.831 569.508 441.762 573.418 441.762 577.524C441.762 581.63 438.831 585.736 433.556 588.668C422.419 595.12 404.054 595.12 392.722 588.668C387.446 585.54 384.516 581.63 384.516 577.524C384.516 573.418 387.446 569.312 392.722 566.38ZM337.625 552.303C329.809 552.303 321.994 550.543 315.937 547.219C309.881 543.7 306.559 539.008 306.559 533.924C306.559 528.841 309.881 524.149 315.937 520.63C327.856 513.787 347.394 513.787 359.312 520.63C365.369 524.149 368.69 528.841 368.69 533.924C368.69 539.008 365.369 543.7 359.312 547.219C353.255 550.543 345.44 552.303 337.625 552.303ZM337.625 517.892C330.2 517.892 322.776 519.456 317.11 522.78C311.835 525.713 308.904 529.819 308.904 533.924C308.904 538.03 311.835 541.94 317.11 545.069C328.442 551.521 346.808 551.521 357.944 545.069C363.219 542.136 366.15 538.03 366.15 533.924C366.15 529.819 363.219 525.908 357.944 522.78C352.278 519.456 344.854 517.892 337.625 517.892ZM241.302 478.985C246.968 475.662 254.393 474.097 261.817 474.097C269.242 474.097 276.666 475.662 282.137 478.985C287.412 482.114 290.343 486.024 290.343 490.13C290.343 494.235 287.412 498.341 282.137 501.274C271 507.726 252.634 507.726 241.302 501.274C236.027 498.146 233.096 494.235 233.096 490.13C233.096 486.024 236.027 481.918 241.302 478.985ZM784.458 624.056H822.557V603.136H784.458V624.056ZM945.201 527.77L1055.4 601.851L1056.52 600.191L946.317 526.111L945.201 527.77Z" fill="url(#paint0_linear)"/>
<path d="M612.572 549.193C606.375 552.734 598.761 552.705 592.592 549.116L446.963 464.405C440.836 460.84 433.279 460.786 427.101 464.261L338.015 514.373C337.785 514.527 337.525 514.59 337.282 514.574C336.565 514.529 336.054 513.576 336.328 512.912V512.912C336.524 512.436 337.069 512.291 337.518 512.038L427.095 461.598C433.276 458.117 440.839 458.171 446.969 461.74L592.589 546.499C598.76 550.091 606.377 550.121 612.576 546.578L734.246 477.03C734.481 476.873 734.747 476.811 734.994 476.83C735.701 476.884 736.2 477.819 735.939 478.478V478.478C735.746 478.966 735.189 479.116 734.733 479.377L612.572 549.193Z" fill="url(#paint1_linear)"/>
</g>
<g opacity="0.5">
<path opacity="0.5" d="M750.854 330.004L1060.73 509.094C1063.46 510.658 1063.46 514.569 1060.73 516.133L829.592 650.059C821.777 654.556 812.203 654.556 804.388 650.059L507.215 478.399C504.48 476.835 504.48 472.924 507.215 471.36L750.854 330.004Z" fill="#242993"/>
</g>
<path d="M760.427 251.408L801.848 5.45223L798.527 4.08364L803.606 1.15094C804.583 0.564401 805.951 0.564405 807.514 1.34646L1138.49 192.558C1141.22 194.122 1143.18 198.228 1142.79 200.965L1100.97 448.876C1100.78 450.245 1100.19 451.027 1099.22 451.418L1094.33 454.155L1093.55 449.658H1093.75L764.726 259.619C761.991 258.251 760.037 254.145 760.427 251.408Z" fill="url(#paint2_linear)"/>
<path d="M1136.53 199.401L1142 197.055C1142.59 198.424 1142.98 199.988 1142.79 201.161L1100.97 449.072C1100.78 450.44 1100.19 451.222 1099.22 451.613L1094.33 454.351L1093.55 449.854H1093.75L1077.14 440.274L1136.53 199.401Z" fill="url(#paint3_linear)"/>
<path d="M759.45 262.748L1090.42 453.96C1092.96 455.524 1095.11 454.546 1095.7 452.004L1137.51 204.094C1137.9 201.356 1135.95 197.251 1133.21 195.687L802.239 4.47468C799.699 2.91058 797.55 3.88814 796.963 6.42982L755.152 254.341C754.761 257.273 756.911 261.184 759.45 262.748Z" fill="#242993"/>
<g opacity="0.51">
<path opacity="0.51" d="M806.537 20.3113L1125.59 204.68L1085.93 438.123L767.07 253.95L806.537 20.3113Z" fill="#2C608A"/>
</g>
<path d="M551.566 380.056L569.541 389.44L750.658 284.841C753.784 283.081 759.059 283.277 762.576 285.427L1074.99 465.886C1077.92 464.126 1091.6 457.674 1091.6 457.674L1084.95 474.879C1084.76 475.662 1084.17 476.444 1083.19 476.835L892.309 587.104C889.182 588.864 883.907 588.668 880.39 586.518L560.749 401.758C559.381 400.976 558.404 399.998 558.013 398.825L551.566 380.056Z" fill="url(#paint4_linear)"/>
<path d="M554.301 382.988L881.954 572.245C885.471 574.396 890.941 574.591 894.067 572.832L1089.64 459.825C1092.77 458.065 1092.38 454.937 1088.86 452.786L761.209 263.53C757.692 261.379 752.221 261.184 749.095 262.943L553.52 375.95C550.394 377.905 550.785 381.033 554.301 382.988Z" fill="url(#paint5_linear)"/>
<path d="M980.621 531.383V527.864C980.621 527.473 980.425 527.277 980.23 527.473L967.53 534.707C967.335 534.902 967.139 535.293 967.139 535.684V539.203C967.139 539.594 967.335 539.79 967.53 539.594L980.23 532.36C980.425 532.165 980.621 531.774 980.621 531.383Z" fill="#2859CB"/>
<path d="M961.669 542.331V538.812C961.669 538.421 961.474 538.226 961.278 538.421L948.579 545.655C948.383 545.851 948.188 546.242 948.188 546.633V550.152C948.188 550.543 948.383 550.739 948.579 550.543L961.278 543.309C961.474 543.114 961.669 542.723 961.669 542.331Z" fill="#2859CB"/>
<path d="M1038.45 449.267L766.289 292.075C764.53 291.097 762.186 291.097 760.427 292.075L663.519 348.187C662.151 348.969 662.151 350.924 663.519 351.902L935.683 509.094C937.442 510.072 939.786 510.072 941.545 509.094L1038.65 452.982C1040.02 452.2 1040.02 450.049 1038.45 449.267Z" fill="#ADC8FF"/>
<path d="M1038.45 452.982L1037.48 453.569L766.289 296.767C764.53 295.789 762.186 295.789 760.427 296.767L664.496 352.293L663.519 351.706C662.151 350.924 662.151 348.969 663.519 347.991L760.427 291.879C762.186 290.902 764.53 290.902 766.289 291.879L1038.45 449.072C1040.02 450.049 1040.02 452.2 1038.45 452.982Z" fill="#91AFFF"/>
<path d="M753.198 306.347L989.608 442.815L1000.16 436.754L763.554 300.286L753.198 306.347Z" fill="#242993"/>
<path d="M727.408 321.206L949.164 449.267L959.715 443.206L737.763 315.145L727.408 321.206Z" fill="#242993"/>
<path d="M710.606 330.786L971.633 481.722L982.184 475.661L720.961 324.725L710.606 330.786Z" fill="#242993"/>
<path d="M693.803 340.562L954.831 491.498L965.381 485.437L704.353 334.501L693.803 340.562Z" fill="#242993"/>
<path d="M677 350.338L938.028 501.078L948.579 495.017L687.551 344.277L677 350.338Z" fill="#242993"/>
<path d="M1003.87 451.222L1014.42 457.283L1024.97 451.222L1014.42 445.161L1003.87 451.222Z" fill="#242993"/>
<path d="M966.749 459.434L988.631 472.142L999.182 466.081L977.299 453.373L966.749 459.434Z" fill="#242993"/>
<path d="M755.738 487.392L682.275 444.966C679.344 443.402 679.344 440.665 682.275 438.905L732.488 409.969C735.419 408.405 739.912 408.405 742.843 409.969L816.306 452.395C819.237 453.96 819.237 456.697 816.306 458.456L766.093 487.392C763.358 489.152 758.669 489.152 755.738 487.392Z" fill="url(#paint6_linear)"/>
<path d="M816.306 454.937L742.843 412.511C739.912 410.947 735.419 410.947 732.488 412.511L682.275 441.447C681.298 442.033 680.908 442.62 680.517 443.206C679.735 441.838 680.321 440.078 682.275 438.905L732.488 409.969C735.419 408.405 739.912 408.405 742.843 409.969L816.306 452.395C818.26 453.569 818.846 455.133 818.064 456.697C817.869 455.915 817.283 455.328 816.306 454.937Z" fill="#91AFFF"/>
<g opacity="0.11">
<g opacity="0.11">
<path opacity="0.11" d="M760.623 263.334L1088.28 452.591C1091.79 454.742 1097.26 454.937 1100.39 453.177L1295.96 340.171C1299.09 338.411 1298.7 335.283 1295.18 333.132L967.53 143.876C964.013 141.725 958.543 141.529 955.417 143.289L759.841 256.296C756.715 258.055 757.106 261.184 760.623 263.334Z" fill="url(#paint7_linear)"/>
<path opacity="0.11" d="M1089.25 297.158L1015.79 254.732C1012.86 253.167 1012.86 250.43 1015.79 248.671L1066 219.735C1068.93 218.171 1073.43 218.171 1076.36 219.735L1149.82 262.161C1152.75 263.725 1152.75 266.462 1149.82 268.222L1099.61 297.158C1096.87 298.918 1092.18 298.918 1089.25 297.158Z" fill="url(#paint8_linear)"/>
<path opacity="0.11" d="M1149.82 264.703L1076.36 222.276C1073.43 220.712 1068.93 220.712 1066 222.276L1015.79 251.212C1014.81 251.799 1014.42 252.385 1014.03 252.972C1013.25 251.603 1013.84 249.844 1015.79 248.671L1066 219.735C1068.93 218.171 1073.43 218.171 1076.36 219.735L1149.82 262.161C1151.77 263.334 1152.36 264.898 1151.58 266.462C1151.38 265.68 1150.8 265.094 1149.82 264.703Z" fill="#91AFFF"/>
<g opacity="0.11">
<path opacity="0.11" d="M1182.06 363.437L909.893 206.244C908.134 205.267 905.79 205.267 904.031 206.244L807.123 262.357C805.755 263.139 805.755 265.094 807.123 266.071L1079.29 423.264C1081.05 424.242 1083.39 424.242 1085.15 423.264L1182.25 367.152C1183.62 366.37 1183.62 364.219 1182.06 363.437Z" fill="#ADC8FF"/>
<path opacity="0.11" d="M1182.06 367.152L1181.08 367.738L909.893 210.937C908.134 209.959 905.79 209.959 904.031 210.937L808.1 266.462L807.123 265.876C805.755 265.094 805.755 263.139 807.123 262.161L904.031 206.244C905.79 205.267 908.134 205.267 909.893 206.244L1182.06 363.437C1183.62 364.219 1183.62 366.37 1182.06 367.152Z" fill="#91AFFF"/>
<g opacity="0.11">
<path opacity="0.11" d="M832.523 258.446L1069.71 395.501L1060.14 400.975L823.144 263.921L832.523 258.446Z" fill="#242993"/>
<path opacity="0.11" d="M857.531 243.978L1082.8 374.19L1073.43 379.665L847.958 249.453L857.531 243.978Z" fill="#242993"/>
<path opacity="0.11" d="M1099.8 383.966L1120.71 396.088L1111.33 401.562L1090.23 389.44L1099.8 383.966Z" fill="#242993"/>
<path opacity="0.11" d="M1081.05 402.149L1095.7 410.556L1086.32 416.03L1071.67 407.623L1081.05 402.149Z" fill="#242993"/>
<path opacity="0.11" d="M873.162 234.985L1136.34 387.094L1126.96 392.568L863.784 240.459L873.162 234.985Z" fill="#242993"/>
<path opacity="0.11" d="M888.792 225.991L1152.16 378.1L1142.59 383.575L879.414 231.465L888.792 225.991Z" fill="#242993"/>
<path opacity="0.11" d="M904.422 216.998L1167.79 369.107L1158.42 374.386L895.044 222.276L904.422 216.998Z" fill="#242993"/>
</g>
</g>
</g>
</g>
<path opacity="0.42" d="M912.433 435.386L982.965 391.786L824.317 300.286L749.486 350.533L912.433 435.386Z" fill="url(#paint9_radial)"/>
<path opacity="0.42" d="M982.965 391.786L999.182 289.728L850.302 204.289V314.95L982.965 391.786Z" fill="url(#paint10_radial)"/>
<path d="M834.672 154.629L850.498 145.635C850.693 145.44 850.889 145.44 851.279 145.635L1048.61 259.619C1049.2 260.01 1049.79 260.988 1049.79 261.77V299.113C1049.79 299.504 1049.59 299.895 1049.39 299.895L1033.57 309.084L1033.37 291.097L851.279 185.911C850.693 185.52 850.107 184.542 850.107 183.76V171.052L834.672 154.629Z" fill="url(#paint11_linear)"/>
<path d="M835.258 195.1L1032.59 309.084C1033.18 309.475 1033.76 309.084 1033.76 308.107V270.764C1033.76 269.982 1033.18 268.808 1032.59 268.613L835.258 154.629C834.672 154.238 834.086 154.629 834.086 155.606V192.949C834.086 193.731 834.672 194.709 835.258 195.1Z" fill="url(#paint12_linear)"/>
<path opacity="0.6" d="M862.611 187.475L1016.38 277.998C1011.69 282.103 1007.19 286.796 1003.09 291.879L848.153 202.334C852.451 196.86 857.336 191.776 862.611 187.475Z" fill="#242993"/>
<path d="M840.924 183.76L1027.12 291.292C1027.51 291.488 1027.9 291.292 1027.9 290.706V281.321C1027.9 280.735 1027.51 280.148 1027.12 279.757L840.924 172.225C840.533 172.029 840.143 172.225 840.143 172.812V182.196C840.143 182.978 840.533 183.565 840.924 183.76Z" fill="#242993"/>
<path d="M840.924 172.42L844.636 174.571V179.654C844.636 180.241 845.027 180.828 845.418 181.219L1027.71 286.6V290.901C1027.71 291.488 1027.32 291.684 1026.93 291.488L840.729 183.956C840.338 183.76 839.947 182.978 839.947 182.392V173.007C840.143 172.42 840.533 172.029 840.924 172.42Z" fill="#4553C7"/>
<path opacity="0.96" d="M736.396 587.3L581.459 497.754C601.388 486.219 618.191 460.998 623.466 436.754C625.615 426.979 631.477 418.376 640.269 413.488L757.301 345.841C789.93 327.071 811.031 293.052 813.18 255.514C815.134 223.84 838.97 192.558 857.727 181.805L1012.66 271.35C994.297 281.908 974.173 311.626 971.829 342.713C969.093 380.251 948.579 414.27 915.95 433.235L795.205 503.033C786.608 508.117 780.552 516.524 778.403 526.299C773.127 550.543 756.325 575.764 736.396 587.3Z" fill="url(#paint13_linear)"/>
<path opacity="0.8" d="M857.727 182.001L1012.66 271.546C1011.49 272.328 1010.12 273.11 1008.95 273.892L854.21 184.347C855.187 183.565 856.359 182.783 857.727 182.001Z" fill="#4553C7"/>
<path d="M709.238 259.228H758.669V364.806C758.669 368.52 756.324 372.04 751.44 374.972C741.866 380.642 726.236 380.642 716.467 374.972C711.582 372.235 709.238 368.52 709.238 364.806V259.228V259.228Z" fill="url(#paint14_linear)"/>
<path d="M709.238 259.228H758.669V364.806C758.669 368.52 756.324 372.04 751.44 374.972C741.866 380.642 726.236 380.642 716.467 374.972C711.582 372.235 709.238 368.52 709.238 364.806V259.228V259.228Z" fill="url(#paint15_linear)"/>
<path d="M734.052 273.501C747.648 273.501 758.67 267.111 758.67 259.228C758.67 251.346 747.648 244.956 734.052 244.956C720.456 244.956 709.434 251.346 709.434 259.228C709.434 267.111 720.456 273.501 734.052 273.501Z" fill="url(#paint16_linear)"/>
<path opacity="0.3" d="M722.719 265.68C728.971 269.2 739.131 269.2 745.188 265.68C751.44 262.161 751.44 256.296 745.188 252.581C738.936 249.062 728.776 249.062 722.719 252.581C716.467 256.296 716.467 262.161 722.719 265.68Z" fill="url(#paint17_linear)"/>
<path opacity="0.5" d="M716.662 268.222C726.236 273.892 741.866 273.892 751.635 268.222C756.129 265.485 758.669 262.161 758.865 258.642C759.06 262.552 756.715 266.267 751.635 269.2C742.062 274.869 726.431 274.869 716.662 269.2C711.583 266.267 709.238 262.357 709.433 258.642C709.629 262.161 711.973 265.68 716.662 268.222Z" fill="white"/>
<path d="M709.238 236.353H758.669V245.933C758.669 249.648 756.324 253.167 751.44 256.1C741.866 261.77 726.236 261.77 716.467 256.1C711.582 253.363 709.238 249.648 709.238 245.933V236.353V236.353Z" fill="url(#paint18_linear)"/>
<path d="M709.238 236.353H758.669V245.933C758.669 249.648 756.324 253.167 751.44 256.1C741.866 261.77 726.236 261.77 716.467 256.1C711.582 253.363 709.238 249.648 709.238 245.933V236.353V236.353Z" fill="url(#paint19_linear)"/>
<path d="M716.663 246.324C726.237 251.994 741.867 251.994 751.636 246.324C761.21 240.655 761.21 231.661 751.636 226.187C742.063 220.517 726.432 220.517 716.663 226.187C706.894 231.857 706.894 240.85 716.663 246.324Z" fill="url(#paint20_linear)"/>
<path opacity="0.5" d="M716.662 245.347C726.236 251.017 741.866 251.017 751.635 245.347C756.129 242.61 758.669 239.286 758.865 235.767C759.06 239.677 756.715 243.392 751.635 246.324C742.062 251.994 726.431 251.994 716.662 246.324C711.583 243.392 709.238 239.482 709.433 235.767C709.629 239.286 711.973 242.61 716.662 245.347Z" fill="white"/>
<path d="M750.268 318.078H799.699V388.463C799.699 392.177 797.354 395.697 792.47 398.629C782.896 404.299 767.266 404.299 757.497 398.629C752.612 395.892 750.268 392.177 750.268 388.463V318.078V318.078Z" fill="url(#paint21_linear)"/>
<path d="M750.268 318.078H799.699V388.463C799.699 392.177 797.354 395.697 792.47 398.629C782.896 404.299 767.266 404.299 757.497 398.629C752.612 395.892 750.268 392.177 750.268 388.463V318.078V318.078Z" fill="url(#paint22_linear)"/>
<path d="M757.497 328.049C767.071 333.719 782.701 333.719 792.47 328.049C802.044 322.379 802.044 313.386 792.47 307.911C782.896 302.241 767.266 302.241 757.497 307.911C747.728 313.581 747.728 322.575 757.497 328.049Z" fill="url(#paint23_linear)"/>
<path opacity="0.5" d="M757.497 327.071C767.071 332.741 782.701 332.741 792.47 327.071C796.964 324.334 799.504 321.011 799.699 317.491C799.894 321.402 797.55 325.116 792.47 328.049C782.896 333.719 767.266 333.719 757.497 328.049C752.417 325.116 750.072 321.206 750.268 317.491C750.463 321.011 752.808 324.334 757.497 327.071Z" fill="white"/>
<path d="M791.102 305.565H840.533V411.924C840.533 415.639 838.189 419.158 833.304 422.091C823.73 427.761 808.1 427.761 798.331 422.091C793.447 419.354 791.102 415.639 791.102 411.924V305.565V305.565Z" fill="url(#paint24_linear)"/>
<path d="M791.102 305.565H840.533V411.924C840.533 415.639 838.189 419.158 833.304 422.091C823.73 427.761 808.1 427.761 798.331 422.091C793.447 419.354 791.102 415.639 791.102 411.924V305.565V305.565Z" fill="url(#paint25_linear)"/>
<path d="M798.331 315.536C807.905 321.206 823.535 321.206 833.304 315.536C842.878 309.866 842.878 300.873 833.304 295.398C823.73 289.728 808.1 289.728 798.331 295.398C788.562 301.068 788.562 310.062 798.331 315.536Z" fill="url(#paint26_linear)"/>
<path opacity="0.5" d="M798.331 314.559C807.905 320.229 823.535 320.229 833.304 314.559C837.798 311.821 840.338 308.498 840.533 304.978C840.728 308.889 838.384 312.603 833.304 315.536C823.73 321.206 808.1 321.206 798.331 315.536C793.251 312.603 790.907 308.693 791.102 304.978C791.297 308.498 793.642 311.821 798.331 314.559Z" fill="white"/>
<path d="M831.937 348.187H881.368V435.386C881.368 439.101 879.023 442.62 874.139 445.552C864.565 451.222 848.935 451.222 839.166 445.552C834.281 442.815 831.937 439.101 831.937 435.386V348.187V348.187Z" fill="url(#paint27_linear)"/>
<path d="M831.937 348.187H881.368V435.386C881.368 439.101 879.023 442.62 874.139 445.552C864.565 451.222 848.935 451.222 839.166 445.552C834.281 442.815 831.937 439.101 831.937 435.386V348.187V348.187Z" fill="url(#paint28_linear)"/>
<path d="M839.166 358.354C848.739 364.023 864.37 364.023 874.139 358.354C883.712 352.684 883.712 343.69 874.139 338.216C864.565 332.546 848.935 332.546 839.166 338.216C829.397 343.69 829.397 352.879 839.166 358.354Z" fill="url(#paint29_linear)"/>
<path opacity="0.5" d="M839.166 357.376C848.739 363.046 864.37 363.046 874.139 357.376C878.632 354.639 881.172 351.315 881.368 347.796C881.563 351.706 879.218 355.421 874.139 358.354C864.565 364.023 848.935 364.023 839.166 358.354C834.086 355.421 831.741 351.511 831.937 347.796C832.132 351.315 834.476 354.639 839.166 357.376Z" fill="white"/>
<path d="M872.771 393.35H922.202V459.043C922.202 462.758 919.858 466.277 914.973 469.21C905.399 474.879 889.769 474.879 880 469.21C875.116 466.472 872.771 462.758 872.771 459.043V393.35V393.35Z" fill="url(#paint30_linear)"/>
<path d="M872.771 393.35H922.202V459.043C922.202 462.758 919.858 466.277 914.973 469.21C905.399 474.879 889.769 474.879 880 469.21C875.116 466.472 872.771 462.758 872.771 459.043V393.35V393.35Z" fill="url(#paint31_linear)"/>
<path d="M880 403.517C889.574 409.187 905.204 409.187 914.973 403.517C924.547 397.847 924.547 388.854 914.973 383.379C905.4 377.709 889.769 377.709 880 383.379C870.231 388.854 870.231 397.847 880 403.517Z" fill="url(#paint32_linear)"/>
<path opacity="0.5" d="M880 402.344C889.574 408.014 905.204 408.014 914.973 402.344C919.467 399.607 922.007 396.283 922.202 392.764C922.398 396.674 920.053 400.389 914.973 403.322C905.4 408.992 889.769 408.992 880 403.322C874.92 400.389 872.576 396.479 872.771 392.764C872.966 396.283 875.311 399.802 880 402.344Z" fill="white"/>
<path d="M1095.11 216.215L1100 219.148L1100.58 215.629L1095.7 212.696L1095.11 216.215Z" fill="#42FFFF"/>
<path d="M1091.4 240.068L1096.09 243.001L1099.41 222.472L1094.72 219.344L1091.4 240.068Z" fill="#42FFFF"/>
<path d="M1089.45 251.408L1094.33 254.536L1095.7 246.325L1090.81 243.196L1089.45 251.408Z" fill="#42FFFF"/>
<path d="M1087.69 263.334L1092.38 266.267L1093.75 258.055L1089.06 255.123L1087.69 263.334Z" fill="#42FFFF"/>
<path d="M1086.32 223.058L1091.01 225.991L1092.38 217.975L1087.49 214.847L1086.32 223.058Z" fill="#42FFFF"/>
<path d="M1083.78 238.699L1088.47 241.828L1090.42 229.706L1085.74 226.578L1083.78 238.699Z" fill="#42FFFF"/>
<path d="M1081.44 253.167L1086.13 256.1L1087.88 245.738L1083 242.805L1081.44 253.167Z" fill="#42FFFF"/>
<path d="M1085.73 275.065L1090.62 278.193L1091.79 269.982L1087.1 266.853L1085.73 275.065Z" fill="#42FFFF"/>
<path d="M1088.08 211.719L1092.77 214.651L1093.36 211.132L1088.67 208.199L1088.08 211.719Z" fill="#42FFFF"/>
<path d="M1080.26 284.254L1088.67 289.533L1089.25 286.209L1080.85 280.93L1080.26 284.254Z" fill="#42FFFF"/>
<path opacity="0.2" d="M745.969 242.61C739.326 246.325 728.776 246.325 722.133 242.61C715.49 238.895 715.49 232.639 722.133 228.924C728.776 225.209 739.326 225.209 745.969 228.924C752.417 232.639 752.417 238.895 745.969 242.61Z" fill="#242993"/>
<path d="M702.595 222.667L698.296 212.501L699.859 212.11L702.204 214.651L702.595 222.667Z" fill="#DD821F"/>
<path d="M770.782 193.34L766.484 183.369C766.484 183.369 765.116 194.709 765.312 194.904C765.312 194.904 770.782 193.34 770.782 193.34Z" fill="#FFD85A"/>
<path d="M744.406 226.382C725.454 234.398 704.939 228.142 698.297 212.501C691.654 196.86 701.618 177.699 720.57 169.683C739.522 161.667 760.037 167.924 766.68 183.565C773.127 199.206 763.163 218.366 744.406 226.382Z" fill="#FFD85A"/>
<path d="M748.681 236.418C767.576 228.456 777.563 209.336 770.988 193.712C764.413 178.089 743.766 171.878 724.871 179.84C705.977 187.803 695.99 206.923 702.564 222.546C709.139 238.17 729.786 244.381 748.681 236.418Z" fill="#FFD85A"/>
<path d="M703.962 198.619C700.055 206.244 699.273 214.847 702.595 222.667C709.238 238.308 729.752 244.565 748.704 236.549C758.083 232.639 765.116 225.991 769.219 218.366L703.962 198.619Z" fill="#DD821F"/>
<path d="M748.151 235.164C766.151 227.579 775.65 209.33 769.368 194.403C763.086 179.476 743.402 173.524 725.403 181.109C707.403 188.694 697.904 206.944 704.186 221.871C710.467 236.798 730.151 242.749 748.151 235.164Z" fill="#F9BF30"/>
<path d="M745.952 229.948C760.471 223.829 768.134 209.108 763.066 197.067C757.999 185.026 742.121 180.225 727.602 186.343C713.083 192.461 705.421 207.183 710.488 219.224C715.556 231.265 731.433 236.066 745.952 229.948Z" fill="#F2B42A"/>
<path d="M762.967 197.055C762.772 196.469 762.576 196.078 762.186 195.687C766.093 207.417 758.474 221.103 744.602 226.969C730.73 232.834 715.685 228.728 709.824 217.78C710.019 218.366 710.215 218.757 710.41 219.344C715.49 231.27 731.316 236.158 745.774 230.097C760.427 223.84 768.047 209.177 762.967 197.055Z" fill="#FFD85A"/>
<path d="M742.452 207.808L735.028 205.658C730.339 208.981 721.742 215.433 714.904 220.517C719.202 225.014 725.845 227.36 732.879 226.969L742.452 207.808Z" fill="#FFD85A"/>
<path d="M740.499 225.405C741.475 225.209 742.257 224.818 743.234 224.427C749.486 221.69 754.371 217.193 757.301 212.11L745.188 208.395L740.499 225.405Z" fill="#FFD85A"/>
<path d="M727.213 203.116L713.341 198.815C711.192 203.116 709.628 207.417 710.605 211.914L727.213 203.116Z" fill="#FFD85A"/>
<path d="M727.408 189.626C741.866 183.565 757.692 188.257 762.772 200.379C763.749 202.725 764.335 205.267 764.335 208.004C764.921 204.485 764.53 200.77 762.967 197.251C757.887 185.324 742.062 180.437 727.604 186.497C716.076 191.385 708.847 201.747 709.042 211.719C710.215 202.725 717.053 193.927 727.408 189.626Z" fill="#DD821F"/>
<path d="M698.296 212.501C699.273 214.847 700.641 216.997 702.204 218.757C702.009 216.215 701.422 212.305 701.422 212.305L701.618 205.658L702.985 203.116L705.525 199.01L700.445 187.084C695.952 195.1 694.779 204.289 698.296 212.501Z" fill="#DD821F"/>
<path d="M765.116 186.302L762.772 180.632C762.772 180.437 762.772 180.046 762.967 180.046H763.162C763.358 180.046 763.749 180.045 763.749 180.241L766.093 185.911C766.093 186.106 766.093 186.497 765.898 186.497H765.702C765.507 186.693 765.312 186.497 765.116 186.302Z" fill="#DD821F"/>
<path d="M759.45 181.414L756.519 174.571C756.324 174.376 756.519 173.985 756.715 173.985L757.106 173.789C757.301 173.594 757.692 173.789 757.692 173.985L760.622 180.828C760.818 181.023 760.622 181.414 760.427 181.414L760.036 181.61C759.841 181.805 759.645 181.805 759.45 181.414Z" fill="#DD821F"/>
<path d="M753.002 178.09L750.072 171.247C749.876 170.856 750.072 170.661 750.462 170.465L751.049 170.27C751.439 170.074 751.635 170.27 751.83 170.661L754.761 177.504C754.956 177.895 754.761 178.09 754.37 178.286L753.784 178.481C753.393 178.481 753.002 178.286 753.002 178.09Z" fill="#DD821F"/>
<path d="M744.797 176.526L741.671 169.097C741.476 168.706 741.671 168.51 742.062 168.315L742.648 168.119C743.039 167.924 743.234 168.119 743.429 168.51L746.555 175.94C746.751 176.331 746.555 176.526 746.165 176.722L745.578 176.917C745.383 176.917 744.992 176.722 744.797 176.526Z" fill="#DD821F"/>
<path d="M737.372 176.331L734.051 168.315C733.855 167.924 734.051 167.728 734.442 167.533L735.028 167.337C735.418 167.142 735.614 167.337 735.809 167.728L739.131 175.744C739.326 176.135 739.131 176.331 738.74 176.526L738.154 176.722C737.763 176.917 737.372 176.722 737.372 176.331Z" fill="#DD821F"/>
<path d="M730.339 177.504L727.017 169.683C726.822 169.292 727.017 169.097 727.408 168.901L727.994 168.706C728.385 168.51 728.58 168.706 728.776 169.097L732.097 176.917C732.293 177.308 732.097 177.504 731.706 177.699L731.12 177.895C730.73 177.895 730.534 177.699 730.339 177.504Z" fill="#DD821F"/>
<path d="M723.696 179.654L720.374 171.834C720.179 171.443 720.374 171.247 720.765 171.052L721.351 170.856C721.742 170.661 721.937 170.856 722.133 171.247L725.454 179.068C725.649 179.459 725.454 179.654 725.063 179.85L724.477 180.046C724.282 180.046 723.891 180.045 723.696 179.654Z" fill="#DD821F"/>
<path d="M717.639 182.587L714.513 174.962C714.318 174.571 714.513 174.376 714.904 174.18L715.49 173.985C715.881 173.789 716.076 173.985 716.271 174.376L719.397 182.001C719.593 182.392 719.397 182.587 719.007 182.783L718.421 182.978C718.03 183.174 717.639 182.978 717.639 182.587Z" fill="#DD821F"/>
<path d="M711.777 186.693L708.651 179.263C708.456 178.872 708.651 178.677 709.042 178.481L709.628 178.286C710.019 178.09 710.214 178.286 710.41 178.677L713.536 186.106C713.731 186.497 713.536 186.693 713.145 186.888L712.559 187.084C712.363 187.279 711.973 187.084 711.777 186.693Z" fill="#DD821F"/>
<path d="M706.698 192.558L703.376 184.738C703.181 184.347 703.376 184.151 703.767 183.956L704.353 183.76C704.744 183.565 704.939 183.76 705.135 184.151L708.456 191.972C708.651 192.363 708.456 192.558 708.065 192.754L707.479 192.949C707.284 192.949 706.893 192.754 706.698 192.558Z" fill="#DD821F"/>
<path opacity="0.2" d="M827.638 311.235C820.995 314.95 810.444 314.95 803.802 311.235C797.159 307.52 797.159 301.264 803.802 297.549C810.444 293.834 820.995 293.834 827.638 297.549C834.281 301.264 834.281 307.325 827.638 311.235Z" fill="#242993"/>
<path d="M801.066 304.001L791.688 298.136L793.056 296.962L796.377 297.745L801.066 304.001Z" fill="#DD821F"/>
<path d="M840.533 241.241L831.35 235.376L836.821 245.542C837.016 245.542 840.533 241.241 840.533 241.241Z" fill="#FFD85A"/>
<path d="M837.417 283.241C848.449 265.948 845.817 244.534 831.537 235.412C817.257 226.29 796.738 232.913 785.706 250.206C774.674 267.499 777.306 288.913 791.586 298.035C805.866 307.157 826.385 300.534 837.417 283.241Z" fill="#FFD85A"/>
<path d="M846.872 289.155C857.904 271.862 855.271 250.449 840.992 241.326C826.712 232.204 806.193 238.828 795.16 256.121C784.128 273.414 786.761 294.827 801.041 303.95C815.32 313.072 835.84 306.448 846.872 289.155Z" fill="#FFD85A"/>
<path d="M788.562 283.277C789.734 291.879 793.837 299.309 801.066 303.805C815.329 312.995 835.844 306.347 846.981 289.142C852.451 280.539 854.601 270.959 853.624 262.357L788.562 283.277Z" fill="#DD821F"/>
<path d="M845.809 288.555C835.258 304.979 815.72 311.43 802.044 302.632C788.367 293.834 785.827 273.501 796.378 256.882C806.928 240.459 826.466 234.007 840.143 242.805C853.624 251.408 856.359 271.937 845.809 288.555Z" fill="#F9BF30"/>
<path d="M840.941 285.365C849.419 272.077 847.369 255.605 836.364 248.575C825.359 241.544 809.565 246.617 801.087 259.905C792.61 273.193 794.659 289.665 805.665 296.696C816.67 303.726 832.464 298.653 840.941 285.365Z" fill="#F2B42A"/>
<path d="M836.235 248.671C835.844 248.475 835.258 248.084 834.867 247.889C844.636 255.318 846.199 270.959 838.189 283.668C830.178 296.376 815.329 301.459 804.388 295.789C804.779 296.18 805.169 296.376 805.756 296.767C816.697 303.805 832.523 298.722 840.924 285.427C849.325 272.132 847.176 255.709 836.235 248.671Z" fill="#FFD85A"/>
<path d="M825.489 269.004L818.065 271.35C816.111 276.825 812.594 286.796 809.859 295.007C815.915 296.18 822.754 294.421 828.42 290.119L825.489 269.004Z" fill="#FFD85A"/>
<path d="M833.89 284.841C834.476 284.059 835.063 283.277 835.453 282.494C839.165 276.629 840.533 270.177 839.947 264.312L827.833 268.222L833.89 284.841Z" fill="#FFD85A"/>
<path d="M810.249 273.892L796.377 278.389C796.963 283.081 798.136 287.578 801.652 290.706L810.249 273.892Z" fill="#FFD85A"/>
<path d="M802.825 262.748C811.226 249.453 827.052 244.369 837.993 251.408C840.142 252.776 842.096 254.732 843.464 256.687C841.901 253.363 839.361 250.626 836.235 248.671C825.293 241.632 809.468 246.716 801.066 260.01C794.228 270.568 794.228 283.081 800.089 291.293C795.986 283.277 796.768 272.132 802.825 262.748Z" fill="#DD821F"/>
<path d="M791.688 298.136C793.837 299.504 796.182 300.482 798.527 301.264C796.768 299.309 794.228 296.376 794.228 296.376L790.711 290.902L790.32 287.969L790.125 283.081L779.184 276.043C779.965 285.036 784.264 293.248 791.688 298.136Z" fill="#DD821F"/>
<path d="M831.936 238.504L826.856 235.18C826.661 234.985 826.661 234.789 826.661 234.594V234.398C826.856 234.203 827.052 234.203 827.247 234.203L832.327 237.526C832.522 237.722 832.522 237.917 832.522 238.113V238.308C832.522 238.504 832.132 238.504 831.936 238.504Z" fill="#DD821F"/>
<path d="M824.512 237.722L818.26 233.616C818.064 233.421 817.869 233.225 818.064 232.834L818.26 232.639C818.455 232.443 818.65 232.248 819.041 232.443L825.293 236.549C825.489 236.744 825.684 236.94 825.489 237.331L825.293 237.526C825.098 237.917 824.707 237.917 824.512 237.722Z" fill="#DD821F"/>
<path d="M817.283 238.7L811.031 234.789C810.835 234.594 810.64 234.203 810.835 234.007L811.226 233.616C811.422 233.421 811.812 233.225 812.008 233.421L818.26 237.331C818.455 237.526 818.651 237.917 818.455 238.113L818.065 238.504C817.869 238.699 817.478 238.7 817.283 238.7Z" fill="#DD821F"/>
<path d="M809.663 242.023L802.825 237.722C802.63 237.526 802.434 237.135 802.63 236.94L803.02 236.549C803.216 236.353 803.606 236.158 803.802 236.353L810.64 240.655C810.836 240.85 811.031 241.241 810.835 241.437L810.445 241.828C810.249 242.023 809.859 242.219 809.663 242.023Z" fill="#DD821F"/>
<path d="M803.411 246.129L796.182 241.437C795.986 241.241 795.791 240.85 795.986 240.655L796.377 240.264C796.573 240.068 796.963 239.873 797.159 240.068L804.388 244.76C804.583 244.956 804.779 245.347 804.583 245.542L804.192 245.934C804.192 246.325 803.802 246.325 803.411 246.129Z" fill="#DD821F"/>
<path d="M798.331 251.017L791.298 246.52C791.102 246.325 790.907 245.933 791.102 245.738L791.493 245.347C791.688 245.151 792.079 244.956 792.274 245.151L799.308 249.648C799.503 249.844 799.699 250.235 799.503 250.43L799.113 250.821C798.917 251.212 798.527 251.212 798.331 251.017Z" fill="#DD821F"/>
<path d="M794.228 256.491L786.999 251.994C786.803 251.799 786.608 251.408 786.803 251.212L787.194 250.821C787.39 250.626 787.78 250.43 787.976 250.626L795.205 255.123C795.4 255.318 795.596 255.709 795.4 255.905L795.009 256.296C794.814 256.687 794.423 256.687 794.228 256.491Z" fill="#DD821F"/>
<path d="M790.711 262.552L783.678 258.055C783.482 257.86 783.287 257.469 783.482 257.273L783.873 256.882C784.068 256.687 784.459 256.491 784.655 256.687L791.688 261.184C791.884 261.379 792.079 261.77 791.884 261.966L791.493 262.357C791.297 262.552 790.907 262.748 790.711 262.552Z" fill="#DD821F"/>
<path d="M788.367 269.2L781.528 264.898C781.333 264.703 781.138 264.312 781.333 264.116L781.724 263.725C781.919 263.53 782.31 263.334 782.505 263.53L789.344 267.831C789.539 268.026 789.734 268.417 789.539 268.613L789.148 269.004C788.953 269.2 788.562 269.395 788.367 269.2Z" fill="#DD821F"/>
<path d="M787.39 276.825L780.356 272.328C780.161 272.132 779.965 271.741 780.161 271.546L780.551 271.155C780.747 270.959 781.138 270.764 781.333 270.959L788.367 275.456C788.562 275.651 788.757 276.043 788.562 276.238L788.171 276.629C788.171 276.825 787.781 277.02 787.39 276.825Z" fill="#DD821F"/>
<path opacity="0.2" d="M909.502 398.825C902.859 402.54 892.309 402.54 885.666 398.825C879.023 395.11 879.023 388.854 885.666 385.139C892.309 381.424 902.859 381.424 909.502 385.139C916.145 388.854 916.145 394.915 909.502 398.825Z" fill="#242993"/>
<path d="M882.344 391.786L872.966 385.921L874.334 384.748L877.655 385.53L882.344 391.786Z" fill="#DD821F"/>
<path d="M922.007 329.027L912.824 323.161L918.294 333.328L922.007 329.027Z" fill="#FFD85A"/>
<path d="M918.962 371.025C929.994 353.732 927.361 332.318 913.082 323.196C898.802 314.074 878.283 320.698 867.25 337.991C856.218 355.284 858.851 376.697 873.131 385.82C887.41 394.942 907.93 388.318 918.962 371.025Z" fill="#FFD85A"/>
<path d="M928.136 376.985C939.168 359.692 936.535 338.278 922.256 329.156C907.976 320.033 887.457 326.657 876.425 343.95C865.393 361.243 868.025 382.657 882.305 391.779C896.585 400.901 917.104 394.278 928.136 376.985Z" fill="#FFD85A"/>
<path d="M869.84 371.257C871.012 379.86 875.115 387.29 882.344 391.786C896.607 400.975 917.122 394.328 928.259 377.123C933.729 368.52 935.879 358.94 934.902 350.338L869.84 371.257Z" fill="#DD821F"/>
<path d="M926.983 376.247C937.493 359.774 934.952 339.354 921.309 330.638C907.666 321.922 888.087 328.212 877.577 344.686C867.068 361.159 869.608 381.579 883.251 390.295C896.894 399.01 916.473 392.721 926.983 376.247Z" fill="#F9BF30"/>
<path d="M922.209 373.199C930.686 359.911 928.637 343.439 917.632 336.409C906.626 329.378 890.833 334.451 882.355 347.74C873.878 361.028 875.927 377.499 886.933 384.53C897.938 391.56 913.732 386.488 922.209 373.199Z" fill="#F2B42A"/>
<path d="M917.708 336.456C917.317 336.261 916.731 335.87 916.34 335.674C926.109 343.104 927.672 358.745 919.662 371.453C911.651 384.161 896.802 389.245 885.861 383.575C886.252 383.966 886.642 384.161 887.228 384.552C898.17 391.591 913.995 386.507 922.397 373.213C930.603 359.918 928.649 343.495 917.708 336.456Z" fill="#FFD85A"/>
<path d="M906.767 356.789L899.342 359.136C897.389 364.61 893.872 374.581 891.136 382.793C897.193 383.966 904.031 382.206 909.697 377.905L906.767 356.789Z" fill="#FFD85A"/>
<path d="M915.168 372.626C915.754 371.844 916.34 371.062 916.731 370.28C920.443 364.414 921.811 357.963 921.225 352.097L909.111 356.007L915.168 372.626Z" fill="#FFD85A"/>
<path d="M891.527 361.677L877.655 366.174C878.241 370.866 879.413 375.363 882.93 378.491L891.527 361.677Z" fill="#FFD85A"/>
<path d="M884.103 350.533C892.504 337.238 908.33 332.155 919.271 339.193C921.42 340.562 923.374 342.517 924.742 344.472C923.179 341.148 920.639 338.411 917.513 336.456C906.571 329.418 890.746 334.501 882.344 347.796C875.506 358.354 875.506 370.866 881.367 379.078C877.264 371.062 878.046 359.918 884.103 350.533Z" fill="#DD821F"/>
<path d="M872.966 385.921C875.115 387.29 877.46 388.267 879.804 389.049C878.046 387.094 875.506 384.161 875.506 384.161L871.989 378.687L871.598 375.754L871.403 370.866L860.461 363.828C861.243 373.017 865.541 381.033 872.966 385.921Z" fill="#DD821F"/>
<path d="M913.409 326.289L908.33 322.966C908.134 322.77 908.134 322.575 908.134 322.379V322.184C908.33 321.988 908.525 321.988 908.72 321.988L913.8 325.312C913.996 325.507 913.996 325.703 913.996 325.898V326.094C913.8 326.289 913.605 326.485 913.409 326.289Z" fill="#DD821F"/>
<path d="M905.79 325.507L899.538 321.402C899.342 321.206 899.147 321.011 899.342 320.62L899.538 320.424C899.733 320.228 899.928 320.033 900.319 320.228L906.571 324.334C906.767 324.53 906.962 324.725 906.767 325.116L906.571 325.312C906.376 325.703 906.18 325.703 905.79 325.507Z" fill="#DD821F"/>
<path d="M898.561 326.485L892.309 322.575C892.113 322.379 891.918 321.988 892.113 321.793L892.504 321.402C892.699 321.206 893.09 321.011 893.285 321.206L899.538 325.116C899.733 325.312 899.928 325.703 899.733 325.898L899.342 326.289C899.147 326.485 898.756 326.68 898.561 326.485Z" fill="#DD821F"/>
<path d="M890.941 329.809L884.103 325.507C883.907 325.312 883.712 324.921 883.907 324.725L884.298 324.334C884.493 324.139 884.884 323.943 885.08 324.139L891.918 328.44C892.113 328.636 892.309 329.027 892.113 329.222L891.723 329.613C891.527 329.809 891.332 330.004 890.941 329.809Z" fill="#DD821F"/>
<path d="M884.884 333.914L877.655 329.222C877.46 329.027 877.264 328.636 877.46 328.44L877.85 328.049C878.046 327.854 878.436 327.658 878.632 327.853L885.861 332.546C886.056 332.741 886.252 333.132 886.056 333.328L885.666 333.719C885.47 334.11 885.079 334.11 884.884 333.914Z" fill="#DD821F"/>
<path d="M879.609 338.802L872.575 334.305C872.38 334.11 872.184 333.719 872.38 333.523L872.771 333.132C872.966 332.937 873.357 332.741 873.552 332.937L880.586 337.434C880.781 337.629 880.976 338.02 880.781 338.216L880.39 338.607C880.195 338.998 879.804 338.998 879.609 338.802Z" fill="#DD821F"/>
<path d="M875.506 344.472L868.277 339.975C868.082 339.78 867.886 339.389 868.082 339.193L868.472 338.802C868.668 338.607 869.059 338.411 869.254 338.607L876.483 343.104C876.678 343.299 876.874 343.69 876.678 343.886L876.288 344.277C876.092 344.472 875.701 344.668 875.506 344.472Z" fill="#DD821F"/>
<path d="M871.989 350.337L864.955 345.841C864.76 345.645 864.565 345.254 864.76 345.059L865.151 344.668C865.346 344.472 865.737 344.277 865.932 344.472L872.966 348.969C873.161 349.164 873.357 349.555 873.161 349.751L872.771 350.142C872.771 350.533 872.38 350.533 871.989 350.337Z" fill="#DD821F"/>
<path d="M869.645 356.985L862.806 352.684C862.611 352.488 862.416 352.097 862.611 351.902L863.002 351.511C863.197 351.315 863.588 351.12 863.783 351.315L870.622 355.616C870.817 355.812 871.012 356.203 870.817 356.398L870.426 356.789C870.231 357.18 870.035 357.18 869.645 356.985Z" fill="#DD821F"/>
<path d="M868.863 364.61L861.829 360.113C861.634 359.918 861.439 359.527 861.634 359.331L862.025 358.94C862.22 358.745 862.611 358.549 862.806 358.745L869.84 363.241C870.035 363.437 870.231 363.828 870.035 364.023L869.644 364.414C869.449 364.805 869.058 364.805 868.863 364.61Z" fill="#DD821F"/>
<path opacity="0.5" d="M466.38 684.665L384.712 637.546C382.953 636.569 383.149 634.809 385.298 633.636L409.329 619.755L497.446 670.588L473.414 684.47C471.265 685.643 468.139 685.643 466.38 684.665Z" fill="#242993"/>
<path d="M582.436 620.537V604.309H555.864L497.055 570.29C495.687 569.508 493.147 569.508 491.389 570.485L432.775 604.309H406.398V620.732C406.398 621.319 406.789 621.71 407.375 622.101L491.779 670.784C493.147 671.566 495.687 671.566 497.445 670.588L581.068 622.296C582.045 621.71 582.436 621.123 582.436 620.537Z" fill="url(#paint33_linear)"/>
<path d="M491.975 654.361L407.571 605.678C406.203 604.896 406.399 603.332 407.962 602.354L491.584 554.062C493.343 553.085 495.687 553.085 497.25 553.867L581.654 602.55C583.022 603.332 582.827 604.896 581.264 605.873L497.641 654.165C495.883 655.143 493.343 655.338 491.975 654.361Z" fill="url(#paint34_linear)"/>
<path d="M492.17 648.691L417.34 605.482C415.972 604.7 416.167 603.527 417.73 602.55L491.779 559.732C493.342 558.95 495.492 558.755 496.859 559.537L571.69 602.745C573.057 603.527 572.862 604.7 571.299 605.678L497.25 648.495C495.687 649.277 493.538 649.473 492.17 648.691Z" fill="#242993"/>
<path d="M492.366 645.171L423.592 605.482C422.42 604.896 422.615 603.527 423.983 602.745L491.975 563.447C493.343 562.665 495.296 562.665 496.469 563.251L565.243 602.941C566.415 603.527 566.219 604.896 564.852 605.678L496.86 644.976C495.687 645.758 493.538 645.758 492.366 645.171Z" fill="#4553C7"/>
<path d="M492.952 601.572L484.941 596.88L489.24 594.338L497.25 599.03L492.952 601.572Z" fill="#42FFFF"/>
<path d="M507.801 600.985L499.79 605.482L495.492 602.941L503.503 598.444L507.801 600.985Z" fill="#42FFFF"/>
<path d="M491.193 602.55L486.7 605.091L482.401 602.55L486.7 600.008L491.193 602.55Z" fill="#42FFFF"/>
<path d="M506.238 611.348L501.939 613.889L489.24 606.655L493.733 604.114L506.238 611.348Z" fill="#42FFFF"/>
<path opacity="0.5" d="M1117.39 167.924L1035.72 120.805C1033.96 119.827 1034.15 118.068 1036.3 116.895L1060.34 103.013L1148.45 153.847L1124.42 167.728C1122.27 168.901 1119.34 169.097 1117.39 167.924Z" fill="#242993"/>
<path d="M1233.64 103.795V87.5678H1207.07L1148.26 53.5485C1146.89 52.7664 1144.35 52.7664 1142.59 53.744L1083.98 87.5678H1057.6V103.991C1057.6 104.577 1057.99 104.968 1058.58 105.359L1142.98 154.042C1144.35 154.824 1146.89 154.824 1148.65 153.847L1232.27 105.555C1233.05 104.968 1233.64 104.382 1233.64 103.795Z" fill="url(#paint35_linear)"/>
<path d="M1142.98 137.815L1058.58 88.9364C1057.21 88.1543 1057.41 86.5902 1058.97 85.6126L1142.59 37.3209C1144.35 36.3433 1146.69 36.3433 1148.26 37.1254L1232.66 85.8082C1234.03 86.5902 1233.83 88.1543 1232.27 89.1319L1148.65 137.424C1147.08 138.401 1144.54 138.597 1142.98 137.815Z" fill="url(#paint36_linear)"/>
<path d="M1143.37 131.949L1068.54 88.7408C1067.17 87.9588 1067.37 86.7857 1068.93 85.8081L1142.98 42.9907C1144.54 42.2087 1146.69 42.0132 1148.06 42.7952L1222.89 86.0036C1224.26 86.7857 1224.06 87.9588 1222.5 88.9363L1148.26 131.754C1146.89 132.731 1144.54 132.731 1143.37 131.949Z" fill="#242993"/>
<path d="M1143.57 128.43L1074.79 88.7408C1073.62 88.1543 1073.82 86.7857 1075.18 86.0036L1143.18 46.7055C1144.54 45.9234 1146.5 45.9234 1147.67 46.5099L1216.44 86.1991C1217.62 86.7857 1217.42 88.1543 1216.05 88.9363L1148.06 128.234C1146.69 129.017 1144.74 129.017 1143.57 128.43Z" fill="#4553C7"/>
<path d="M1144.15 84.8306L1136.14 80.1383L1140.44 77.5966L1148.45 82.2889L1144.15 84.8306Z" fill="#42FFFF"/>
<path d="M1159 84.244L1150.99 88.9363L1146.69 86.3946L1154.7 81.7023L1159 84.244Z" fill="#42FFFF"/>
<path d="M1142.2 86.0036L1137.9 88.5453L1133.41 86.0036L1137.9 83.462L1142.2 86.0036Z" fill="#42FFFF"/>
<path d="M1157.44 94.6063L1152.95 97.1479L1140.44 89.9139L1144.74 87.3723L1157.44 94.6063Z" fill="#42FFFF"/>
<path opacity="0.5" d="M199.687 659.835L110.789 608.415L254.393 525.908L343.291 577.328L199.687 659.835Z" fill="#242993"/>
<path d="M332.35 386.312L243.452 334.892L332.35 283.472L421.443 334.892L332.35 386.312Z" fill="#BCD5FF"/>
<path d="M332.35 583.585L243.452 532.165L332.35 480.745L421.443 532.165L332.35 583.585Z" fill="white"/>
<path d="M421.443 334.892V532.165L332.35 583.585V386.312L421.443 334.892Z" fill="url(#paint37_linear)"/>
<path d="M243.452 334.892V532.165L332.35 583.585V386.312L243.452 334.892Z" fill="#242993"/>
<g opacity="0.51">
<path opacity="0.51" d="M249.508 347.991V525.322L326.293 569.703V392.373L249.508 347.991Z" fill="#2C608A"/>
</g>
<path d="M407.962 382.402V387.681L345.831 423.655V418.572L407.962 382.402Z" fill="#4553C7"/>
<path d="M407.962 404.495V409.774L345.831 445.748V440.469L407.962 404.495Z" fill="#4553C7"/>
<path d="M407.962 426.588V431.867L345.831 467.841V462.562L407.962 426.588Z" fill="#4553C7"/>
<path d="M407.962 448.681V453.764L345.831 489.934V484.655L407.962 448.681Z" fill="#4553C7"/>
<path d="M407.962 470.774V475.857L345.831 511.831V506.748L407.962 470.774Z" fill="#4553C7"/>
<path d="M407.962 492.671V497.95L345.831 533.924V528.646L407.962 492.671Z" fill="#4553C7"/>
<path opacity="0.78" d="M332.35 385.561L309.1 372.626L243.452 334.892L314.766 293.639L332.35 283.412L421.678 334.892L332.35 385.561Z" fill="url(#paint38_linear)"/>
<path d="M332.35 368.129L267.875 330.982L332.35 293.639L397.021 330.982L332.35 368.129Z" fill="url(#paint39_linear)"/>
<path d="M397.02 330.982V335.479L332.35 372.626V368.129L397.02 330.982Z" fill="url(#paint40_linear)"/>
<path d="M267.875 330.982V335.479L332.35 372.626V368.129L267.875 330.982Z" fill="url(#paint41_linear)"/>
<path d="M307.341 331.568L304.41 329.809L304.801 328.44L331.177 312.995L334.89 314.754L334.303 315.927L307.341 331.568Z" fill="#3F38FC"/>
<path d="M331.373 314.363L334.303 315.927L336.062 314.95L331.373 312.212L302.652 328.831L304.606 329.809L331.373 314.363Z" fill="url(#paint42_linear)"/>
<path d="M316.133 336.456L313.202 334.892L313.398 333.523L339.969 318.078L343.682 319.837L342.9 321.011L316.133 336.456Z" fill="#3F38FC"/>
<path d="M340.165 319.251L342.9 321.011L344.854 319.837L340.165 317.1L311.444 333.719L313.203 334.892L340.165 319.251Z" fill="url(#paint43_linear)"/>
<path d="M324.73 341.539L321.799 339.78L322.19 338.411L348.566 322.966L352.278 324.725L351.692 325.898L324.73 341.539Z" fill="#3F38FC"/>
<path d="M348.762 324.334L351.692 325.898L353.451 324.921L348.762 322.184L320.041 338.802L321.799 339.78L348.762 324.334Z" fill="url(#paint44_linear)"/>
<path d="M333.327 346.427L330.592 344.863L330.787 343.495L357.359 328.049L361.071 329.809L360.29 330.982L333.327 346.427Z" fill="#3F38FC"/>
<path d="M357.359 329.222L360.289 330.982L362.048 329.809L357.359 327.071L328.638 343.69L330.591 344.863L357.359 329.222Z" fill="url(#paint45_linear)"/>
<g opacity="0.51">
<path opacity="0.51" d="M243.452 500.883L332.35 447.117V386.312L243.452 334.892V500.883Z" fill="#4553C7"/>
</g>
<path d="M328.833 395.11C328.833 392.764 327.27 390.027 325.316 389.049C324.339 388.463 323.362 388.463 322.776 388.854L320.236 390.418H321.799C321.799 390.613 321.799 391.004 321.799 391.2C321.799 393.546 323.362 396.283 325.316 397.261C325.512 397.456 325.902 397.456 326.098 397.652L325.316 399.02L327.856 397.652C328.442 397.065 328.833 396.283 328.833 395.11Z" fill="url(#paint46_linear)"/>
<path d="M326.293 396.479C326.293 398.825 324.73 399.607 322.776 398.434C320.822 397.261 319.259 394.523 319.259 392.373C319.259 390.027 320.822 389.245 322.776 390.418C324.73 391.591 326.293 394.328 326.293 396.479Z" fill="url(#paint47_linear)"/>
<path d="M324.925 395.697C324.925 397.065 323.948 397.456 322.971 396.87C321.799 396.283 321.018 394.719 321.018 393.35C321.018 391.982 321.994 391.591 322.971 392.177C323.948 392.764 324.925 394.328 324.925 395.697Z" fill="#3F38FC"/>
<path d="M254.198 349.164C254.198 346.818 252.635 344.081 250.681 343.104C249.704 342.517 248.727 342.517 248.141 342.908L245.601 344.472H247.164C247.164 344.668 247.164 345.059 247.164 345.254C247.164 347.6 248.727 350.337 250.681 351.315C250.876 351.511 251.267 351.511 251.462 351.706L250.681 353.075L253.221 351.706C253.807 351.12 254.198 350.338 254.198 349.164Z" fill="url(#paint48_linear)"/>
<path d="M251.658 350.729C251.658 353.075 250.095 353.857 248.141 352.684C246.187 351.511 244.624 348.773 244.624 346.623C244.624 344.472 246.187 343.495 248.141 344.668C250.095 345.645 251.658 348.382 251.658 350.729Z" fill="url(#paint49_linear)"/>
<path d="M250.29 349.751C250.29 351.12 249.313 351.511 248.336 350.924C247.164 350.338 246.382 348.773 246.382 347.405C246.382 346.036 247.359 345.645 248.336 346.232C249.313 347.014 250.29 348.578 250.29 349.751Z" fill="#3F38FC"/>
<path d="M328.833 571.854C328.833 569.508 327.27 566.771 325.316 565.793C324.339 565.207 323.362 565.207 322.776 565.598L320.236 567.162H321.799C321.799 567.357 321.799 567.748 321.799 567.944C321.799 570.29 323.362 573.027 325.316 574.005C325.512 574.2 325.902 574.2 326.098 574.396L325.316 575.764L327.856 574.396C328.442 573.809 328.833 573.027 328.833 571.854Z" fill="url(#paint50_linear)"/>
<path d="M326.293 573.223C326.293 575.569 324.73 576.351 322.776 575.178C320.822 574.005 319.259 571.267 319.259 569.117C319.259 566.966 320.822 565.989 322.776 567.162C324.73 568.335 326.293 571.072 326.293 573.223Z" fill="url(#paint51_linear)"/>
<path d="M324.925 572.441C324.925 573.809 323.948 574.2 322.971 573.614C321.799 573.027 321.018 571.463 321.018 570.094C321.018 568.726 321.994 568.335 322.971 568.921C323.948 569.508 324.925 571.072 324.925 572.441Z" fill="#3F38FC"/>
<path d="M254.198 525.908C254.198 523.562 252.635 520.825 250.681 519.847C249.704 519.261 248.727 519.261 248.141 519.652L245.601 521.216H247.164C247.164 521.412 247.164 521.803 247.164 521.998C247.164 524.344 248.727 527.081 250.681 528.059C250.876 528.255 251.267 528.255 251.462 528.45L250.681 529.819L253.221 528.45C253.807 527.863 254.198 527.081 254.198 525.908Z" fill="url(#paint52_linear)"/>
<path d="M251.658 527.473C251.658 529.819 250.095 530.601 248.141 529.428C246.187 528.255 244.624 525.517 244.624 523.367C244.624 521.216 246.187 520.239 248.141 521.412C250.095 522.389 251.658 525.126 251.658 527.473Z" fill="url(#paint53_linear)"/>
<path d="M250.29 526.495C250.29 527.863 249.313 528.254 248.336 527.668C247.164 527.081 246.382 525.517 246.382 524.149C246.382 522.78 247.359 522.389 248.336 522.976C249.313 523.562 250.29 525.322 250.29 526.495Z" fill="#3F38FC"/>
<path d="M284.091 435.581L288.585 438.123V435.19L284.091 432.453V435.581Z" fill="#42FFFF"/>
<path d="M284.091 456.11L288.585 458.652V440.86L284.091 438.318V456.11Z" fill="#42FFFF"/>
<path d="M284.091 465.886L288.585 468.428V461.389L284.091 458.847V465.886Z" fill="#42FFFF"/>
<path d="M284.091 476.053L288.585 478.594V471.556L284.091 469.014V476.053Z" fill="#42FFFF"/>
<path d="M277.253 441.447L281.747 443.988V436.95L277.253 434.408V441.447Z" fill="#42FFFF"/>
<path d="M277.253 454.937L281.747 457.479V447.117L277.253 444.575V454.937Z" fill="#42FFFF"/>
<path d="M277.253 467.254L281.747 469.992V460.998L277.253 458.456V467.254Z" fill="#42FFFF"/>
<path d="M284.091 486.219L288.585 488.761V481.722L284.091 479.181V486.219Z" fill="#42FFFF"/>
<path d="M277.253 431.671L281.747 434.213V431.28L277.253 428.543V431.671Z" fill="#42FFFF"/>
<defs>
<linearGradient id="paint0_linear" x1="157.043" y1="198.315" x2="1107.49" y2="267.119" gradientUnits="userSpaceOnUse">
<stop stop-color="#6A8AFF"/>
<stop offset="1" stop-color="#42FFFF"/>
</linearGradient>
<linearGradient id="paint1_linear" x1="385.584" y1="483.623" x2="678.411" y2="529.931" gradientUnits="userSpaceOnUse">
<stop stop-color="#6A8AFF"/>
<stop offset="1" stop-color="#42FFFF"/>
</linearGradient>
<linearGradient id="paint2_linear" x1="1142.71" y1="227.596" x2="760.361" y2="227.596" gradientUnits="userSpaceOnUse">
<stop stop-color="#C0D6FF"/>
<stop offset="0.2978" stop-color="#C5DBFF"/>
<stop offset="0.6488" stop-color="#D3E9FF"/>
<stop offset="1" stop-color="#E9FFFF"/>
</linearGradient>
<linearGradient id="paint3_linear" x1="1142.71" y1="325.718" x2="1077.06" y2="325.718" gradientUnits="userSpaceOnUse">
<stop stop-color="#5778FF"/>
<stop offset="0.1779" stop-color="#5C7DFF"/>
<stop offset="0.3876" stop-color="#6A8AFF"/>
<stop offset="0.6134" stop-color="#82A0FF"/>
<stop offset="0.849" stop-color="#A3BEFF"/>
<stop offset="1" stop-color="#BCD5FF"/>
</linearGradient>
<linearGradient id="paint4_linear" x1="1091.49" y1="436.019" x2="551.481" y2="436.019" gradientUnits="userSpaceOnUse">
<stop stop-color="#5778FF"/>
<stop offset="0.1779" stop-color="#5C7DFF"/>
<stop offset="0.3876" stop-color="#6A8AFF"/>
<stop offset="0.6134" stop-color="#82A0FF"/>
<stop offset="0.849" stop-color="#A3BEFF"/>
<stop offset="1" stop-color="#BCD5FF"/>
</linearGradient>
<linearGradient id="paint5_linear" x1="910.042" y1="418.001" x2="369.75" y2="418.001" gradientUnits="userSpaceOnUse">
<stop stop-color="#C0D6FF"/>
<stop offset="0.2978" stop-color="#C5DBFF"/>
<stop offset="0.6488" stop-color="#D3E9FF"/>
<stop offset="1" stop-color="#E9FFFF"/>
</linearGradient>
<linearGradient id="paint6_linear" x1="818.545" y1="448.694" x2="680.245" y2="448.694" gradientUnits="userSpaceOnUse">
<stop stop-color="#C0D6FF"/>
<stop offset="0.2978" stop-color="#C5DBFF"/>
<stop offset="0.6488" stop-color="#D3E9FF"/>
<stop offset="1" stop-color="#E9FFFF"/>
</linearGradient>
<linearGradient id="paint7_linear" x1="1116.47" y1="298.166" x2="576.173" y2="298.166" gradientUnits="userSpaceOnUse">
<stop stop-color="#C0D6FF"/>
<stop offset="0.2978" stop-color="#C5DBFF"/>
<stop offset="0.6488" stop-color="#D3E9FF"/>
<stop offset="1" stop-color="#E9FFFF"/>
</linearGradient>
<linearGradient id="paint8_linear" x1="1152.03" y1="258.477" x2="1013.73" y2="258.477" gradientUnits="userSpaceOnUse">
<stop stop-color="#C0D6FF"/>
<stop offset="0.2978" stop-color="#C5DBFF"/>
<stop offset="0.6488" stop-color="#D3E9FF"/>
<stop offset="1" stop-color="#E9FFFF"/>
</linearGradient>
<radialGradient id="paint9_radial" cx="0" cy="0" r="1" gradientUnits="userSpaceOnUse" gradientTransform="translate(934.108 367.76) rotate(180) scale(154.891 154.996)">
<stop stop-color="#2B3AA5"/>
<stop offset="1" stop-color="#182484"/>
</radialGradient>
<radialGradient id="paint10_radial" cx="0" cy="0" r="1" gradientUnits="userSpaceOnUse" gradientTransform="translate(967.985 298.033) rotate(180) scale(118.559 118.64)">
<stop stop-color="#2B3AA5"/>
<stop offset="1" stop-color="#182484"/>
</radialGradient>
<linearGradient id="paint11_linear" x1="1010.67" y1="332.284" x2="906.124" y2="144.161" gradientUnits="userSpaceOnUse">
<stop stop-color="#5778FF"/>
<stop offset="0.0397918" stop-color="#5C7DFF"/>
<stop offset="0.086699" stop-color="#6A8AFF"/>
<stop offset="0.1372" stop-color="#82A0FF"/>
<stop offset="0.1899" stop-color="#A3BEFF"/>
<stop offset="0.2237" stop-color="#BCD5FF"/>
</linearGradient>
<linearGradient id="paint12_linear" x1="882.369" y1="332.951" x2="951.958" y2="197.005" gradientUnits="userSpaceOnUse">
<stop stop-color="#C0D6FF"/>
<stop offset="0.2978" stop-color="#C5DBFF"/>
<stop offset="0.6488" stop-color="#D3E9FF"/>
<stop offset="1" stop-color="#E9FFFF"/>
</linearGradient>
<linearGradient id="paint13_linear" x1="694.483" y1="577.389" x2="915.642" y2="185.784" gradientUnits="userSpaceOnUse">
<stop stop-color="#C0D6FF"/>
<stop offset="0.078169" stop-color="#C3D9FF"/>
<stop offset="0.1341" stop-color="#CCE2FF"/>
<stop offset="0.1829" stop-color="#DCF2FF"/>
<stop offset="0.2117" stop-color="#E9FFFF"/>
<stop offset="0.256" stop-color="#D8EEFF"/>
<stop offset="0.3145" stop-color="#CBE1FF"/>
<stop offset="0.3869" stop-color="#C2D8FF"/>
<stop offset="0.5143" stop-color="#C0D6FF"/>
<stop offset="0.6239" stop-color="#D0E6FF"/>
<stop offset="0.755" stop-color="#E9FFFF"/>
<stop offset="1" stop-color="#C0D6FF"/>
</linearGradient>
<linearGradient id="paint14_linear" x1="758.733" y1="319.169" x2="709.617" y2="319.169" gradientUnits="userSpaceOnUse">
<stop stop-color="#C0D6FF"/>
<stop offset="0.4983" stop-color="#D2E8FF"/>
<stop offset="1" stop-color="#E9FFFF"/>
</linearGradient>
<linearGradient id="paint15_linear" x1="813.779" y1="319.169" x2="718.861" y2="319.169" gradientUnits="userSpaceOnUse">
<stop stop-color="#5778FF"/>
<stop offset="0.1779" stop-color="#5C7DFF"/>
<stop offset="0.3876" stop-color="#6A8AFF"/>
<stop offset="0.6134" stop-color="#82A0FF"/>
<stop offset="0.849" stop-color="#A3BEFF"/>
<stop offset="1" stop-color="#BCD5FF"/>
</linearGradient>
<linearGradient id="paint16_linear" x1="751.501" y1="249.155" x2="734.017" y2="279.416" gradientUnits="userSpaceOnUse">
<stop stop-color="#C0D6FF"/>
<stop offset="0.2978" stop-color="#C5DBFF"/>
<stop offset="0.6488" stop-color="#D3E9FF"/>
<stop offset="1" stop-color="#E9FFFF"/>
</linearGradient>
<linearGradient id="paint17_linear" x1="745.309" y1="252.731" x2="734.022" y2="272.267" gradientUnits="userSpaceOnUse">
<stop stop-color="#5778FF"/>
<stop offset="0.1779" stop-color="#5C7DFF"/>
<stop offset="0.3876" stop-color="#6A8AFF"/>
<stop offset="0.6134" stop-color="#82A0FF"/>
<stop offset="0.849" stop-color="#A3BEFF"/>
<stop offset="1" stop-color="#BCD5FF"/>
</linearGradient>
<linearGradient id="paint18_linear" x1="758.733" y1="248.262" x2="709.617" y2="248.262" gradientUnits="userSpaceOnUse">
<stop stop-color="#C0D6FF"/>
<stop offset="0.4983" stop-color="#D2E8FF"/>
<stop offset="1" stop-color="#E9FFFF"/>
</linearGradient>
<linearGradient id="paint19_linear" x1="813.779" y1="248.262" x2="718.861" y2="248.262" gradientUnits="userSpaceOnUse">
<stop stop-color="#5778FF"/>
<stop offset="0.1779" stop-color="#5C7DFF"/>
<stop offset="0.3876" stop-color="#6A8AFF"/>
<stop offset="0.6134" stop-color="#82A0FF"/>
<stop offset="0.849" stop-color="#A3BEFF"/>
<stop offset="1" stop-color="#BCD5FF"/>
</linearGradient>
<linearGradient id="paint20_linear" x1="751.5" y1="226.215" x2="734.017" y2="256.477" gradientUnits="userSpaceOnUse">
<stop stop-color="#C0D6FF"/>
<stop offset="0.2978" stop-color="#C5DBFF"/>
<stop offset="0.6488" stop-color="#D3E9FF"/>
<stop offset="1" stop-color="#E9FFFF"/>
</linearGradient>
<linearGradient id="paint21_linear" x1="799.576" y1="360.333" x2="750.459" y2="360.333" gradientUnits="userSpaceOnUse">
<stop stop-color="#C0D6FF"/>
<stop offset="0.4983" stop-color="#D2E8FF"/>
<stop offset="1" stop-color="#E9FFFF"/>
</linearGradient>
<linearGradient id="paint22_linear" x1="854.621" y1="360.333" x2="759.704" y2="360.333" gradientUnits="userSpaceOnUse">
<stop stop-color="#5778FF"/>
<stop offset="0.1779" stop-color="#5C7DFF"/>
<stop offset="0.3876" stop-color="#6A8AFF"/>
<stop offset="0.6134" stop-color="#82A0FF"/>
<stop offset="0.849" stop-color="#A3BEFF"/>
<stop offset="1" stop-color="#BCD5FF"/>
</linearGradient>
<linearGradient id="paint23_linear" x1="792.342" y1="307.913" x2="774.858" y2="338.175" gradientUnits="userSpaceOnUse">
<stop stop-color="#C0D6FF"/>
<stop offset="0.2978" stop-color="#C5DBFF"/>
<stop offset="0.6488" stop-color="#D3E9FF"/>
<stop offset="1" stop-color="#E9FFFF"/>
</linearGradient>
<linearGradient id="paint24_linear" x1="840.419" y1="365.879" x2="791.301" y2="365.879" gradientUnits="userSpaceOnUse">
<stop stop-color="#C0D6FF"/>
<stop offset="0.4983" stop-color="#D2E8FF"/>
<stop offset="1" stop-color="#E9FFFF"/>
</linearGradient>
<linearGradient id="paint25_linear" x1="895.463" y1="365.879" x2="800.546" y2="365.879" gradientUnits="userSpaceOnUse">
<stop stop-color="#5778FF"/>
<stop offset="0.1779" stop-color="#5C7DFF"/>
<stop offset="0.3876" stop-color="#6A8AFF"/>
<stop offset="0.6134" stop-color="#82A0FF"/>
<stop offset="0.849" stop-color="#A3BEFF"/>
<stop offset="1" stop-color="#BCD5FF"/>
</linearGradient>
<linearGradient id="paint26_linear" x1="833.184" y1="295.437" x2="815.7" y2="325.699" gradientUnits="userSpaceOnUse">
<stop stop-color="#C0D6FF"/>
<stop offset="0.2978" stop-color="#C5DBFF"/>
<stop offset="0.6488" stop-color="#D3E9FF"/>
<stop offset="1" stop-color="#E9FFFF"/>
</linearGradient>
<linearGradient id="paint27_linear" x1="881.261" y1="399.042" x2="832.144" y2="399.042" gradientUnits="userSpaceOnUse">
<stop stop-color="#C0D6FF"/>
<stop offset="0.4983" stop-color="#D2E8FF"/>
<stop offset="1" stop-color="#E9FFFF"/>
</linearGradient>
<linearGradient id="paint28_linear" x1="936.306" y1="399.042" x2="841.388" y2="399.042" gradientUnits="userSpaceOnUse">
<stop stop-color="#5778FF"/>
<stop offset="0.1779" stop-color="#5C7DFF"/>
<stop offset="0.3876" stop-color="#6A8AFF"/>
<stop offset="0.6134" stop-color="#82A0FF"/>
<stop offset="0.849" stop-color="#A3BEFF"/>
<stop offset="1" stop-color="#BCD5FF"/>
</linearGradient>
<linearGradient id="paint29_linear" x1="874.027" y1="338.194" x2="856.543" y2="368.455" gradientUnits="userSpaceOnUse">
<stop stop-color="#C0D6FF"/>
<stop offset="0.2978" stop-color="#C5DBFF"/>
<stop offset="0.6488" stop-color="#D3E9FF"/>
<stop offset="1" stop-color="#E9FFFF"/>
</linearGradient>
<linearGradient id="paint30_linear" x1="922.103" y1="433.365" x2="872.987" y2="433.365" gradientUnits="userSpaceOnUse">
<stop stop-color="#C0D6FF"/>
<stop offset="0.4983" stop-color="#D2E8FF"/>
<stop offset="1" stop-color="#E9FFFF"/>
</linearGradient>
<linearGradient id="paint31_linear" x1="977.148" y1="433.365" x2="882.231" y2="433.365" gradientUnits="userSpaceOnUse">
<stop stop-color="#5778FF"/>
<stop offset="0.1779" stop-color="#5C7DFF"/>
<stop offset="0.3876" stop-color="#6A8AFF"/>
<stop offset="0.6134" stop-color="#82A0FF"/>
<stop offset="0.849" stop-color="#A3BEFF"/>
<stop offset="1" stop-color="#BCD5FF"/>
</linearGradient>
<linearGradient id="paint32_linear" x1="914.869" y1="383.272" x2="897.385" y2="413.533" gradientUnits="userSpaceOnUse">
<stop stop-color="#C0D6FF"/>
<stop offset="0.2978" stop-color="#C5DBFF"/>
<stop offset="0.6488" stop-color="#D3E9FF"/>
<stop offset="1" stop-color="#E9FFFF"/>
</linearGradient>
<linearGradient id="paint33_linear" x1="544.914" y1="572.285" x2="407.728" y2="682.218" gradientUnits="userSpaceOnUse">
<stop stop-color="#BCD5FF"/>
<stop offset="0.151" stop-color="#A3BEFF"/>
<stop offset="0.3866" stop-color="#82A0FF"/>
<stop offset="0.6124" stop-color="#6A8AFF"/>
<stop offset="0.8221" stop-color="#5C7DFF"/>
<stop offset="1" stop-color="#5778FF"/>
</linearGradient>
<linearGradient id="paint34_linear" x1="570.827" y1="605.85" x2="380.085" y2="546.316" gradientUnits="userSpaceOnUse">
<stop stop-color="#C0D6FF"/>
<stop offset="0.2978" stop-color="#C5DBFF"/>
<stop offset="0.6488" stop-color="#D3E9FF"/>
<stop offset="1" stop-color="#E9FFFF"/>
</linearGradient>
<linearGradient id="paint35_linear" x1="1196.05" y1="55.5873" x2="1058.86" y2="165.52" gradientUnits="userSpaceOnUse">
<stop stop-color="#BCD5FF"/>
<stop offset="0.151" stop-color="#A3BEFF"/>
<stop offset="0.3866" stop-color="#82A0FF"/>
<stop offset="0.6124" stop-color="#6A8AFF"/>
<stop offset="0.8221" stop-color="#5C7DFF"/>
<stop offset="1" stop-color="#5778FF"/>
</linearGradient>
<linearGradient id="paint36_linear" x1="1221.96" y1="89.1522" x2="1031.22" y2="29.6183" gradientUnits="userSpaceOnUse">
<stop stop-color="#C0D6FF"/>
<stop offset="0.2978" stop-color="#C5DBFF"/>
<stop offset="0.6488" stop-color="#D3E9FF"/>
<stop offset="1" stop-color="#E9FFFF"/>
</linearGradient>
<linearGradient id="paint37_linear" x1="376.888" y1="527.978" x2="376.888" y2="340.099" gradientUnits="userSpaceOnUse">
<stop stop-color="#C0D6FF"/>
<stop offset="0.2978" stop-color="#C5DBFF"/>
<stop offset="0.6488" stop-color="#D3E9FF"/>
<stop offset="1" stop-color="#E9FFFF"/>
</linearGradient>
<linearGradient id="paint38_linear" x1="243.435" y1="333.153" x2="332.405" y2="333.153" gradientUnits="userSpaceOnUse">
<stop stop-color="#E9FFFF"/>
<stop offset="0.0373936" stop-color="#D3EBFF"/>
<stop offset="0.1056" stop-color="#B2CCFF"/>
<stop offset="0.1817" stop-color="#96B2FF"/>
<stop offset="0.2663" stop-color="#7F9DFF"/>
<stop offset="0.3632" stop-color="#6D8CFF"/>
<stop offset="0.4798" stop-color="#6081FF"/>
<stop offset="0.6363" stop-color="#597AFF"/>
<stop offset="1" stop-color="#5778FF"/>
</linearGradient>
<linearGradient id="paint39_linear" x1="267.85" y1="330.885" x2="396.958" y2="330.885" gradientUnits="userSpaceOnUse">
<stop stop-color="#C0D6FF"/>
<stop offset="0.2978" stop-color="#C5DBFF"/>
<stop offset="0.6488" stop-color="#D3E9FF"/>
<stop offset="1" stop-color="#E9FFFF"/>
</linearGradient>
<linearGradient id="paint40_linear" x1="373.013" y1="366.359" x2="357.302" y2="338.946" gradientUnits="userSpaceOnUse">
<stop stop-color="#C0D6FF"/>
<stop offset="0.2978" stop-color="#C5DBFF"/>
<stop offset="0.6488" stop-color="#D3E9FF"/>
<stop offset="1" stop-color="#E9FFFF"/>
</linearGradient>
<linearGradient id="paint41_linear" x1="300.127" y1="353.348" x2="300.127" y2="311.516" gradientUnits="userSpaceOnUse">
<stop stop-color="#5778FF"/>
<stop offset="0.1779" stop-color="#5C7DFF"/>
<stop offset="0.3876" stop-color="#6A8AFF"/>
<stop offset="0.6134" stop-color="#82A0FF"/>
<stop offset="0.849" stop-color="#A3BEFF"/>
<stop offset="1" stop-color="#BCD5FF"/>
</linearGradient>
<linearGradient id="paint42_linear" x1="302.67" y1="321" x2="336.102" y2="321" gradientUnits="userSpaceOnUse">
<stop stop-color="#5778FF"/>
<stop offset="0.1779" stop-color="#5C7DFF"/>
<stop offset="0.3876" stop-color="#6A8AFF"/>
<stop offset="0.6134" stop-color="#82A0FF"/>
<stop offset="0.849" stop-color="#A3BEFF"/>
<stop offset="1" stop-color="#BCD5FF"/>
</linearGradient>
<linearGradient id="paint43_linear" x1="311.348" y1="325.998" x2="344.78" y2="325.998" gradientUnits="userSpaceOnUse">
<stop stop-color="#5778FF"/>
<stop offset="0.1779" stop-color="#5C7DFF"/>
<stop offset="0.3876" stop-color="#6A8AFF"/>
<stop offset="0.6134" stop-color="#82A0FF"/>
<stop offset="0.849" stop-color="#A3BEFF"/>
<stop offset="1" stop-color="#BCD5FF"/>
</linearGradient>
<linearGradient id="paint44_linear" x1="320.027" y1="330.996" x2="353.458" y2="330.996" gradientUnits="userSpaceOnUse">
<stop stop-color="#5778FF"/>
<stop offset="0.1779" stop-color="#5C7DFF"/>
<stop offset="0.3876" stop-color="#6A8AFF"/>
<stop offset="0.6134" stop-color="#82A0FF"/>
<stop offset="0.849" stop-color="#A3BEFF"/>
<stop offset="1" stop-color="#BCD5FF"/>
</linearGradient>
<linearGradient id="paint45_linear" x1="328.705" y1="335.994" x2="362.137" y2="335.994" gradientUnits="userSpaceOnUse">
<stop stop-color="#5778FF"/>
<stop offset="0.1779" stop-color="#5C7DFF"/>
<stop offset="0.3876" stop-color="#6A8AFF"/>
<stop offset="0.6134" stop-color="#82A0FF"/>
<stop offset="0.849" stop-color="#A3BEFF"/>
<stop offset="1" stop-color="#BCD5FF"/>
</linearGradient>
<linearGradient id="paint46_linear" x1="320.319" y1="393.656" x2="328.88" y2="393.656" gradientUnits="userSpaceOnUse">
<stop stop-color="#C0D6FF"/>
<stop offset="0.2978" stop-color="#C5DBFF"/>
<stop offset="0.6488" stop-color="#D3E9FF"/>
<stop offset="1" stop-color="#E9FFFF"/>
</linearGradient>
<linearGradient id="paint47_linear" x1="319.277" y1="394.529" x2="326.357" y2="394.529" gradientUnits="userSpaceOnUse">
<stop stop-color="#5778FF"/>
<stop offset="0.1779" stop-color="#5C7DFF"/>
<stop offset="0.3876" stop-color="#6A8AFF"/>
<stop offset="0.6134" stop-color="#82A0FF"/>
<stop offset="0.849" stop-color="#A3BEFF"/>
<stop offset="1" stop-color="#BCD5FF"/>
</linearGradient>
<linearGradient id="paint48_linear" x1="245.702" y1="347.778" x2="254.263" y2="347.778" gradientUnits="userSpaceOnUse">
<stop stop-color="#C0D6FF"/>
<stop offset="0.2978" stop-color="#C5DBFF"/>
<stop offset="0.6488" stop-color="#D3E9FF"/>
<stop offset="1" stop-color="#E9FFFF"/>
</linearGradient>
<linearGradient id="paint49_linear" x1="244.66" y1="348.651" x2="251.74" y2="348.651" gradientUnits="userSpaceOnUse">
<stop stop-color="#5778FF"/>
<stop offset="0.1779" stop-color="#5C7DFF"/>
<stop offset="0.3876" stop-color="#6A8AFF"/>
<stop offset="0.6134" stop-color="#82A0FF"/>
<stop offset="0.849" stop-color="#A3BEFF"/>
<stop offset="1" stop-color="#BCD5FF"/>
</linearGradient>
<linearGradient id="paint50_linear" x1="320.319" y1="570.358" x2="328.88" y2="570.358" gradientUnits="userSpaceOnUse">
<stop stop-color="#C0D6FF"/>
<stop offset="0.2978" stop-color="#C5DBFF"/>
<stop offset="0.6488" stop-color="#D3E9FF"/>
<stop offset="1" stop-color="#E9FFFF"/>
</linearGradient>
<linearGradient id="paint51_linear" x1="319.277" y1="571.231" x2="326.357" y2="571.231" gradientUnits="userSpaceOnUse">
<stop stop-color="#5778FF"/>
<stop offset="0.1779" stop-color="#5C7DFF"/>
<stop offset="0.3876" stop-color="#6A8AFF"/>
<stop offset="0.6134" stop-color="#82A0FF"/>
<stop offset="0.849" stop-color="#A3BEFF"/>
<stop offset="1" stop-color="#BCD5FF"/>
</linearGradient>
<linearGradient id="paint52_linear" x1="245.702" y1="524.48" x2="254.263" y2="524.48" gradientUnits="userSpaceOnUse">
<stop stop-color="#C0D6FF"/>
<stop offset="0.2978" stop-color="#C5DBFF"/>
<stop offset="0.6488" stop-color="#D3E9FF"/>
<stop offset="1" stop-color="#E9FFFF"/>
</linearGradient>
<linearGradient id="paint53_linear" x1="244.66" y1="525.353" x2="251.74" y2="525.353" gradientUnits="userSpaceOnUse">
<stop stop-color="#5778FF"/>
<stop offset="0.1779" stop-color="#5C7DFF"/>
<stop offset="0.3876" stop-color="#6A8AFF"/>
<stop offset="0.6134" stop-color="#82A0FF"/>
<stop offset="0.849" stop-color="#A3BEFF"/>
<stop offset="1" stop-color="#BCD5FF"/>
</linearGradient>
</defs>
</svg>
